G04 #@! TF.GenerationSoftware,KiCad,Pcbnew,(5.1.10)-1*
G04 #@! TF.CreationDate,2021-06-20T22:47:18+04:00*
G04 #@! TF.ProjectId,pico-expansion-long-board,7069636f-2d65-4787-9061-6e73696f6e2d,rev?*
G04 #@! TF.SameCoordinates,Original*
G04 #@! TF.FileFunction,Soldermask,Top*
G04 #@! TF.FilePolarity,Negative*
%FSLAX46Y46*%
G04 Gerber Fmt 4.6, Leading zero omitted, Abs format (unit mm)*
G04 Created by KiCad (PCBNEW (5.1.10)-1) date 2021-06-20 22:47:18*
%MOMM*%
%LPD*%
G01*
G04 APERTURE LIST*
%ADD10C,2.000000*%
%ADD11O,1.700000X1.700000*%
%ADD12R,1.700000X1.700000*%
%ADD13R,1.700000X3.500000*%
%ADD14O,1.800000X1.800000*%
%ADD15O,1.500000X1.500000*%
%ADD16R,3.500000X1.700000*%
G04 APERTURE END LIST*
D10*
X126000000Y-61500000D03*
X130500000Y-61500000D03*
X126000000Y-68000000D03*
X130500000Y-68000000D03*
D11*
X117560000Y-83000000D03*
X115020000Y-83000000D03*
X112480000Y-83000000D03*
X109940000Y-83000000D03*
X107400000Y-83000000D03*
X104860000Y-83000000D03*
X102320000Y-83000000D03*
X99780000Y-83000000D03*
X97240000Y-83000000D03*
X94700000Y-83000000D03*
X92160000Y-83000000D03*
X89620000Y-83000000D03*
X87080000Y-83000000D03*
X84540000Y-83000000D03*
X82000000Y-83000000D03*
X79460000Y-83000000D03*
X76920000Y-83000000D03*
X74380000Y-83000000D03*
X71840000Y-83000000D03*
D12*
X69300000Y-83000000D03*
X69300000Y-46000000D03*
D11*
X71840000Y-46000000D03*
X74380000Y-46000000D03*
X76920000Y-46000000D03*
X79460000Y-46000000D03*
X82000000Y-46000000D03*
X84540000Y-46000000D03*
X87080000Y-46000000D03*
X89620000Y-46000000D03*
X92160000Y-46000000D03*
X94700000Y-46000000D03*
X97240000Y-46000000D03*
X99780000Y-46000000D03*
X102320000Y-46000000D03*
X104860000Y-46000000D03*
X107400000Y-46000000D03*
X109940000Y-46000000D03*
X112480000Y-46000000D03*
X115020000Y-46000000D03*
X117560000Y-46000000D03*
X69270000Y-73390000D03*
X71810000Y-73390000D03*
D12*
X74350000Y-73390000D03*
D11*
X76890000Y-73390000D03*
X79430000Y-73390000D03*
X81970000Y-73390000D03*
X84510000Y-73390000D03*
D12*
X87050000Y-73390000D03*
D11*
X89590000Y-73390000D03*
X92130000Y-73390000D03*
X94670000Y-73390000D03*
X97210000Y-73390000D03*
D12*
X99750000Y-73390000D03*
D11*
X102290000Y-73390000D03*
X104830000Y-73390000D03*
X107370000Y-73390000D03*
X109910000Y-73390000D03*
D12*
X112450000Y-73390000D03*
D11*
X114990000Y-73390000D03*
X117530000Y-73390000D03*
X117530000Y-55610000D03*
X114990000Y-55610000D03*
D12*
X112450000Y-55610000D03*
D11*
X109910000Y-55610000D03*
X107370000Y-55610000D03*
X104830000Y-55610000D03*
X102290000Y-55610000D03*
D12*
X99750000Y-55610000D03*
D11*
X97210000Y-55610000D03*
X94670000Y-55610000D03*
X92130000Y-55610000D03*
X89590000Y-55610000D03*
D12*
X87050000Y-55610000D03*
D11*
X84510000Y-55610000D03*
X81970000Y-55610000D03*
X79430000Y-55610000D03*
X76890000Y-55610000D03*
D12*
X74350000Y-55610000D03*
D11*
X71810000Y-55610000D03*
X69270000Y-55610000D03*
D13*
X69270000Y-74290000D03*
X71810000Y-74290000D03*
X74350000Y-74290000D03*
X76890000Y-74290000D03*
X79430000Y-74290000D03*
X81970000Y-74290000D03*
X84510000Y-74290000D03*
X87050000Y-74290000D03*
X89590000Y-74290000D03*
X92130000Y-74290000D03*
X94670000Y-74290000D03*
X97210000Y-74290000D03*
X99750000Y-74290000D03*
X102290000Y-74290000D03*
X104830000Y-74290000D03*
X107370000Y-74290000D03*
X109910000Y-74290000D03*
X112450000Y-74290000D03*
X114990000Y-74290000D03*
X117530000Y-74290000D03*
X69270000Y-54710000D03*
X71810000Y-54710000D03*
X74350000Y-54710000D03*
X76890000Y-54710000D03*
X79430000Y-54710000D03*
X81970000Y-54710000D03*
X84510000Y-54710000D03*
X87050000Y-54710000D03*
X89590000Y-54710000D03*
X92130000Y-54710000D03*
X94670000Y-54710000D03*
X97210000Y-54710000D03*
X99750000Y-54710000D03*
X102290000Y-54710000D03*
X104830000Y-54710000D03*
X107370000Y-54710000D03*
X109910000Y-54710000D03*
X112450000Y-54710000D03*
X114990000Y-54710000D03*
X117530000Y-54710000D03*
D14*
X69400000Y-67225000D03*
X69400000Y-61775000D03*
D15*
X72430000Y-66925000D03*
X72430000Y-62075000D03*
D16*
X118200000Y-67040000D03*
D11*
X117300000Y-67040000D03*
D16*
X118200000Y-64500000D03*
D12*
X117300000Y-64500000D03*
D16*
X118200000Y-61960000D03*
D11*
X117300000Y-61960000D03*
M02*
