G04 #@! TF.GenerationSoftware,KiCad,Pcbnew,(5.1.10)-1*
G04 #@! TF.CreationDate,2021-06-20T22:47:18+04:00*
G04 #@! TF.ProjectId,pico-expansion-long-board,7069636f-2d65-4787-9061-6e73696f6e2d,rev?*
G04 #@! TF.SameCoordinates,Original*
G04 #@! TF.FileFunction,Legend,Bot*
G04 #@! TF.FilePolarity,Positive*
%FSLAX46Y46*%
G04 Gerber Fmt 4.6, Leading zero omitted, Abs format (unit mm)*
G04 Created by KiCad (PCBNEW (5.1.10)-1) date 2021-06-20 22:47:18*
%MOMM*%
%LPD*%
G01*
G04 APERTURE LIST*
%ADD10C,0.010000*%
%ADD11C,0.150000*%
G04 APERTURE END LIST*
D10*
G36*
X128900000Y-72450000D02*
G01*
X128650000Y-72450000D01*
X128620000Y-72430000D01*
X128620000Y-72380000D01*
X128670000Y-72370000D01*
X129330000Y-72370000D01*
X129360000Y-72390000D01*
X129360000Y-72440000D01*
X129310000Y-72450000D01*
X129010000Y-72450000D01*
X128960000Y-72470000D01*
X128930000Y-72510000D01*
X128910000Y-72550000D01*
X128910000Y-72610000D01*
X128920000Y-72650000D01*
X128960000Y-72680000D01*
X129020000Y-72690000D01*
X129320000Y-72690000D01*
X129360000Y-72710000D01*
X129360000Y-72760000D01*
X129320000Y-72770000D01*
X129020000Y-72770000D01*
X128960000Y-72770000D01*
X128910000Y-72750000D01*
X128870000Y-72730000D01*
X128850000Y-72690000D01*
X128830000Y-72640000D01*
X128830000Y-72590000D01*
X128840000Y-72540000D01*
X128870000Y-72490000D01*
X128900000Y-72450000D01*
G37*
X128900000Y-72450000D02*
X128650000Y-72450000D01*
X128620000Y-72430000D01*
X128620000Y-72380000D01*
X128670000Y-72370000D01*
X129330000Y-72370000D01*
X129360000Y-72390000D01*
X129360000Y-72440000D01*
X129310000Y-72450000D01*
X129010000Y-72450000D01*
X128960000Y-72470000D01*
X128930000Y-72510000D01*
X128910000Y-72550000D01*
X128910000Y-72610000D01*
X128920000Y-72650000D01*
X128960000Y-72680000D01*
X129020000Y-72690000D01*
X129320000Y-72690000D01*
X129360000Y-72710000D01*
X129360000Y-72760000D01*
X129320000Y-72770000D01*
X129020000Y-72770000D01*
X128960000Y-72770000D01*
X128910000Y-72750000D01*
X128870000Y-72730000D01*
X128850000Y-72690000D01*
X128830000Y-72640000D01*
X128830000Y-72590000D01*
X128840000Y-72540000D01*
X128870000Y-72490000D01*
X128900000Y-72450000D01*
G36*
X128710000Y-73050000D02*
G01*
X128710000Y-73000000D01*
X128720000Y-72960000D01*
X128820000Y-72960000D01*
X128830000Y-72920000D01*
X128830000Y-72870000D01*
X128880000Y-72870000D01*
X128900000Y-72900000D01*
X128900000Y-72950000D01*
X128940000Y-72960000D01*
X129190000Y-72960000D01*
X129250000Y-72960000D01*
X129300000Y-72970000D01*
X129330000Y-73000000D01*
X129350000Y-73040000D01*
X129350000Y-73100000D01*
X129340000Y-73150000D01*
X129290000Y-73150000D01*
X129280000Y-73110000D01*
X129270000Y-73070000D01*
X129220000Y-73050000D01*
X128920000Y-73050000D01*
X128900000Y-73080000D01*
X128900000Y-73130000D01*
X128860000Y-73150000D01*
X128830000Y-73120000D01*
X128830000Y-73070000D01*
X128810000Y-73050000D01*
X128710000Y-73050000D01*
G37*
X128710000Y-73050000D02*
X128710000Y-73000000D01*
X128720000Y-72960000D01*
X128820000Y-72960000D01*
X128830000Y-72920000D01*
X128830000Y-72870000D01*
X128880000Y-72870000D01*
X128900000Y-72900000D01*
X128900000Y-72950000D01*
X128940000Y-72960000D01*
X129190000Y-72960000D01*
X129250000Y-72960000D01*
X129300000Y-72970000D01*
X129330000Y-73000000D01*
X129350000Y-73040000D01*
X129350000Y-73100000D01*
X129340000Y-73150000D01*
X129290000Y-73150000D01*
X129280000Y-73110000D01*
X129270000Y-73070000D01*
X129220000Y-73050000D01*
X128920000Y-73050000D01*
X128900000Y-73080000D01*
X128900000Y-73130000D01*
X128860000Y-73150000D01*
X128830000Y-73120000D01*
X128830000Y-73070000D01*
X128810000Y-73050000D01*
X128710000Y-73050000D01*
G36*
X128710000Y-73480000D02*
G01*
X128710000Y-73430000D01*
X128720000Y-73390000D01*
X128820000Y-73390000D01*
X128830000Y-73350000D01*
X128830000Y-73300000D01*
X128880000Y-73300000D01*
X128900000Y-73330000D01*
X128900000Y-73380000D01*
X128940000Y-73390000D01*
X129190000Y-73390000D01*
X129250000Y-73390000D01*
X129300000Y-73400000D01*
X129330000Y-73430000D01*
X129350000Y-73470000D01*
X129350000Y-73530000D01*
X129340000Y-73580000D01*
X129290000Y-73580000D01*
X129280000Y-73540000D01*
X129270000Y-73500000D01*
X129220000Y-73480000D01*
X128920000Y-73480000D01*
X128900000Y-73510000D01*
X128900000Y-73560000D01*
X128860000Y-73580000D01*
X128830000Y-73560000D01*
X128830000Y-73510000D01*
X128810000Y-73480000D01*
X128710000Y-73480000D01*
G37*
X128710000Y-73480000D02*
X128710000Y-73430000D01*
X128720000Y-73390000D01*
X128820000Y-73390000D01*
X128830000Y-73350000D01*
X128830000Y-73300000D01*
X128880000Y-73300000D01*
X128900000Y-73330000D01*
X128900000Y-73380000D01*
X128940000Y-73390000D01*
X129190000Y-73390000D01*
X129250000Y-73390000D01*
X129300000Y-73400000D01*
X129330000Y-73430000D01*
X129350000Y-73470000D01*
X129350000Y-73530000D01*
X129340000Y-73580000D01*
X129290000Y-73580000D01*
X129280000Y-73540000D01*
X129270000Y-73500000D01*
X129220000Y-73480000D01*
X128920000Y-73480000D01*
X128900000Y-73510000D01*
X128900000Y-73560000D01*
X128860000Y-73580000D01*
X128830000Y-73560000D01*
X128830000Y-73510000D01*
X128810000Y-73480000D01*
X128710000Y-73480000D01*
G36*
X129100000Y-74140000D02*
G01*
X129160000Y-74130000D01*
X129210000Y-74120000D01*
X129240000Y-74100000D01*
X129280000Y-74070000D01*
X129300000Y-74020000D01*
X129300000Y-73970000D01*
X129280000Y-73920000D01*
X129250000Y-73890000D01*
X129200000Y-73880000D01*
X128990000Y-73880000D01*
X128950000Y-73900000D01*
X128920000Y-73940000D01*
X128910000Y-73990000D01*
X128910000Y-74040000D01*
X128940000Y-74080000D01*
X128980000Y-74110000D01*
X129020000Y-74130000D01*
X129080000Y-74140000D01*
X129070000Y-74230000D01*
X129010000Y-74220000D01*
X128960000Y-74210000D01*
X128920000Y-74190000D01*
X128890000Y-74160000D01*
X128860000Y-74120000D01*
X128840000Y-74070000D01*
X128840000Y-74010000D01*
X128850000Y-73960000D01*
X128870000Y-73920000D01*
X128900000Y-73880000D01*
X128860000Y-73870000D01*
X128850000Y-73830000D01*
X128860000Y-73790000D01*
X129520000Y-73790000D01*
X129560000Y-73800000D01*
X129560000Y-73850000D01*
X129530000Y-73880000D01*
X129330000Y-73880000D01*
X129330000Y-73900000D01*
X129350000Y-73940000D01*
X129370000Y-73990000D01*
X129370000Y-74050000D01*
X129360000Y-74100000D01*
X129340000Y-74140000D01*
X129300000Y-74170000D01*
X129260000Y-74200000D01*
X129220000Y-74210000D01*
X129160000Y-74220000D01*
X129110000Y-74230000D01*
X129100000Y-74140000D01*
G37*
X129100000Y-74140000D02*
X129160000Y-74130000D01*
X129210000Y-74120000D01*
X129240000Y-74100000D01*
X129280000Y-74070000D01*
X129300000Y-74020000D01*
X129300000Y-73970000D01*
X129280000Y-73920000D01*
X129250000Y-73890000D01*
X129200000Y-73880000D01*
X128990000Y-73880000D01*
X128950000Y-73900000D01*
X128920000Y-73940000D01*
X128910000Y-73990000D01*
X128910000Y-74040000D01*
X128940000Y-74080000D01*
X128980000Y-74110000D01*
X129020000Y-74130000D01*
X129080000Y-74140000D01*
X129070000Y-74230000D01*
X129010000Y-74220000D01*
X128960000Y-74210000D01*
X128920000Y-74190000D01*
X128890000Y-74160000D01*
X128860000Y-74120000D01*
X128840000Y-74070000D01*
X128840000Y-74010000D01*
X128850000Y-73960000D01*
X128870000Y-73920000D01*
X128900000Y-73880000D01*
X128860000Y-73870000D01*
X128850000Y-73830000D01*
X128860000Y-73790000D01*
X129520000Y-73790000D01*
X129560000Y-73800000D01*
X129560000Y-73850000D01*
X129530000Y-73880000D01*
X129330000Y-73880000D01*
X129330000Y-73900000D01*
X129350000Y-73940000D01*
X129370000Y-73990000D01*
X129370000Y-74050000D01*
X129360000Y-74100000D01*
X129340000Y-74140000D01*
X129300000Y-74170000D01*
X129260000Y-74200000D01*
X129220000Y-74210000D01*
X129160000Y-74220000D01*
X129110000Y-74230000D01*
X129100000Y-74140000D01*
G36*
X129210000Y-74680000D02*
G01*
X129250000Y-74660000D01*
X129280000Y-74620000D01*
X129280000Y-74570000D01*
X129280000Y-74520000D01*
X129250000Y-74480000D01*
X129210000Y-74450000D01*
X129190000Y-74410000D01*
X129190000Y-74360000D01*
X129230000Y-74370000D01*
X129280000Y-74390000D01*
X129310000Y-74430000D01*
X129340000Y-74470000D01*
X129350000Y-74520000D01*
X129360000Y-74570000D01*
X129350000Y-74620000D01*
X129340000Y-74670000D01*
X129310000Y-74710000D01*
X129280000Y-74750000D01*
X129230000Y-74770000D01*
X129180000Y-74770000D01*
X129140000Y-74750000D01*
X129100000Y-74720000D01*
X129080000Y-74680000D01*
X129060000Y-74630000D01*
X129030000Y-74520000D01*
X129010000Y-74480000D01*
X128960000Y-74470000D01*
X128920000Y-74490000D01*
X128900000Y-74520000D01*
X128890000Y-74580000D01*
X128910000Y-74630000D01*
X128940000Y-74660000D01*
X128980000Y-74690000D01*
X128980000Y-74740000D01*
X128960000Y-74760000D01*
X128910000Y-74750000D01*
X128870000Y-74720000D01*
X128850000Y-74680000D01*
X128830000Y-74630000D01*
X128820000Y-74580000D01*
X128830000Y-74520000D01*
X128840000Y-74480000D01*
X128860000Y-74430000D01*
X128900000Y-74400000D01*
X128940000Y-74380000D01*
X128990000Y-74380000D01*
X129040000Y-74390000D01*
X129070000Y-74430000D01*
X129090000Y-74470000D01*
X129110000Y-74520000D01*
X129120000Y-74580000D01*
X129140000Y-74630000D01*
X129160000Y-74660000D01*
X129210000Y-74680000D01*
G37*
X129210000Y-74680000D02*
X129250000Y-74660000D01*
X129280000Y-74620000D01*
X129280000Y-74570000D01*
X129280000Y-74520000D01*
X129250000Y-74480000D01*
X129210000Y-74450000D01*
X129190000Y-74410000D01*
X129190000Y-74360000D01*
X129230000Y-74370000D01*
X129280000Y-74390000D01*
X129310000Y-74430000D01*
X129340000Y-74470000D01*
X129350000Y-74520000D01*
X129360000Y-74570000D01*
X129350000Y-74620000D01*
X129340000Y-74670000D01*
X129310000Y-74710000D01*
X129280000Y-74750000D01*
X129230000Y-74770000D01*
X129180000Y-74770000D01*
X129140000Y-74750000D01*
X129100000Y-74720000D01*
X129080000Y-74680000D01*
X129060000Y-74630000D01*
X129030000Y-74520000D01*
X129010000Y-74480000D01*
X128960000Y-74470000D01*
X128920000Y-74490000D01*
X128900000Y-74520000D01*
X128890000Y-74580000D01*
X128910000Y-74630000D01*
X128940000Y-74660000D01*
X128980000Y-74690000D01*
X128980000Y-74740000D01*
X128960000Y-74760000D01*
X128910000Y-74750000D01*
X128870000Y-74720000D01*
X128850000Y-74680000D01*
X128830000Y-74630000D01*
X128820000Y-74580000D01*
X128830000Y-74520000D01*
X128840000Y-74480000D01*
X128860000Y-74430000D01*
X128900000Y-74400000D01*
X128940000Y-74380000D01*
X128990000Y-74380000D01*
X129040000Y-74390000D01*
X129070000Y-74430000D01*
X129090000Y-74470000D01*
X129110000Y-74520000D01*
X129120000Y-74580000D01*
X129140000Y-74630000D01*
X129160000Y-74660000D01*
X129210000Y-74680000D01*
G36*
X129350000Y-74960000D02*
G01*
X129350000Y-75010000D01*
X129320000Y-75050000D01*
X129280000Y-75040000D01*
X129250000Y-75010000D01*
X129260000Y-74960000D01*
X129300000Y-74940000D01*
X129350000Y-74960000D01*
G37*
X129350000Y-74960000D02*
X129350000Y-75010000D01*
X129320000Y-75050000D01*
X129280000Y-75040000D01*
X129250000Y-75010000D01*
X129260000Y-74960000D01*
X129300000Y-74940000D01*
X129350000Y-74960000D01*
G36*
X128880000Y-74940000D02*
G01*
X128930000Y-74960000D01*
X128930000Y-75010000D01*
X128900000Y-75050000D01*
X128850000Y-75040000D01*
X128830000Y-75010000D01*
X128840000Y-74960000D01*
X128880000Y-74940000D01*
G37*
X128880000Y-74940000D02*
X128930000Y-74960000D01*
X128930000Y-75010000D01*
X128900000Y-75050000D01*
X128850000Y-75040000D01*
X128830000Y-75010000D01*
X128840000Y-74960000D01*
X128880000Y-74940000D01*
G36*
X129360000Y-75220000D02*
G01*
X128600000Y-75510000D01*
X128600000Y-75460000D01*
X128620000Y-75430000D01*
X129330000Y-75160000D01*
X129360000Y-75170000D01*
X129360000Y-75220000D01*
G37*
X129360000Y-75220000D02*
X128600000Y-75510000D01*
X128600000Y-75460000D01*
X128620000Y-75430000D01*
X129330000Y-75160000D01*
X129360000Y-75170000D01*
X129360000Y-75220000D01*
G36*
X129360000Y-75740000D02*
G01*
X128600000Y-76030000D01*
X128600000Y-75980000D01*
X128620000Y-75950000D01*
X129330000Y-75670000D01*
X129360000Y-75690000D01*
X129360000Y-75740000D01*
G37*
X129360000Y-75740000D02*
X128600000Y-76030000D01*
X128600000Y-75980000D01*
X128620000Y-75950000D01*
X129330000Y-75670000D01*
X129360000Y-75690000D01*
X129360000Y-75740000D01*
G36*
X128710000Y-76360000D02*
G01*
X128710000Y-76310000D01*
X128720000Y-76270000D01*
X128820000Y-76270000D01*
X128830000Y-76230000D01*
X128830000Y-76180000D01*
X128880000Y-76180000D01*
X128900000Y-76210000D01*
X128900000Y-76260000D01*
X128940000Y-76270000D01*
X129190000Y-76270000D01*
X129250000Y-76270000D01*
X129300000Y-76280000D01*
X129330000Y-76310000D01*
X129350000Y-76350000D01*
X129350000Y-76410000D01*
X129340000Y-76460000D01*
X129290000Y-76460000D01*
X129280000Y-76420000D01*
X129270000Y-76380000D01*
X129220000Y-76360000D01*
X128920000Y-76360000D01*
X128900000Y-76390000D01*
X128900000Y-76440000D01*
X128860000Y-76460000D01*
X128830000Y-76440000D01*
X128830000Y-76390000D01*
X128810000Y-76360000D01*
X128710000Y-76360000D01*
G37*
X128710000Y-76360000D02*
X128710000Y-76310000D01*
X128720000Y-76270000D01*
X128820000Y-76270000D01*
X128830000Y-76230000D01*
X128830000Y-76180000D01*
X128880000Y-76180000D01*
X128900000Y-76210000D01*
X128900000Y-76260000D01*
X128940000Y-76270000D01*
X129190000Y-76270000D01*
X129250000Y-76270000D01*
X129300000Y-76280000D01*
X129330000Y-76310000D01*
X129350000Y-76350000D01*
X129350000Y-76410000D01*
X129340000Y-76460000D01*
X129290000Y-76460000D01*
X129280000Y-76420000D01*
X129270000Y-76380000D01*
X129220000Y-76360000D01*
X128920000Y-76360000D01*
X128900000Y-76390000D01*
X128900000Y-76440000D01*
X128860000Y-76460000D01*
X128830000Y-76440000D01*
X128830000Y-76390000D01*
X128810000Y-76360000D01*
X128710000Y-76360000D01*
G36*
X129350000Y-76910000D02*
G01*
X129350000Y-76960000D01*
X129330000Y-77010000D01*
X129300000Y-77040000D01*
X129260000Y-77080000D01*
X129220000Y-77040000D01*
X129240000Y-77000000D01*
X129270000Y-76960000D01*
X129280000Y-76910000D01*
X129280000Y-76860000D01*
X129270000Y-76810000D01*
X129230000Y-76780000D01*
X129190000Y-76750000D01*
X129140000Y-76740000D01*
X129110000Y-76760000D01*
X129040000Y-76750000D01*
X129000000Y-76750000D01*
X128950000Y-76770000D01*
X128920000Y-76800000D01*
X128900000Y-76850000D01*
X128890000Y-76870000D01*
X128900000Y-76930000D01*
X128930000Y-76960000D01*
X128970000Y-76990000D01*
X129020000Y-77000000D01*
X129040000Y-76960000D01*
X129040000Y-76760000D01*
X129110000Y-76760000D01*
X129110000Y-77070000D01*
X129080000Y-77090000D01*
X129020000Y-77080000D01*
X128970000Y-77070000D01*
X128930000Y-77060000D01*
X128890000Y-77030000D01*
X128860000Y-77000000D01*
X128830000Y-76950000D01*
X128820000Y-76900000D01*
X128820000Y-76850000D01*
X128840000Y-76800000D01*
X128860000Y-76750000D01*
X128890000Y-76720000D01*
X128930000Y-76690000D01*
X128980000Y-76670000D01*
X129030000Y-76650000D01*
X129080000Y-76650000D01*
X129140000Y-76650000D01*
X129190000Y-76660000D01*
X129230000Y-76680000D01*
X129270000Y-76710000D01*
X129310000Y-76740000D01*
X129340000Y-76780000D01*
X129350000Y-76830000D01*
X129360000Y-76880000D01*
X129350000Y-76910000D01*
G37*
X129350000Y-76910000D02*
X129350000Y-76960000D01*
X129330000Y-77010000D01*
X129300000Y-77040000D01*
X129260000Y-77080000D01*
X129220000Y-77040000D01*
X129240000Y-77000000D01*
X129270000Y-76960000D01*
X129280000Y-76910000D01*
X129280000Y-76860000D01*
X129270000Y-76810000D01*
X129230000Y-76780000D01*
X129190000Y-76750000D01*
X129140000Y-76740000D01*
X129110000Y-76760000D01*
X129040000Y-76750000D01*
X129000000Y-76750000D01*
X128950000Y-76770000D01*
X128920000Y-76800000D01*
X128900000Y-76850000D01*
X128890000Y-76870000D01*
X128900000Y-76930000D01*
X128930000Y-76960000D01*
X128970000Y-76990000D01*
X129020000Y-77000000D01*
X129040000Y-76960000D01*
X129040000Y-76760000D01*
X129110000Y-76760000D01*
X129110000Y-77070000D01*
X129080000Y-77090000D01*
X129020000Y-77080000D01*
X128970000Y-77070000D01*
X128930000Y-77060000D01*
X128890000Y-77030000D01*
X128860000Y-77000000D01*
X128830000Y-76950000D01*
X128820000Y-76900000D01*
X128820000Y-76850000D01*
X128840000Y-76800000D01*
X128860000Y-76750000D01*
X128890000Y-76720000D01*
X128930000Y-76690000D01*
X128980000Y-76670000D01*
X129030000Y-76650000D01*
X129080000Y-76650000D01*
X129140000Y-76650000D01*
X129190000Y-76660000D01*
X129230000Y-76680000D01*
X129270000Y-76710000D01*
X129310000Y-76740000D01*
X129340000Y-76780000D01*
X129350000Y-76830000D01*
X129360000Y-76880000D01*
X129350000Y-76910000D01*
G36*
X129280000Y-77470000D02*
G01*
X129280000Y-77410000D01*
X129250000Y-77370000D01*
X129210000Y-77350000D01*
X129170000Y-77330000D01*
X129110000Y-77330000D01*
X129050000Y-77330000D01*
X129000000Y-77340000D01*
X128960000Y-77350000D01*
X128920000Y-77390000D01*
X128900000Y-77430000D01*
X128890000Y-77480000D01*
X128910000Y-77530000D01*
X128940000Y-77570000D01*
X128990000Y-77590000D01*
X129010000Y-77630000D01*
X129000000Y-77670000D01*
X128950000Y-77660000D01*
X128900000Y-77640000D01*
X128870000Y-77600000D01*
X128840000Y-77560000D01*
X128830000Y-77510000D01*
X128820000Y-77460000D01*
X128830000Y-77400000D01*
X128850000Y-77360000D01*
X128870000Y-77320000D01*
X128910000Y-77280000D01*
X128960000Y-77260000D01*
X129010000Y-77250000D01*
X129060000Y-77240000D01*
X129110000Y-77240000D01*
X129170000Y-77250000D01*
X129220000Y-77260000D01*
X129260000Y-77280000D01*
X129300000Y-77310000D01*
X129330000Y-77350000D01*
X129350000Y-77400000D01*
X129360000Y-77450000D01*
X129350000Y-77500000D01*
X129340000Y-77550000D01*
X129310000Y-77600000D01*
X129280000Y-77630000D01*
X129230000Y-77660000D01*
X129190000Y-77670000D01*
X129180000Y-77620000D01*
X129200000Y-77590000D01*
X129240000Y-77560000D01*
X129270000Y-77520000D01*
X129280000Y-77470000D01*
G37*
X129280000Y-77470000D02*
X129280000Y-77410000D01*
X129250000Y-77370000D01*
X129210000Y-77350000D01*
X129170000Y-77330000D01*
X129110000Y-77330000D01*
X129050000Y-77330000D01*
X129000000Y-77340000D01*
X128960000Y-77350000D01*
X128920000Y-77390000D01*
X128900000Y-77430000D01*
X128890000Y-77480000D01*
X128910000Y-77530000D01*
X128940000Y-77570000D01*
X128990000Y-77590000D01*
X129010000Y-77630000D01*
X129000000Y-77670000D01*
X128950000Y-77660000D01*
X128900000Y-77640000D01*
X128870000Y-77600000D01*
X128840000Y-77560000D01*
X128830000Y-77510000D01*
X128820000Y-77460000D01*
X128830000Y-77400000D01*
X128850000Y-77360000D01*
X128870000Y-77320000D01*
X128910000Y-77280000D01*
X128960000Y-77260000D01*
X129010000Y-77250000D01*
X129060000Y-77240000D01*
X129110000Y-77240000D01*
X129170000Y-77250000D01*
X129220000Y-77260000D01*
X129260000Y-77280000D01*
X129300000Y-77310000D01*
X129330000Y-77350000D01*
X129350000Y-77400000D01*
X129360000Y-77450000D01*
X129350000Y-77500000D01*
X129340000Y-77550000D01*
X129310000Y-77600000D01*
X129280000Y-77630000D01*
X129230000Y-77660000D01*
X129190000Y-77670000D01*
X129180000Y-77620000D01*
X129200000Y-77590000D01*
X129240000Y-77560000D01*
X129270000Y-77520000D01*
X129280000Y-77470000D01*
G36*
X129120000Y-77990000D02*
G01*
X129320000Y-78140000D01*
X129360000Y-78170000D01*
X129360000Y-78220000D01*
X129350000Y-78270000D01*
X129070000Y-78060000D01*
X129030000Y-78070000D01*
X128850000Y-78250000D01*
X128840000Y-78200000D01*
X128840000Y-78150000D01*
X128870000Y-78110000D01*
X129020000Y-77980000D01*
X129060000Y-77940000D01*
X129030000Y-77940000D01*
X128670000Y-77940000D01*
X128620000Y-77930000D01*
X128620000Y-77880000D01*
X128640000Y-77840000D01*
X129350000Y-77840000D01*
X129360000Y-77890000D01*
X129350000Y-77940000D01*
X129200000Y-77940000D01*
X129150000Y-77950000D01*
X129120000Y-77990000D01*
G37*
X129120000Y-77990000D02*
X129320000Y-78140000D01*
X129360000Y-78170000D01*
X129360000Y-78220000D01*
X129350000Y-78270000D01*
X129070000Y-78060000D01*
X129030000Y-78070000D01*
X128850000Y-78250000D01*
X128840000Y-78200000D01*
X128840000Y-78150000D01*
X128870000Y-78110000D01*
X129020000Y-77980000D01*
X129060000Y-77940000D01*
X129030000Y-77940000D01*
X128670000Y-77940000D01*
X128620000Y-77930000D01*
X128620000Y-77880000D01*
X128640000Y-77840000D01*
X129350000Y-77840000D01*
X129360000Y-77890000D01*
X129350000Y-77940000D01*
X129200000Y-77940000D01*
X129150000Y-77950000D01*
X129120000Y-77990000D01*
G36*
X128840000Y-78510000D02*
G01*
X128840000Y-78460000D01*
X128860000Y-78420000D01*
X129310000Y-78420000D01*
X129360000Y-78430000D01*
X129360000Y-78480000D01*
X129330000Y-78510000D01*
X129030000Y-78510000D01*
X128980000Y-78510000D01*
X128940000Y-78540000D01*
X128910000Y-78590000D01*
X128900000Y-78630000D01*
X128910000Y-78690000D01*
X128940000Y-78720000D01*
X128980000Y-78740000D01*
X129040000Y-78740000D01*
X129340000Y-78740000D01*
X129360000Y-78780000D01*
X129350000Y-78830000D01*
X129000000Y-78830000D01*
X128940000Y-78820000D01*
X128900000Y-78800000D01*
X128860000Y-78770000D01*
X128840000Y-78730000D01*
X128830000Y-78680000D01*
X128830000Y-78630000D01*
X128850000Y-78580000D01*
X128890000Y-78510000D01*
X128840000Y-78510000D01*
G37*
X128840000Y-78510000D02*
X128840000Y-78460000D01*
X128860000Y-78420000D01*
X129310000Y-78420000D01*
X129360000Y-78430000D01*
X129360000Y-78480000D01*
X129330000Y-78510000D01*
X129030000Y-78510000D01*
X128980000Y-78510000D01*
X128940000Y-78540000D01*
X128910000Y-78590000D01*
X128900000Y-78630000D01*
X128910000Y-78690000D01*
X128940000Y-78720000D01*
X128980000Y-78740000D01*
X129040000Y-78740000D01*
X129340000Y-78740000D01*
X129360000Y-78780000D01*
X129350000Y-78830000D01*
X129000000Y-78830000D01*
X128940000Y-78820000D01*
X128900000Y-78800000D01*
X128860000Y-78770000D01*
X128840000Y-78730000D01*
X128830000Y-78680000D01*
X128830000Y-78630000D01*
X128850000Y-78580000D01*
X128890000Y-78510000D01*
X128840000Y-78510000D01*
G36*
X129090000Y-79050000D02*
G01*
X129030000Y-79050000D01*
X128980000Y-79070000D01*
X128950000Y-79090000D01*
X128910000Y-79120000D01*
X128900000Y-79170000D01*
X128900000Y-79220000D01*
X128910000Y-79270000D01*
X128950000Y-79310000D01*
X128990000Y-79330000D01*
X129040000Y-79340000D01*
X129100000Y-79340000D01*
X129150000Y-79340000D01*
X129200000Y-79320000D01*
X129240000Y-79300000D01*
X129270000Y-79260000D01*
X129280000Y-79210000D01*
X129280000Y-79160000D01*
X129260000Y-79110000D01*
X129220000Y-79080000D01*
X129180000Y-79060000D01*
X129130000Y-79050000D01*
X129100000Y-78960000D01*
X129160000Y-78970000D01*
X129210000Y-78980000D01*
X129250000Y-79000000D01*
X129290000Y-79030000D01*
X129320000Y-79070000D01*
X129340000Y-79110000D01*
X129350000Y-79160000D01*
X129350000Y-79220000D01*
X129350000Y-79270000D01*
X129330000Y-79310000D01*
X129300000Y-79350000D01*
X129260000Y-79390000D01*
X129210000Y-79410000D01*
X129160000Y-79420000D01*
X129110000Y-79430000D01*
X129060000Y-79430000D01*
X129000000Y-79420000D01*
X128960000Y-79400000D01*
X128910000Y-79380000D01*
X128880000Y-79350000D01*
X128850000Y-79310000D01*
X128830000Y-79260000D01*
X128820000Y-79210000D01*
X128820000Y-79160000D01*
X128840000Y-79110000D01*
X128860000Y-79060000D01*
X128890000Y-79030000D01*
X128930000Y-79000000D01*
X128980000Y-78980000D01*
X129030000Y-78970000D01*
X129080000Y-78960000D01*
X129090000Y-79050000D01*
G37*
X129090000Y-79050000D02*
X129030000Y-79050000D01*
X128980000Y-79070000D01*
X128950000Y-79090000D01*
X128910000Y-79120000D01*
X128900000Y-79170000D01*
X128900000Y-79220000D01*
X128910000Y-79270000D01*
X128950000Y-79310000D01*
X128990000Y-79330000D01*
X129040000Y-79340000D01*
X129100000Y-79340000D01*
X129150000Y-79340000D01*
X129200000Y-79320000D01*
X129240000Y-79300000D01*
X129270000Y-79260000D01*
X129280000Y-79210000D01*
X129280000Y-79160000D01*
X129260000Y-79110000D01*
X129220000Y-79080000D01*
X129180000Y-79060000D01*
X129130000Y-79050000D01*
X129100000Y-78960000D01*
X129160000Y-78970000D01*
X129210000Y-78980000D01*
X129250000Y-79000000D01*
X129290000Y-79030000D01*
X129320000Y-79070000D01*
X129340000Y-79110000D01*
X129350000Y-79160000D01*
X129350000Y-79220000D01*
X129350000Y-79270000D01*
X129330000Y-79310000D01*
X129300000Y-79350000D01*
X129260000Y-79390000D01*
X129210000Y-79410000D01*
X129160000Y-79420000D01*
X129110000Y-79430000D01*
X129060000Y-79430000D01*
X129000000Y-79420000D01*
X128960000Y-79400000D01*
X128910000Y-79380000D01*
X128880000Y-79350000D01*
X128850000Y-79310000D01*
X128830000Y-79260000D01*
X128820000Y-79210000D01*
X128820000Y-79160000D01*
X128840000Y-79110000D01*
X128860000Y-79060000D01*
X128890000Y-79030000D01*
X128930000Y-79000000D01*
X128980000Y-78980000D01*
X129030000Y-78970000D01*
X129080000Y-78960000D01*
X129090000Y-79050000D01*
G36*
X129360000Y-79670000D02*
G01*
X128640000Y-79670000D01*
X128620000Y-79640000D01*
X128620000Y-79590000D01*
X129340000Y-79590000D01*
X129360000Y-79620000D01*
X129360000Y-79670000D01*
G37*
X129360000Y-79670000D02*
X128640000Y-79670000D01*
X128620000Y-79640000D01*
X128620000Y-79590000D01*
X129340000Y-79590000D01*
X129360000Y-79620000D01*
X129360000Y-79670000D01*
G36*
X129090000Y-79910000D02*
G01*
X129030000Y-79910000D01*
X128980000Y-79920000D01*
X128950000Y-79950000D01*
X128910000Y-79980000D01*
X128900000Y-80030000D01*
X128900000Y-80080000D01*
X128910000Y-80130000D01*
X128950000Y-80160000D01*
X128990000Y-80190000D01*
X129040000Y-80200000D01*
X129100000Y-80200000D01*
X129150000Y-80190000D01*
X129200000Y-80180000D01*
X129240000Y-80150000D01*
X129270000Y-80120000D01*
X129280000Y-80070000D01*
X129280000Y-80020000D01*
X129260000Y-79970000D01*
X129220000Y-79940000D01*
X129180000Y-79920000D01*
X129130000Y-79910000D01*
X129100000Y-79820000D01*
X129160000Y-79830000D01*
X129210000Y-79840000D01*
X129250000Y-79860000D01*
X129290000Y-79890000D01*
X129320000Y-79930000D01*
X129340000Y-79970000D01*
X129350000Y-80020000D01*
X129350000Y-80080000D01*
X129350000Y-80120000D01*
X129330000Y-80170000D01*
X129300000Y-80210000D01*
X129260000Y-80240000D01*
X129210000Y-80270000D01*
X129160000Y-80280000D01*
X129110000Y-80290000D01*
X129060000Y-80290000D01*
X129000000Y-80280000D01*
X128960000Y-80260000D01*
X128910000Y-80240000D01*
X128880000Y-80210000D01*
X128850000Y-80170000D01*
X128830000Y-80120000D01*
X128820000Y-80070000D01*
X128820000Y-80020000D01*
X128840000Y-79970000D01*
X128860000Y-79920000D01*
X128890000Y-79880000D01*
X128930000Y-79860000D01*
X128980000Y-79840000D01*
X129030000Y-79820000D01*
X129080000Y-79820000D01*
X129090000Y-79910000D01*
G37*
X129090000Y-79910000D02*
X129030000Y-79910000D01*
X128980000Y-79920000D01*
X128950000Y-79950000D01*
X128910000Y-79980000D01*
X128900000Y-80030000D01*
X128900000Y-80080000D01*
X128910000Y-80130000D01*
X128950000Y-80160000D01*
X128990000Y-80190000D01*
X129040000Y-80200000D01*
X129100000Y-80200000D01*
X129150000Y-80190000D01*
X129200000Y-80180000D01*
X129240000Y-80150000D01*
X129270000Y-80120000D01*
X129280000Y-80070000D01*
X129280000Y-80020000D01*
X129260000Y-79970000D01*
X129220000Y-79940000D01*
X129180000Y-79920000D01*
X129130000Y-79910000D01*
X129100000Y-79820000D01*
X129160000Y-79830000D01*
X129210000Y-79840000D01*
X129250000Y-79860000D01*
X129290000Y-79890000D01*
X129320000Y-79930000D01*
X129340000Y-79970000D01*
X129350000Y-80020000D01*
X129350000Y-80080000D01*
X129350000Y-80120000D01*
X129330000Y-80170000D01*
X129300000Y-80210000D01*
X129260000Y-80240000D01*
X129210000Y-80270000D01*
X129160000Y-80280000D01*
X129110000Y-80290000D01*
X129060000Y-80290000D01*
X129000000Y-80280000D01*
X128960000Y-80260000D01*
X128910000Y-80240000D01*
X128880000Y-80210000D01*
X128850000Y-80170000D01*
X128830000Y-80120000D01*
X128820000Y-80070000D01*
X128820000Y-80020000D01*
X128840000Y-79970000D01*
X128860000Y-79920000D01*
X128890000Y-79880000D01*
X128930000Y-79860000D01*
X128980000Y-79840000D01*
X129030000Y-79820000D01*
X129080000Y-79820000D01*
X129090000Y-79910000D01*
G36*
X129080000Y-80500000D02*
G01*
X129020000Y-80510000D01*
X128970000Y-80520000D01*
X128930000Y-80540000D01*
X128900000Y-80570000D01*
X128880000Y-80620000D01*
X128880000Y-80670000D01*
X128900000Y-80720000D01*
X128940000Y-80750000D01*
X128990000Y-80760000D01*
X129190000Y-80760000D01*
X129230000Y-80730000D01*
X129260000Y-80690000D01*
X129260000Y-80640000D01*
X129250000Y-80590000D01*
X129220000Y-80550000D01*
X129190000Y-80520000D01*
X129140000Y-80510000D01*
X129080000Y-80500000D01*
X129120000Y-80420000D01*
X129170000Y-80430000D01*
X129220000Y-80440000D01*
X129260000Y-80460000D01*
X129290000Y-80500000D01*
X129320000Y-80540000D01*
X129340000Y-80580000D01*
X129340000Y-80640000D01*
X129330000Y-80690000D01*
X129310000Y-80730000D01*
X129290000Y-80760000D01*
X129340000Y-80760000D01*
X129390000Y-80750000D01*
X129430000Y-80720000D01*
X129450000Y-80680000D01*
X129460000Y-80630000D01*
X129460000Y-80580000D01*
X129440000Y-80530000D01*
X129400000Y-80500000D01*
X129420000Y-80460000D01*
X129460000Y-80450000D01*
X129490000Y-80490000D01*
X129510000Y-80530000D01*
X129530000Y-80580000D01*
X129530000Y-80630000D01*
X129530000Y-80690000D01*
X129510000Y-80730000D01*
X129490000Y-80780000D01*
X129450000Y-80810000D01*
X129410000Y-80830000D01*
X129360000Y-80850000D01*
X129310000Y-80850000D01*
X128850000Y-80850000D01*
X128820000Y-80840000D01*
X128820000Y-80790000D01*
X128850000Y-80770000D01*
X128850000Y-80750000D01*
X128820000Y-80710000D01*
X128810000Y-80660000D01*
X128810000Y-80600000D01*
X128820000Y-80550000D01*
X128840000Y-80510000D01*
X128880000Y-80470000D01*
X128910000Y-80450000D01*
X128960000Y-80430000D01*
X129010000Y-80420000D01*
X129070000Y-80410000D01*
X129080000Y-80500000D01*
G37*
X129080000Y-80500000D02*
X129020000Y-80510000D01*
X128970000Y-80520000D01*
X128930000Y-80540000D01*
X128900000Y-80570000D01*
X128880000Y-80620000D01*
X128880000Y-80670000D01*
X128900000Y-80720000D01*
X128940000Y-80750000D01*
X128990000Y-80760000D01*
X129190000Y-80760000D01*
X129230000Y-80730000D01*
X129260000Y-80690000D01*
X129260000Y-80640000D01*
X129250000Y-80590000D01*
X129220000Y-80550000D01*
X129190000Y-80520000D01*
X129140000Y-80510000D01*
X129080000Y-80500000D01*
X129120000Y-80420000D01*
X129170000Y-80430000D01*
X129220000Y-80440000D01*
X129260000Y-80460000D01*
X129290000Y-80500000D01*
X129320000Y-80540000D01*
X129340000Y-80580000D01*
X129340000Y-80640000D01*
X129330000Y-80690000D01*
X129310000Y-80730000D01*
X129290000Y-80760000D01*
X129340000Y-80760000D01*
X129390000Y-80750000D01*
X129430000Y-80720000D01*
X129450000Y-80680000D01*
X129460000Y-80630000D01*
X129460000Y-80580000D01*
X129440000Y-80530000D01*
X129400000Y-80500000D01*
X129420000Y-80460000D01*
X129460000Y-80450000D01*
X129490000Y-80490000D01*
X129510000Y-80530000D01*
X129530000Y-80580000D01*
X129530000Y-80630000D01*
X129530000Y-80690000D01*
X129510000Y-80730000D01*
X129490000Y-80780000D01*
X129450000Y-80810000D01*
X129410000Y-80830000D01*
X129360000Y-80850000D01*
X129310000Y-80850000D01*
X128850000Y-80850000D01*
X128820000Y-80840000D01*
X128820000Y-80790000D01*
X128850000Y-80770000D01*
X128850000Y-80750000D01*
X128820000Y-80710000D01*
X128810000Y-80660000D01*
X128810000Y-80600000D01*
X128820000Y-80550000D01*
X128840000Y-80510000D01*
X128880000Y-80470000D01*
X128910000Y-80450000D01*
X128960000Y-80430000D01*
X129010000Y-80420000D01*
X129070000Y-80410000D01*
X129080000Y-80500000D01*
G36*
X129080000Y-81090000D02*
G01*
X129020000Y-81090000D01*
X128970000Y-81110000D01*
X128930000Y-81130000D01*
X128900000Y-81160000D01*
X128880000Y-81210000D01*
X128880000Y-81260000D01*
X128900000Y-81310000D01*
X128940000Y-81340000D01*
X128990000Y-81350000D01*
X129190000Y-81350000D01*
X129230000Y-81320000D01*
X129260000Y-81280000D01*
X129260000Y-81230000D01*
X129250000Y-81180000D01*
X129220000Y-81140000D01*
X129190000Y-81110000D01*
X129140000Y-81100000D01*
X129080000Y-81090000D01*
X129120000Y-81010000D01*
X129170000Y-81020000D01*
X129220000Y-81030000D01*
X129260000Y-81050000D01*
X129290000Y-81080000D01*
X129320000Y-81130000D01*
X129340000Y-81170000D01*
X129340000Y-81230000D01*
X129330000Y-81280000D01*
X129310000Y-81320000D01*
X129290000Y-81350000D01*
X129340000Y-81350000D01*
X129390000Y-81340000D01*
X129430000Y-81310000D01*
X129450000Y-81270000D01*
X129460000Y-81220000D01*
X129460000Y-81170000D01*
X129440000Y-81120000D01*
X129400000Y-81080000D01*
X129420000Y-81050000D01*
X129460000Y-81040000D01*
X129490000Y-81080000D01*
X129510000Y-81120000D01*
X129530000Y-81170000D01*
X129530000Y-81220000D01*
X129530000Y-81280000D01*
X129510000Y-81320000D01*
X129490000Y-81370000D01*
X129450000Y-81400000D01*
X129410000Y-81420000D01*
X129360000Y-81440000D01*
X129310000Y-81440000D01*
X128850000Y-81440000D01*
X128820000Y-81430000D01*
X128820000Y-81370000D01*
X128850000Y-81360000D01*
X128850000Y-81330000D01*
X128820000Y-81290000D01*
X128810000Y-81250000D01*
X128810000Y-81190000D01*
X128820000Y-81140000D01*
X128840000Y-81100000D01*
X128880000Y-81060000D01*
X128910000Y-81040000D01*
X128960000Y-81020000D01*
X129010000Y-81010000D01*
X129070000Y-81000000D01*
X129080000Y-81090000D01*
G37*
X129080000Y-81090000D02*
X129020000Y-81090000D01*
X128970000Y-81110000D01*
X128930000Y-81130000D01*
X128900000Y-81160000D01*
X128880000Y-81210000D01*
X128880000Y-81260000D01*
X128900000Y-81310000D01*
X128940000Y-81340000D01*
X128990000Y-81350000D01*
X129190000Y-81350000D01*
X129230000Y-81320000D01*
X129260000Y-81280000D01*
X129260000Y-81230000D01*
X129250000Y-81180000D01*
X129220000Y-81140000D01*
X129190000Y-81110000D01*
X129140000Y-81100000D01*
X129080000Y-81090000D01*
X129120000Y-81010000D01*
X129170000Y-81020000D01*
X129220000Y-81030000D01*
X129260000Y-81050000D01*
X129290000Y-81080000D01*
X129320000Y-81130000D01*
X129340000Y-81170000D01*
X129340000Y-81230000D01*
X129330000Y-81280000D01*
X129310000Y-81320000D01*
X129290000Y-81350000D01*
X129340000Y-81350000D01*
X129390000Y-81340000D01*
X129430000Y-81310000D01*
X129450000Y-81270000D01*
X129460000Y-81220000D01*
X129460000Y-81170000D01*
X129440000Y-81120000D01*
X129400000Y-81080000D01*
X129420000Y-81050000D01*
X129460000Y-81040000D01*
X129490000Y-81080000D01*
X129510000Y-81120000D01*
X129530000Y-81170000D01*
X129530000Y-81220000D01*
X129530000Y-81280000D01*
X129510000Y-81320000D01*
X129490000Y-81370000D01*
X129450000Y-81400000D01*
X129410000Y-81420000D01*
X129360000Y-81440000D01*
X129310000Y-81440000D01*
X128850000Y-81440000D01*
X128820000Y-81430000D01*
X128820000Y-81370000D01*
X128850000Y-81360000D01*
X128850000Y-81330000D01*
X128820000Y-81290000D01*
X128810000Y-81250000D01*
X128810000Y-81190000D01*
X128820000Y-81140000D01*
X128840000Y-81100000D01*
X128880000Y-81060000D01*
X128910000Y-81040000D01*
X128960000Y-81020000D01*
X129010000Y-81010000D01*
X129070000Y-81000000D01*
X129080000Y-81090000D01*
G36*
X129300000Y-81640000D02*
G01*
X129350000Y-81660000D01*
X129350000Y-81710000D01*
X129320000Y-81750000D01*
X129280000Y-81740000D01*
X129250000Y-81710000D01*
X129260000Y-81660000D01*
X129300000Y-81640000D01*
G37*
X129300000Y-81640000D02*
X129350000Y-81660000D01*
X129350000Y-81710000D01*
X129320000Y-81750000D01*
X129280000Y-81740000D01*
X129250000Y-81710000D01*
X129260000Y-81660000D01*
X129300000Y-81640000D01*
G36*
X129230000Y-82360000D02*
G01*
X128850000Y-82240000D01*
X128840000Y-82190000D01*
X128870000Y-82150000D01*
X129200000Y-82050000D01*
X129200000Y-82030000D01*
X128850000Y-81940000D01*
X128840000Y-81900000D01*
X128850000Y-81850000D01*
X129330000Y-81990000D01*
X129360000Y-82020000D01*
X129360000Y-82080000D01*
X128970000Y-82200000D01*
X129010000Y-82210000D01*
X129340000Y-82320000D01*
X129360000Y-82360000D01*
X129340000Y-82400000D01*
X128850000Y-82540000D01*
X128840000Y-82500000D01*
X128840000Y-82450000D01*
X128890000Y-82440000D01*
X129230000Y-82360000D01*
G37*
X129230000Y-82360000D02*
X128850000Y-82240000D01*
X128840000Y-82190000D01*
X128870000Y-82150000D01*
X129200000Y-82050000D01*
X129200000Y-82030000D01*
X128850000Y-81940000D01*
X128840000Y-81900000D01*
X128850000Y-81850000D01*
X129330000Y-81990000D01*
X129360000Y-82020000D01*
X129360000Y-82080000D01*
X128970000Y-82200000D01*
X129010000Y-82210000D01*
X129340000Y-82320000D01*
X129360000Y-82360000D01*
X129340000Y-82400000D01*
X128850000Y-82540000D01*
X128840000Y-82500000D01*
X128840000Y-82450000D01*
X128890000Y-82440000D01*
X129230000Y-82360000D01*
G36*
X129350000Y-82980000D02*
G01*
X129350000Y-83030000D01*
X129330000Y-83080000D01*
X129300000Y-83120000D01*
X129260000Y-83150000D01*
X129220000Y-83110000D01*
X129240000Y-83070000D01*
X129270000Y-83030000D01*
X129280000Y-82990000D01*
X129280000Y-82930000D01*
X129270000Y-82890000D01*
X129230000Y-82850000D01*
X129190000Y-82820000D01*
X129140000Y-82810000D01*
X129110000Y-82830000D01*
X129040000Y-82830000D01*
X129000000Y-82820000D01*
X128950000Y-82840000D01*
X128920000Y-82870000D01*
X128900000Y-82920000D01*
X128890000Y-82940000D01*
X128900000Y-83000000D01*
X128930000Y-83040000D01*
X128970000Y-83060000D01*
X129020000Y-83070000D01*
X129040000Y-83030000D01*
X129040000Y-82830000D01*
X129110000Y-82830000D01*
X129110000Y-83140000D01*
X129080000Y-83160000D01*
X129020000Y-83160000D01*
X128970000Y-83140000D01*
X128930000Y-83130000D01*
X128890000Y-83100000D01*
X128860000Y-83070000D01*
X128830000Y-83020000D01*
X128820000Y-82970000D01*
X128820000Y-82920000D01*
X128840000Y-82870000D01*
X128860000Y-82820000D01*
X128890000Y-82790000D01*
X128930000Y-82760000D01*
X128980000Y-82740000D01*
X129030000Y-82730000D01*
X129080000Y-82720000D01*
X129140000Y-82720000D01*
X129190000Y-82730000D01*
X129230000Y-82750000D01*
X129270000Y-82780000D01*
X129310000Y-82810000D01*
X129340000Y-82850000D01*
X129350000Y-82900000D01*
X129360000Y-82950000D01*
X129350000Y-82980000D01*
G37*
X129350000Y-82980000D02*
X129350000Y-83030000D01*
X129330000Y-83080000D01*
X129300000Y-83120000D01*
X129260000Y-83150000D01*
X129220000Y-83110000D01*
X129240000Y-83070000D01*
X129270000Y-83030000D01*
X129280000Y-82990000D01*
X129280000Y-82930000D01*
X129270000Y-82890000D01*
X129230000Y-82850000D01*
X129190000Y-82820000D01*
X129140000Y-82810000D01*
X129110000Y-82830000D01*
X129040000Y-82830000D01*
X129000000Y-82820000D01*
X128950000Y-82840000D01*
X128920000Y-82870000D01*
X128900000Y-82920000D01*
X128890000Y-82940000D01*
X128900000Y-83000000D01*
X128930000Y-83040000D01*
X128970000Y-83060000D01*
X129020000Y-83070000D01*
X129040000Y-83030000D01*
X129040000Y-82830000D01*
X129110000Y-82830000D01*
X129110000Y-83140000D01*
X129080000Y-83160000D01*
X129020000Y-83160000D01*
X128970000Y-83140000D01*
X128930000Y-83130000D01*
X128890000Y-83100000D01*
X128860000Y-83070000D01*
X128830000Y-83020000D01*
X128820000Y-82970000D01*
X128820000Y-82920000D01*
X128840000Y-82870000D01*
X128860000Y-82820000D01*
X128890000Y-82790000D01*
X128930000Y-82760000D01*
X128980000Y-82740000D01*
X129030000Y-82730000D01*
X129080000Y-82720000D01*
X129140000Y-82720000D01*
X129190000Y-82730000D01*
X129230000Y-82750000D01*
X129270000Y-82780000D01*
X129310000Y-82810000D01*
X129340000Y-82850000D01*
X129350000Y-82900000D01*
X129360000Y-82950000D01*
X129350000Y-82980000D01*
G36*
X129080000Y-83680000D02*
G01*
X129140000Y-83680000D01*
X129190000Y-83670000D01*
X129230000Y-83650000D01*
X129260000Y-83610000D01*
X129280000Y-83560000D01*
X129280000Y-83510000D01*
X129260000Y-83470000D01*
X129220000Y-83430000D01*
X129170000Y-83420000D01*
X129020000Y-83420000D01*
X128970000Y-83420000D01*
X128930000Y-83450000D01*
X128900000Y-83490000D01*
X128890000Y-83540000D01*
X128900000Y-83590000D01*
X128930000Y-83630000D01*
X128970000Y-83660000D01*
X129010000Y-83670000D01*
X129070000Y-83680000D01*
X129050000Y-83770000D01*
X128990000Y-83760000D01*
X128950000Y-83740000D01*
X128900000Y-83720000D01*
X128870000Y-83690000D01*
X128840000Y-83650000D01*
X128820000Y-83600000D01*
X128820000Y-83550000D01*
X128830000Y-83500000D01*
X128850000Y-83450000D01*
X128890000Y-83420000D01*
X128630000Y-83420000D01*
X128610000Y-83390000D01*
X128610000Y-83330000D01*
X128660000Y-83330000D01*
X129320000Y-83330000D01*
X129350000Y-83360000D01*
X129350000Y-83410000D01*
X129300000Y-83420000D01*
X129340000Y-83480000D01*
X129350000Y-83530000D01*
X129360000Y-83590000D01*
X129340000Y-83640000D01*
X129320000Y-83680000D01*
X129280000Y-83710000D01*
X129250000Y-83740000D01*
X129200000Y-83750000D01*
X129150000Y-83760000D01*
X129090000Y-83770000D01*
X129080000Y-83680000D01*
G37*
X129080000Y-83680000D02*
X129140000Y-83680000D01*
X129190000Y-83670000D01*
X129230000Y-83650000D01*
X129260000Y-83610000D01*
X129280000Y-83560000D01*
X129280000Y-83510000D01*
X129260000Y-83470000D01*
X129220000Y-83430000D01*
X129170000Y-83420000D01*
X129020000Y-83420000D01*
X128970000Y-83420000D01*
X128930000Y-83450000D01*
X128900000Y-83490000D01*
X128890000Y-83540000D01*
X128900000Y-83590000D01*
X128930000Y-83630000D01*
X128970000Y-83660000D01*
X129010000Y-83670000D01*
X129070000Y-83680000D01*
X129050000Y-83770000D01*
X128990000Y-83760000D01*
X128950000Y-83740000D01*
X128900000Y-83720000D01*
X128870000Y-83690000D01*
X128840000Y-83650000D01*
X128820000Y-83600000D01*
X128820000Y-83550000D01*
X128830000Y-83500000D01*
X128850000Y-83450000D01*
X128890000Y-83420000D01*
X128630000Y-83420000D01*
X128610000Y-83390000D01*
X128610000Y-83330000D01*
X128660000Y-83330000D01*
X129320000Y-83330000D01*
X129350000Y-83360000D01*
X129350000Y-83410000D01*
X129300000Y-83420000D01*
X129340000Y-83480000D01*
X129350000Y-83530000D01*
X129360000Y-83590000D01*
X129340000Y-83640000D01*
X129320000Y-83680000D01*
X129280000Y-83710000D01*
X129250000Y-83740000D01*
X129200000Y-83750000D01*
X129150000Y-83760000D01*
X129090000Y-83770000D01*
X129080000Y-83680000D01*
G36*
X129210000Y-84220000D02*
G01*
X129250000Y-84200000D01*
X129280000Y-84160000D01*
X129280000Y-84110000D01*
X129280000Y-84060000D01*
X129250000Y-84020000D01*
X129210000Y-83990000D01*
X129190000Y-83950000D01*
X129190000Y-83900000D01*
X129230000Y-83910000D01*
X129280000Y-83930000D01*
X129310000Y-83970000D01*
X129340000Y-84010000D01*
X129350000Y-84060000D01*
X129360000Y-84110000D01*
X129350000Y-84160000D01*
X129340000Y-84210000D01*
X129310000Y-84250000D01*
X129280000Y-84290000D01*
X129230000Y-84310000D01*
X129180000Y-84310000D01*
X129140000Y-84290000D01*
X129100000Y-84260000D01*
X129080000Y-84220000D01*
X129060000Y-84170000D01*
X129030000Y-84060000D01*
X129010000Y-84020000D01*
X128960000Y-84010000D01*
X128920000Y-84030000D01*
X128900000Y-84070000D01*
X128890000Y-84120000D01*
X128910000Y-84170000D01*
X128940000Y-84210000D01*
X128980000Y-84230000D01*
X128980000Y-84280000D01*
X128960000Y-84300000D01*
X128910000Y-84290000D01*
X128870000Y-84260000D01*
X128850000Y-84220000D01*
X128830000Y-84170000D01*
X128820000Y-84120000D01*
X128830000Y-84060000D01*
X128840000Y-84020000D01*
X128860000Y-83970000D01*
X128900000Y-83940000D01*
X128940000Y-83920000D01*
X128990000Y-83920000D01*
X129040000Y-83930000D01*
X129070000Y-83970000D01*
X129090000Y-84010000D01*
X129110000Y-84060000D01*
X129120000Y-84120000D01*
X129140000Y-84170000D01*
X129160000Y-84200000D01*
X129210000Y-84220000D01*
G37*
X129210000Y-84220000D02*
X129250000Y-84200000D01*
X129280000Y-84160000D01*
X129280000Y-84110000D01*
X129280000Y-84060000D01*
X129250000Y-84020000D01*
X129210000Y-83990000D01*
X129190000Y-83950000D01*
X129190000Y-83900000D01*
X129230000Y-83910000D01*
X129280000Y-83930000D01*
X129310000Y-83970000D01*
X129340000Y-84010000D01*
X129350000Y-84060000D01*
X129360000Y-84110000D01*
X129350000Y-84160000D01*
X129340000Y-84210000D01*
X129310000Y-84250000D01*
X129280000Y-84290000D01*
X129230000Y-84310000D01*
X129180000Y-84310000D01*
X129140000Y-84290000D01*
X129100000Y-84260000D01*
X129080000Y-84220000D01*
X129060000Y-84170000D01*
X129030000Y-84060000D01*
X129010000Y-84020000D01*
X128960000Y-84010000D01*
X128920000Y-84030000D01*
X128900000Y-84070000D01*
X128890000Y-84120000D01*
X128910000Y-84170000D01*
X128940000Y-84210000D01*
X128980000Y-84230000D01*
X128980000Y-84280000D01*
X128960000Y-84300000D01*
X128910000Y-84290000D01*
X128870000Y-84260000D01*
X128850000Y-84220000D01*
X128830000Y-84170000D01*
X128820000Y-84120000D01*
X128830000Y-84060000D01*
X128840000Y-84020000D01*
X128860000Y-83970000D01*
X128900000Y-83940000D01*
X128940000Y-83920000D01*
X128990000Y-83920000D01*
X129040000Y-83930000D01*
X129070000Y-83970000D01*
X129090000Y-84010000D01*
X129110000Y-84060000D01*
X129120000Y-84120000D01*
X129140000Y-84170000D01*
X129160000Y-84200000D01*
X129210000Y-84220000D01*
G36*
X129330000Y-84580000D02*
G01*
X128870000Y-84580000D01*
X128840000Y-84560000D01*
X128840000Y-84510000D01*
X128880000Y-84490000D01*
X129340000Y-84490000D01*
X129360000Y-84530000D01*
X129360000Y-84580000D01*
X129330000Y-84580000D01*
G37*
X129330000Y-84580000D02*
X128870000Y-84580000D01*
X128840000Y-84560000D01*
X128840000Y-84510000D01*
X128880000Y-84490000D01*
X129340000Y-84490000D01*
X129360000Y-84530000D01*
X129360000Y-84580000D01*
X129330000Y-84580000D01*
G36*
X128710000Y-84480000D02*
G01*
X128750000Y-84510000D01*
X128750000Y-84560000D01*
X128710000Y-84590000D01*
X128670000Y-84580000D01*
X128660000Y-84530000D01*
X128680000Y-84490000D01*
X128710000Y-84480000D01*
G37*
X128710000Y-84480000D02*
X128750000Y-84510000D01*
X128750000Y-84560000D01*
X128710000Y-84590000D01*
X128670000Y-84580000D01*
X128660000Y-84530000D01*
X128680000Y-84490000D01*
X128710000Y-84480000D01*
G36*
X128710000Y-84860000D02*
G01*
X128710000Y-84810000D01*
X128720000Y-84770000D01*
X128820000Y-84770000D01*
X128830000Y-84740000D01*
X128830000Y-84690000D01*
X128880000Y-84680000D01*
X128900000Y-84710000D01*
X128900000Y-84760000D01*
X128940000Y-84770000D01*
X129190000Y-84770000D01*
X129250000Y-84770000D01*
X129300000Y-84790000D01*
X129330000Y-84820000D01*
X129350000Y-84860000D01*
X129350000Y-84910000D01*
X129340000Y-84960000D01*
X129290000Y-84960000D01*
X129280000Y-84930000D01*
X129270000Y-84880000D01*
X129220000Y-84860000D01*
X128920000Y-84860000D01*
X128900000Y-84900000D01*
X128900000Y-84950000D01*
X128860000Y-84960000D01*
X128830000Y-84940000D01*
X128830000Y-84890000D01*
X128810000Y-84860000D01*
X128710000Y-84860000D01*
G37*
X128710000Y-84860000D02*
X128710000Y-84810000D01*
X128720000Y-84770000D01*
X128820000Y-84770000D01*
X128830000Y-84740000D01*
X128830000Y-84690000D01*
X128880000Y-84680000D01*
X128900000Y-84710000D01*
X128900000Y-84760000D01*
X128940000Y-84770000D01*
X129190000Y-84770000D01*
X129250000Y-84770000D01*
X129300000Y-84790000D01*
X129330000Y-84820000D01*
X129350000Y-84860000D01*
X129350000Y-84910000D01*
X129340000Y-84960000D01*
X129290000Y-84960000D01*
X129280000Y-84930000D01*
X129270000Y-84880000D01*
X129220000Y-84860000D01*
X128920000Y-84860000D01*
X128900000Y-84900000D01*
X128900000Y-84950000D01*
X128860000Y-84960000D01*
X128830000Y-84940000D01*
X128830000Y-84890000D01*
X128810000Y-84860000D01*
X128710000Y-84860000D01*
G36*
X129350000Y-85410000D02*
G01*
X129350000Y-85470000D01*
X129330000Y-85510000D01*
X129300000Y-85550000D01*
X129260000Y-85580000D01*
X129220000Y-85540000D01*
X129240000Y-85510000D01*
X129270000Y-85470000D01*
X129280000Y-85420000D01*
X129280000Y-85370000D01*
X129270000Y-85320000D01*
X129230000Y-85280000D01*
X129190000Y-85260000D01*
X129140000Y-85240000D01*
X129110000Y-85260000D01*
X129040000Y-85260000D01*
X129000000Y-85250000D01*
X128950000Y-85270000D01*
X128920000Y-85300000D01*
X128900000Y-85350000D01*
X128890000Y-85380000D01*
X128900000Y-85430000D01*
X128930000Y-85470000D01*
X128970000Y-85490000D01*
X129020000Y-85500000D01*
X129040000Y-85460000D01*
X129040000Y-85260000D01*
X129110000Y-85270000D01*
X129110000Y-85570000D01*
X129080000Y-85590000D01*
X129020000Y-85590000D01*
X128970000Y-85580000D01*
X128930000Y-85560000D01*
X128890000Y-85540000D01*
X128860000Y-85500000D01*
X128830000Y-85460000D01*
X128820000Y-85410000D01*
X128820000Y-85350000D01*
X128840000Y-85300000D01*
X128860000Y-85260000D01*
X128890000Y-85220000D01*
X128930000Y-85190000D01*
X128980000Y-85170000D01*
X129030000Y-85160000D01*
X129080000Y-85150000D01*
X129140000Y-85160000D01*
X129190000Y-85170000D01*
X129230000Y-85180000D01*
X129270000Y-85210000D01*
X129310000Y-85250000D01*
X129340000Y-85290000D01*
X129350000Y-85340000D01*
X129360000Y-85390000D01*
X129350000Y-85410000D01*
G37*
X129350000Y-85410000D02*
X129350000Y-85470000D01*
X129330000Y-85510000D01*
X129300000Y-85550000D01*
X129260000Y-85580000D01*
X129220000Y-85540000D01*
X129240000Y-85510000D01*
X129270000Y-85470000D01*
X129280000Y-85420000D01*
X129280000Y-85370000D01*
X129270000Y-85320000D01*
X129230000Y-85280000D01*
X129190000Y-85260000D01*
X129140000Y-85240000D01*
X129110000Y-85260000D01*
X129040000Y-85260000D01*
X129000000Y-85250000D01*
X128950000Y-85270000D01*
X128920000Y-85300000D01*
X128900000Y-85350000D01*
X128890000Y-85380000D01*
X128900000Y-85430000D01*
X128930000Y-85470000D01*
X128970000Y-85490000D01*
X129020000Y-85500000D01*
X129040000Y-85460000D01*
X129040000Y-85260000D01*
X129110000Y-85270000D01*
X129110000Y-85570000D01*
X129080000Y-85590000D01*
X129020000Y-85590000D01*
X128970000Y-85580000D01*
X128930000Y-85560000D01*
X128890000Y-85540000D01*
X128860000Y-85500000D01*
X128830000Y-85460000D01*
X128820000Y-85410000D01*
X128820000Y-85350000D01*
X128840000Y-85300000D01*
X128860000Y-85260000D01*
X128890000Y-85220000D01*
X128930000Y-85190000D01*
X128980000Y-85170000D01*
X129030000Y-85160000D01*
X129080000Y-85150000D01*
X129140000Y-85160000D01*
X129190000Y-85170000D01*
X129230000Y-85180000D01*
X129270000Y-85210000D01*
X129310000Y-85250000D01*
X129340000Y-85290000D01*
X129350000Y-85340000D01*
X129360000Y-85390000D01*
X129350000Y-85410000D01*
G36*
X109750000Y-84980000D02*
G01*
X110160000Y-84980000D01*
X110200000Y-85040000D01*
X110200000Y-86970000D01*
X110140000Y-87020000D01*
X89820000Y-87020000D01*
X89800000Y-86940000D01*
X89800000Y-85010000D01*
X89880000Y-84980000D01*
X109690000Y-84980000D01*
X109530000Y-85330000D01*
X109440000Y-85320000D01*
X109340000Y-85320000D01*
X109270000Y-85380000D01*
X108850000Y-86420000D01*
X108820000Y-86400000D01*
X108410000Y-85360000D01*
X108330000Y-85320000D01*
X108230000Y-85320000D01*
X108150000Y-85340000D01*
X108150000Y-86660000D01*
X107950000Y-86650000D01*
X107450000Y-85320000D01*
X107350000Y-85320000D01*
X107270000Y-85360000D01*
X106770000Y-86680000D01*
X106320000Y-86670000D01*
X106320000Y-85350000D01*
X106240000Y-85320000D01*
X105940000Y-85320000D01*
X105830000Y-85330000D01*
X105730000Y-85350000D01*
X105640000Y-85380000D01*
X105560000Y-85430000D01*
X105480000Y-85500000D01*
X105420000Y-85580000D01*
X105380000Y-85670000D01*
X105350000Y-85760000D01*
X105320000Y-85860000D01*
X105310000Y-85970000D01*
X105310000Y-86070000D01*
X105320000Y-86180000D01*
X105340000Y-86280000D01*
X105370000Y-86370000D01*
X105010000Y-86630000D01*
X105010000Y-85410000D01*
X105000000Y-85320000D01*
X104180000Y-85320000D01*
X104140000Y-85370000D01*
X104140000Y-85470000D01*
X104750000Y-85470000D01*
X104830000Y-85500000D01*
X104830000Y-85900000D01*
X104740000Y-85920000D01*
X104230000Y-85920000D01*
X104230000Y-86010000D01*
X104290000Y-86070000D01*
X104800000Y-86070000D01*
X104830000Y-86150000D01*
X104830000Y-86550000D01*
X104730000Y-86560000D01*
X104220000Y-86560000D01*
X104120000Y-86560000D01*
X104120000Y-86660000D01*
X103300000Y-86630000D01*
X103300000Y-85410000D01*
X103290000Y-85320000D01*
X103190000Y-85320000D01*
X103120000Y-85350000D01*
X103120000Y-86670000D01*
X102820000Y-86620000D01*
X102820000Y-85400000D01*
X102810000Y-85320000D01*
X102710000Y-85320000D01*
X102620000Y-85350000D01*
X101960000Y-86370000D01*
X101940000Y-86320000D01*
X101940000Y-85410000D01*
X101930000Y-85320000D01*
X101830000Y-85320000D01*
X101760000Y-85350000D01*
X101760000Y-86670000D01*
X100940000Y-86660000D01*
X100940000Y-85340000D01*
X100860000Y-85320000D01*
X100760000Y-85320000D01*
X100690000Y-85380000D01*
X100270000Y-86420000D01*
X100230000Y-86400000D01*
X99820000Y-85360000D01*
X99750000Y-85320000D01*
X99650000Y-85320000D01*
X99560000Y-85330000D01*
X99560000Y-86650000D01*
X99370000Y-86650000D01*
X98860000Y-85320000D01*
X98760000Y-85320000D01*
X98690000Y-85350000D01*
X98180000Y-86680000D01*
X97710000Y-86490000D01*
X97740000Y-86400000D01*
X97760000Y-86300000D01*
X97760000Y-86190000D01*
X97760000Y-85380000D01*
X97740000Y-85300000D01*
X97640000Y-85300000D01*
X97580000Y-85340000D01*
X97580000Y-86260000D01*
X97570000Y-86370000D01*
X97520000Y-86450000D01*
X97450000Y-86510000D01*
X97360000Y-86550000D01*
X97250000Y-86560000D01*
X97140000Y-86540000D01*
X97050000Y-86500000D01*
X96990000Y-86440000D01*
X96950000Y-86350000D01*
X96940000Y-86240000D01*
X96940000Y-85330000D01*
X96870000Y-85300000D01*
X96760000Y-85300000D01*
X96760000Y-85310000D01*
X96410000Y-85320000D01*
X96010000Y-85320000D01*
X95890000Y-85320000D01*
X95790000Y-85340000D01*
X95690000Y-85370000D01*
X95620000Y-85420000D01*
X95550000Y-85480000D01*
X95510000Y-85570000D01*
X95480000Y-85670000D01*
X95480000Y-85780000D01*
X95500000Y-85880000D01*
X95550000Y-85970000D01*
X95620000Y-86040000D01*
X95710000Y-86090000D01*
X95710000Y-86170000D01*
X95420000Y-86700000D01*
X95100000Y-86660000D01*
X95100000Y-85340000D01*
X95020000Y-85320000D01*
X94920000Y-85320000D01*
X94740000Y-85390000D01*
X94710000Y-85320000D01*
X93690000Y-85320000D01*
X93670000Y-85400000D01*
X93240000Y-85400000D01*
X93220000Y-85320000D01*
X93120000Y-85320000D01*
X93060000Y-85360000D01*
X92800000Y-85300000D01*
X92700000Y-85300000D01*
X92610000Y-85320000D01*
X92610000Y-86230000D01*
X92600000Y-86340000D01*
X92570000Y-86430000D01*
X92500000Y-86500000D01*
X92420000Y-86540000D01*
X92310000Y-86560000D01*
X92200000Y-86550000D01*
X92100000Y-86520000D01*
X92040000Y-86460000D01*
X91990000Y-86370000D01*
X91970000Y-86270000D01*
X91970000Y-85350000D01*
X91920000Y-85300000D01*
X91820000Y-85300000D01*
X91790000Y-85390000D01*
X91790000Y-86200000D01*
X91790000Y-86310000D01*
X91530000Y-86360000D01*
X91510000Y-86280000D01*
X91400000Y-86280000D01*
X91350000Y-86340000D01*
X91310000Y-86430000D01*
X91250000Y-86500000D01*
X91160000Y-86540000D01*
X91060000Y-86560000D01*
X90940000Y-86550000D01*
X90840000Y-86530000D01*
X90770000Y-86480000D01*
X90720000Y-86390000D01*
X90720000Y-86280000D01*
X90760000Y-86200000D01*
X90830000Y-86150000D01*
X90910000Y-86110000D01*
X91030000Y-86080000D01*
X91050000Y-86070000D01*
X91160000Y-86030000D01*
X91260000Y-85990000D01*
X91340000Y-85940000D01*
X91410000Y-85890000D01*
X91470000Y-85800000D01*
X91490000Y-85710000D01*
X91490000Y-85600000D01*
X91460000Y-85510000D01*
X91400000Y-85430000D01*
X91320000Y-85370000D01*
X91240000Y-85320000D01*
X91140000Y-85300000D01*
X91030000Y-85290000D01*
X90920000Y-85300000D01*
X90830000Y-85320000D01*
X90740000Y-85360000D01*
X90660000Y-85420000D01*
X90600000Y-85500000D01*
X90560000Y-85600000D01*
X90540000Y-85700000D01*
X90630000Y-85710000D01*
X90720000Y-85690000D01*
X90740000Y-85590000D01*
X90800000Y-85510000D01*
X90870000Y-85460000D01*
X90970000Y-85430000D01*
X91090000Y-85430000D01*
X91190000Y-85460000D01*
X91260000Y-85520000D01*
X91310000Y-85600000D01*
X91310000Y-85710000D01*
X91260000Y-85790000D01*
X91190000Y-85840000D01*
X91090000Y-85880000D01*
X90970000Y-85920000D01*
X90870000Y-85950000D01*
X90780000Y-85990000D01*
X90700000Y-86040000D01*
X90620000Y-86110000D01*
X90560000Y-86190000D01*
X90530000Y-86280000D01*
X90530000Y-86390000D01*
X90560000Y-86480000D01*
X90620000Y-86570000D01*
X90690000Y-86630000D01*
X90770000Y-86670000D01*
X90870000Y-86700000D01*
X90980000Y-86710000D01*
X91090000Y-86710000D01*
X91190000Y-86690000D01*
X91280000Y-86660000D01*
X91370000Y-86600000D01*
X91450000Y-86540000D01*
X91500000Y-86450000D01*
X91530000Y-86360000D01*
X91790000Y-86310000D01*
X91820000Y-86410000D01*
X91860000Y-86500000D01*
X91920000Y-86570000D01*
X91990000Y-86630000D01*
X92080000Y-86670000D01*
X92180000Y-86700000D01*
X92290000Y-86710000D01*
X92400000Y-86700000D01*
X92500000Y-86680000D01*
X92590000Y-86640000D01*
X92660000Y-86580000D01*
X92730000Y-86510000D01*
X92770000Y-86420000D01*
X92790000Y-86320000D01*
X92800000Y-86210000D01*
X92800000Y-85300000D01*
X93060000Y-85360000D01*
X93060000Y-86680000D01*
X93130000Y-86710000D01*
X93230000Y-86710000D01*
X93240000Y-86620000D01*
X93240000Y-85400000D01*
X93670000Y-85400000D01*
X93740000Y-85470000D01*
X94050000Y-85470000D01*
X94120000Y-85500000D01*
X94120000Y-86620000D01*
X94130000Y-86710000D01*
X94230000Y-86710000D01*
X94300000Y-86680000D01*
X94300000Y-85560000D01*
X94310000Y-85470000D01*
X94720000Y-85470000D01*
X94740000Y-85390000D01*
X94920000Y-85320000D01*
X94920000Y-86640000D01*
X94950000Y-86710000D01*
X95050000Y-86710000D01*
X95100000Y-86660000D01*
X95420000Y-86700000D01*
X95510000Y-86710000D01*
X95610000Y-86710000D01*
X95900000Y-86180000D01*
X95950000Y-86150000D01*
X96150000Y-86150000D01*
X96240000Y-86160000D01*
X96240000Y-86670000D01*
X96300000Y-86710000D01*
X96400000Y-86710000D01*
X96420000Y-86630000D01*
X96420000Y-85410000D01*
X96410000Y-85320000D01*
X96760000Y-85310000D01*
X96760000Y-86230000D01*
X96770000Y-86330000D01*
X96790000Y-86430000D01*
X96840000Y-86520000D01*
X96900000Y-86590000D01*
X96980000Y-86640000D01*
X97070000Y-86680000D01*
X97180000Y-86710000D01*
X97280000Y-86710000D01*
X97390000Y-86700000D01*
X97490000Y-86670000D01*
X97580000Y-86630000D01*
X97650000Y-86570000D01*
X97710000Y-86490000D01*
X98180000Y-86680000D01*
X98240000Y-86710000D01*
X98350000Y-86710000D01*
X98390000Y-86630000D01*
X98500000Y-86350000D01*
X98590000Y-86350000D01*
X99000000Y-86350000D01*
X99080000Y-86370000D01*
X99190000Y-86660000D01*
X99250000Y-86710000D01*
X99350000Y-86710000D01*
X99370000Y-86650000D01*
X99560000Y-86660000D01*
X99610000Y-86710000D01*
X99710000Y-86710000D01*
X99750000Y-86640000D01*
X99750000Y-86140000D01*
X99740000Y-85630000D01*
X99760000Y-85640000D01*
X100170000Y-86670000D01*
X100250000Y-86710000D01*
X100330000Y-86690000D01*
X100760000Y-85660000D01*
X100780000Y-85630000D01*
X100760000Y-86130000D01*
X100760000Y-86640000D01*
X100800000Y-86710000D01*
X100900000Y-86710000D01*
X100940000Y-86660000D01*
X101760000Y-86670000D01*
X101810000Y-86710000D01*
X101910000Y-86710000D01*
X101980000Y-86650000D01*
X102600000Y-85720000D01*
X102640000Y-85660000D01*
X102640000Y-86680000D01*
X102710000Y-86710000D01*
X102810000Y-86710000D01*
X102820000Y-86620000D01*
X103120000Y-86670000D01*
X103180000Y-86710000D01*
X103280000Y-86710000D01*
X103300000Y-86630000D01*
X104130000Y-86660000D01*
X104180000Y-86710000D01*
X104990000Y-86710000D01*
X105010000Y-86630000D01*
X105380000Y-86370000D01*
X105420000Y-86460000D01*
X105490000Y-86540000D01*
X105560000Y-86600000D01*
X105650000Y-86650000D01*
X105740000Y-86690000D01*
X105840000Y-86710000D01*
X105950000Y-86710000D01*
X106250000Y-86710000D01*
X106320000Y-86670000D01*
X106770000Y-86690000D01*
X106830000Y-86710000D01*
X106930000Y-86710000D01*
X106980000Y-86630000D01*
X107050000Y-86440000D01*
X107180000Y-86350000D01*
X107590000Y-86350000D01*
X107670000Y-86370000D01*
X107770000Y-86660000D01*
X107840000Y-86710000D01*
X107940000Y-86710000D01*
X107950000Y-86650000D01*
X108150000Y-86660000D01*
X108200000Y-86710000D01*
X108300000Y-86710000D01*
X108330000Y-86640000D01*
X108330000Y-86130000D01*
X108320000Y-85630000D01*
X108340000Y-85640000D01*
X108750000Y-86680000D01*
X108830000Y-86710000D01*
X108920000Y-86690000D01*
X109340000Y-85650000D01*
X109370000Y-85630000D01*
X109350000Y-86140000D01*
X109350000Y-86650000D01*
X109380000Y-86710000D01*
X109480000Y-86710000D01*
X109530000Y-86660000D01*
X109530000Y-85340000D01*
X109690000Y-84980000D01*
X109750000Y-84980000D01*
G37*
X109750000Y-84980000D02*
X110160000Y-84980000D01*
X110200000Y-85040000D01*
X110200000Y-86970000D01*
X110140000Y-87020000D01*
X89820000Y-87020000D01*
X89800000Y-86940000D01*
X89800000Y-85010000D01*
X89880000Y-84980000D01*
X109690000Y-84980000D01*
X109530000Y-85330000D01*
X109440000Y-85320000D01*
X109340000Y-85320000D01*
X109270000Y-85380000D01*
X108850000Y-86420000D01*
X108820000Y-86400000D01*
X108410000Y-85360000D01*
X108330000Y-85320000D01*
X108230000Y-85320000D01*
X108150000Y-85340000D01*
X108150000Y-86660000D01*
X107950000Y-86650000D01*
X107450000Y-85320000D01*
X107350000Y-85320000D01*
X107270000Y-85360000D01*
X106770000Y-86680000D01*
X106320000Y-86670000D01*
X106320000Y-85350000D01*
X106240000Y-85320000D01*
X105940000Y-85320000D01*
X105830000Y-85330000D01*
X105730000Y-85350000D01*
X105640000Y-85380000D01*
X105560000Y-85430000D01*
X105480000Y-85500000D01*
X105420000Y-85580000D01*
X105380000Y-85670000D01*
X105350000Y-85760000D01*
X105320000Y-85860000D01*
X105310000Y-85970000D01*
X105310000Y-86070000D01*
X105320000Y-86180000D01*
X105340000Y-86280000D01*
X105370000Y-86370000D01*
X105010000Y-86630000D01*
X105010000Y-85410000D01*
X105000000Y-85320000D01*
X104180000Y-85320000D01*
X104140000Y-85370000D01*
X104140000Y-85470000D01*
X104750000Y-85470000D01*
X104830000Y-85500000D01*
X104830000Y-85900000D01*
X104740000Y-85920000D01*
X104230000Y-85920000D01*
X104230000Y-86010000D01*
X104290000Y-86070000D01*
X104800000Y-86070000D01*
X104830000Y-86150000D01*
X104830000Y-86550000D01*
X104730000Y-86560000D01*
X104220000Y-86560000D01*
X104120000Y-86560000D01*
X104120000Y-86660000D01*
X103300000Y-86630000D01*
X103300000Y-85410000D01*
X103290000Y-85320000D01*
X103190000Y-85320000D01*
X103120000Y-85350000D01*
X103120000Y-86670000D01*
X102820000Y-86620000D01*
X102820000Y-85400000D01*
X102810000Y-85320000D01*
X102710000Y-85320000D01*
X102620000Y-85350000D01*
X101960000Y-86370000D01*
X101940000Y-86320000D01*
X101940000Y-85410000D01*
X101930000Y-85320000D01*
X101830000Y-85320000D01*
X101760000Y-85350000D01*
X101760000Y-86670000D01*
X100940000Y-86660000D01*
X100940000Y-85340000D01*
X100860000Y-85320000D01*
X100760000Y-85320000D01*
X100690000Y-85380000D01*
X100270000Y-86420000D01*
X100230000Y-86400000D01*
X99820000Y-85360000D01*
X99750000Y-85320000D01*
X99650000Y-85320000D01*
X99560000Y-85330000D01*
X99560000Y-86650000D01*
X99370000Y-86650000D01*
X98860000Y-85320000D01*
X98760000Y-85320000D01*
X98690000Y-85350000D01*
X98180000Y-86680000D01*
X97710000Y-86490000D01*
X97740000Y-86400000D01*
X97760000Y-86300000D01*
X97760000Y-86190000D01*
X97760000Y-85380000D01*
X97740000Y-85300000D01*
X97640000Y-85300000D01*
X97580000Y-85340000D01*
X97580000Y-86260000D01*
X97570000Y-86370000D01*
X97520000Y-86450000D01*
X97450000Y-86510000D01*
X97360000Y-86550000D01*
X97250000Y-86560000D01*
X97140000Y-86540000D01*
X97050000Y-86500000D01*
X96990000Y-86440000D01*
X96950000Y-86350000D01*
X96940000Y-86240000D01*
X96940000Y-85330000D01*
X96870000Y-85300000D01*
X96760000Y-85300000D01*
X96760000Y-85310000D01*
X96410000Y-85320000D01*
X96010000Y-85320000D01*
X95890000Y-85320000D01*
X95790000Y-85340000D01*
X95690000Y-85370000D01*
X95620000Y-85420000D01*
X95550000Y-85480000D01*
X95510000Y-85570000D01*
X95480000Y-85670000D01*
X95480000Y-85780000D01*
X95500000Y-85880000D01*
X95550000Y-85970000D01*
X95620000Y-86040000D01*
X95710000Y-86090000D01*
X95710000Y-86170000D01*
X95420000Y-86700000D01*
X95100000Y-86660000D01*
X95100000Y-85340000D01*
X95020000Y-85320000D01*
X94920000Y-85320000D01*
X94740000Y-85390000D01*
X94710000Y-85320000D01*
X93690000Y-85320000D01*
X93670000Y-85400000D01*
X93240000Y-85400000D01*
X93220000Y-85320000D01*
X93120000Y-85320000D01*
X93060000Y-85360000D01*
X92800000Y-85300000D01*
X92700000Y-85300000D01*
X92610000Y-85320000D01*
X92610000Y-86230000D01*
X92600000Y-86340000D01*
X92570000Y-86430000D01*
X92500000Y-86500000D01*
X92420000Y-86540000D01*
X92310000Y-86560000D01*
X92200000Y-86550000D01*
X92100000Y-86520000D01*
X92040000Y-86460000D01*
X91990000Y-86370000D01*
X91970000Y-86270000D01*
X91970000Y-85350000D01*
X91920000Y-85300000D01*
X91820000Y-85300000D01*
X91790000Y-85390000D01*
X91790000Y-86200000D01*
X91790000Y-86310000D01*
X91530000Y-86360000D01*
X91510000Y-86280000D01*
X91400000Y-86280000D01*
X91350000Y-86340000D01*
X91310000Y-86430000D01*
X91250000Y-86500000D01*
X91160000Y-86540000D01*
X91060000Y-86560000D01*
X90940000Y-86550000D01*
X90840000Y-86530000D01*
X90770000Y-86480000D01*
X90720000Y-86390000D01*
X90720000Y-86280000D01*
X90760000Y-86200000D01*
X90830000Y-86150000D01*
X90910000Y-86110000D01*
X91030000Y-86080000D01*
X91050000Y-86070000D01*
X91160000Y-86030000D01*
X91260000Y-85990000D01*
X91340000Y-85940000D01*
X91410000Y-85890000D01*
X91470000Y-85800000D01*
X91490000Y-85710000D01*
X91490000Y-85600000D01*
X91460000Y-85510000D01*
X91400000Y-85430000D01*
X91320000Y-85370000D01*
X91240000Y-85320000D01*
X91140000Y-85300000D01*
X91030000Y-85290000D01*
X90920000Y-85300000D01*
X90830000Y-85320000D01*
X90740000Y-85360000D01*
X90660000Y-85420000D01*
X90600000Y-85500000D01*
X90560000Y-85600000D01*
X90540000Y-85700000D01*
X90630000Y-85710000D01*
X90720000Y-85690000D01*
X90740000Y-85590000D01*
X90800000Y-85510000D01*
X90870000Y-85460000D01*
X90970000Y-85430000D01*
X91090000Y-85430000D01*
X91190000Y-85460000D01*
X91260000Y-85520000D01*
X91310000Y-85600000D01*
X91310000Y-85710000D01*
X91260000Y-85790000D01*
X91190000Y-85840000D01*
X91090000Y-85880000D01*
X90970000Y-85920000D01*
X90870000Y-85950000D01*
X90780000Y-85990000D01*
X90700000Y-86040000D01*
X90620000Y-86110000D01*
X90560000Y-86190000D01*
X90530000Y-86280000D01*
X90530000Y-86390000D01*
X90560000Y-86480000D01*
X90620000Y-86570000D01*
X90690000Y-86630000D01*
X90770000Y-86670000D01*
X90870000Y-86700000D01*
X90980000Y-86710000D01*
X91090000Y-86710000D01*
X91190000Y-86690000D01*
X91280000Y-86660000D01*
X91370000Y-86600000D01*
X91450000Y-86540000D01*
X91500000Y-86450000D01*
X91530000Y-86360000D01*
X91790000Y-86310000D01*
X91820000Y-86410000D01*
X91860000Y-86500000D01*
X91920000Y-86570000D01*
X91990000Y-86630000D01*
X92080000Y-86670000D01*
X92180000Y-86700000D01*
X92290000Y-86710000D01*
X92400000Y-86700000D01*
X92500000Y-86680000D01*
X92590000Y-86640000D01*
X92660000Y-86580000D01*
X92730000Y-86510000D01*
X92770000Y-86420000D01*
X92790000Y-86320000D01*
X92800000Y-86210000D01*
X92800000Y-85300000D01*
X93060000Y-85360000D01*
X93060000Y-86680000D01*
X93130000Y-86710000D01*
X93230000Y-86710000D01*
X93240000Y-86620000D01*
X93240000Y-85400000D01*
X93670000Y-85400000D01*
X93740000Y-85470000D01*
X94050000Y-85470000D01*
X94120000Y-85500000D01*
X94120000Y-86620000D01*
X94130000Y-86710000D01*
X94230000Y-86710000D01*
X94300000Y-86680000D01*
X94300000Y-85560000D01*
X94310000Y-85470000D01*
X94720000Y-85470000D01*
X94740000Y-85390000D01*
X94920000Y-85320000D01*
X94920000Y-86640000D01*
X94950000Y-86710000D01*
X95050000Y-86710000D01*
X95100000Y-86660000D01*
X95420000Y-86700000D01*
X95510000Y-86710000D01*
X95610000Y-86710000D01*
X95900000Y-86180000D01*
X95950000Y-86150000D01*
X96150000Y-86150000D01*
X96240000Y-86160000D01*
X96240000Y-86670000D01*
X96300000Y-86710000D01*
X96400000Y-86710000D01*
X96420000Y-86630000D01*
X96420000Y-85410000D01*
X96410000Y-85320000D01*
X96760000Y-85310000D01*
X96760000Y-86230000D01*
X96770000Y-86330000D01*
X96790000Y-86430000D01*
X96840000Y-86520000D01*
X96900000Y-86590000D01*
X96980000Y-86640000D01*
X97070000Y-86680000D01*
X97180000Y-86710000D01*
X97280000Y-86710000D01*
X97390000Y-86700000D01*
X97490000Y-86670000D01*
X97580000Y-86630000D01*
X97650000Y-86570000D01*
X97710000Y-86490000D01*
X98180000Y-86680000D01*
X98240000Y-86710000D01*
X98350000Y-86710000D01*
X98390000Y-86630000D01*
X98500000Y-86350000D01*
X98590000Y-86350000D01*
X99000000Y-86350000D01*
X99080000Y-86370000D01*
X99190000Y-86660000D01*
X99250000Y-86710000D01*
X99350000Y-86710000D01*
X99370000Y-86650000D01*
X99560000Y-86660000D01*
X99610000Y-86710000D01*
X99710000Y-86710000D01*
X99750000Y-86640000D01*
X99750000Y-86140000D01*
X99740000Y-85630000D01*
X99760000Y-85640000D01*
X100170000Y-86670000D01*
X100250000Y-86710000D01*
X100330000Y-86690000D01*
X100760000Y-85660000D01*
X100780000Y-85630000D01*
X100760000Y-86130000D01*
X100760000Y-86640000D01*
X100800000Y-86710000D01*
X100900000Y-86710000D01*
X100940000Y-86660000D01*
X101760000Y-86670000D01*
X101810000Y-86710000D01*
X101910000Y-86710000D01*
X101980000Y-86650000D01*
X102600000Y-85720000D01*
X102640000Y-85660000D01*
X102640000Y-86680000D01*
X102710000Y-86710000D01*
X102810000Y-86710000D01*
X102820000Y-86620000D01*
X103120000Y-86670000D01*
X103180000Y-86710000D01*
X103280000Y-86710000D01*
X103300000Y-86630000D01*
X104130000Y-86660000D01*
X104180000Y-86710000D01*
X104990000Y-86710000D01*
X105010000Y-86630000D01*
X105380000Y-86370000D01*
X105420000Y-86460000D01*
X105490000Y-86540000D01*
X105560000Y-86600000D01*
X105650000Y-86650000D01*
X105740000Y-86690000D01*
X105840000Y-86710000D01*
X105950000Y-86710000D01*
X106250000Y-86710000D01*
X106320000Y-86670000D01*
X106770000Y-86690000D01*
X106830000Y-86710000D01*
X106930000Y-86710000D01*
X106980000Y-86630000D01*
X107050000Y-86440000D01*
X107180000Y-86350000D01*
X107590000Y-86350000D01*
X107670000Y-86370000D01*
X107770000Y-86660000D01*
X107840000Y-86710000D01*
X107940000Y-86710000D01*
X107950000Y-86650000D01*
X108150000Y-86660000D01*
X108200000Y-86710000D01*
X108300000Y-86710000D01*
X108330000Y-86640000D01*
X108330000Y-86130000D01*
X108320000Y-85630000D01*
X108340000Y-85640000D01*
X108750000Y-86680000D01*
X108830000Y-86710000D01*
X108920000Y-86690000D01*
X109340000Y-85650000D01*
X109370000Y-85630000D01*
X109350000Y-86140000D01*
X109350000Y-86650000D01*
X109380000Y-86710000D01*
X109480000Y-86710000D01*
X109530000Y-86660000D01*
X109530000Y-85340000D01*
X109690000Y-84980000D01*
X109750000Y-84980000D01*
G36*
X107610000Y-86200000D02*
G01*
X107200000Y-86200000D01*
X107140000Y-86170000D01*
X107350000Y-85600000D01*
X107380000Y-85600000D01*
X107600000Y-86170000D01*
X107610000Y-86200000D01*
G37*
X107610000Y-86200000D02*
X107200000Y-86200000D01*
X107140000Y-86170000D01*
X107350000Y-85600000D01*
X107380000Y-85600000D01*
X107600000Y-86170000D01*
X107610000Y-86200000D01*
G36*
X106140000Y-85510000D02*
G01*
X106140000Y-86520000D01*
X106070000Y-86560000D01*
X105970000Y-86560000D01*
X105860000Y-86550000D01*
X105760000Y-86530000D01*
X105670000Y-86480000D01*
X105610000Y-86420000D01*
X105560000Y-86340000D01*
X105520000Y-86250000D01*
X105500000Y-86150000D01*
X105500000Y-86030000D01*
X105500000Y-85920000D01*
X105510000Y-85810000D01*
X105540000Y-85720000D01*
X105580000Y-85640000D01*
X105650000Y-85570000D01*
X105730000Y-85510000D01*
X105820000Y-85480000D01*
X105930000Y-85470000D01*
X106130000Y-85470000D01*
X106140000Y-85510000D01*
G37*
X106140000Y-85510000D02*
X106140000Y-86520000D01*
X106070000Y-86560000D01*
X105970000Y-86560000D01*
X105860000Y-86550000D01*
X105760000Y-86530000D01*
X105670000Y-86480000D01*
X105610000Y-86420000D01*
X105560000Y-86340000D01*
X105520000Y-86250000D01*
X105500000Y-86150000D01*
X105500000Y-86030000D01*
X105500000Y-85920000D01*
X105510000Y-85810000D01*
X105540000Y-85720000D01*
X105580000Y-85640000D01*
X105650000Y-85570000D01*
X105730000Y-85510000D01*
X105820000Y-85480000D01*
X105930000Y-85470000D01*
X106130000Y-85470000D01*
X106140000Y-85510000D01*
G36*
X98920000Y-86200000D02*
G01*
X98620000Y-86200000D01*
X98560000Y-86180000D01*
X98760000Y-85600000D01*
X98800000Y-85600000D01*
X99010000Y-86170000D01*
X98920000Y-86200000D01*
G37*
X98920000Y-86200000D02*
X98620000Y-86200000D01*
X98560000Y-86180000D01*
X98760000Y-85600000D01*
X98800000Y-85600000D01*
X99010000Y-86170000D01*
X98920000Y-86200000D01*
G36*
X96170000Y-86000000D02*
G01*
X95960000Y-86000000D01*
X95860000Y-85990000D01*
X95770000Y-85950000D01*
X95700000Y-85880000D01*
X95660000Y-85790000D01*
X95670000Y-85680000D01*
X95700000Y-85580000D01*
X95770000Y-85520000D01*
X95850000Y-85480000D01*
X95970000Y-85470000D01*
X96170000Y-85470000D01*
X96240000Y-85500000D01*
X96240000Y-85910000D01*
X96170000Y-86000000D01*
G37*
X96170000Y-86000000D02*
X95960000Y-86000000D01*
X95860000Y-85990000D01*
X95770000Y-85950000D01*
X95700000Y-85880000D01*
X95660000Y-85790000D01*
X95670000Y-85680000D01*
X95700000Y-85580000D01*
X95770000Y-85520000D01*
X95850000Y-85480000D01*
X95970000Y-85470000D01*
X96170000Y-85470000D01*
X96240000Y-85500000D01*
X96240000Y-85910000D01*
X96170000Y-86000000D01*
G36*
X124980000Y-70650000D02*
G01*
X124980000Y-70240000D01*
X125020000Y-70180000D01*
X126950000Y-70180000D01*
X127020000Y-70210000D01*
X127020000Y-87790000D01*
X126950000Y-87820000D01*
X125020000Y-87820000D01*
X124980000Y-87760000D01*
X124980000Y-70690000D01*
X125360000Y-70730000D01*
X125350000Y-70820000D01*
X125350000Y-72040000D01*
X125420000Y-72070000D01*
X125460000Y-72470000D01*
X125370000Y-72510000D01*
X125350000Y-72610000D01*
X125350000Y-73630000D01*
X125370000Y-73710000D01*
X125570000Y-73710000D01*
X125590000Y-73630000D01*
X125590000Y-72720000D01*
X125690000Y-72720000D01*
X126300000Y-72720000D01*
X126150000Y-72840000D01*
X126070000Y-72820000D01*
X125970000Y-72820000D01*
X125900000Y-72850000D01*
X125900000Y-73560000D01*
X125960000Y-73600000D01*
X126060000Y-73600000D01*
X126150000Y-73550000D01*
X126150000Y-72840000D01*
X126300000Y-72720000D01*
X126410000Y-72720000D01*
X126460000Y-72790000D01*
X126470000Y-72890000D01*
X126470000Y-73700000D01*
X126410000Y-74000000D01*
X126310000Y-74000000D01*
X125700000Y-74000000D01*
X125600000Y-74010000D01*
X125500000Y-74050000D01*
X125430000Y-74120000D01*
X125370000Y-74200000D01*
X125350000Y-74300000D01*
X125350000Y-74400000D01*
X125350000Y-75220000D01*
X125420000Y-75250000D01*
X125520000Y-75250000D01*
X125590000Y-75210000D01*
X125590000Y-74400000D01*
X125600000Y-74300000D01*
X125680000Y-74250000D01*
X126290000Y-74250000D01*
X126390000Y-74250000D01*
X126460000Y-74320000D01*
X126470000Y-74420000D01*
X126470000Y-75230000D01*
X126560000Y-75250000D01*
X126660000Y-75250000D01*
X126700000Y-75570000D01*
X125380000Y-75570000D01*
X125350000Y-75640000D01*
X125350000Y-75740000D01*
X125370000Y-75820000D01*
X125900000Y-76000000D01*
X125900000Y-76100000D01*
X125830000Y-76170000D01*
X125400000Y-76600000D01*
X125350000Y-76680000D01*
X125350000Y-76990000D01*
X125400000Y-77310000D01*
X125320000Y-77370000D01*
X125310000Y-77470000D01*
X125370000Y-77550000D01*
X126250000Y-78400000D01*
X126230000Y-78430000D01*
X125410000Y-78430000D01*
X125330000Y-78440000D01*
X125330000Y-78650000D01*
X125400000Y-78680000D01*
X126510000Y-78680000D01*
X126360000Y-78980000D01*
X126270000Y-78960000D01*
X126170000Y-78940000D01*
X125860000Y-78940000D01*
X125760000Y-78950000D01*
X125660000Y-78980000D01*
X125570000Y-79020000D01*
X125490000Y-79080000D01*
X125420000Y-79160000D01*
X125370000Y-79240000D01*
X125330000Y-79340000D01*
X125310000Y-79440000D01*
X125310000Y-79540000D01*
X125310000Y-79840000D01*
X125320000Y-79950000D01*
X125340000Y-80050000D01*
X125380000Y-80140000D01*
X125430000Y-80220000D01*
X125500000Y-80290000D01*
X125590000Y-80350000D01*
X125680000Y-80390000D01*
X125780000Y-80410000D01*
X125880000Y-80420000D01*
X126090000Y-80420000D01*
X126230000Y-80410000D01*
X126330000Y-80390000D01*
X126420000Y-80350000D01*
X126600000Y-80760000D01*
X125380000Y-80760000D01*
X125350000Y-80830000D01*
X125350000Y-80930000D01*
X125370000Y-81020000D01*
X126380000Y-81020000D01*
X126470000Y-81030000D01*
X126470000Y-81950000D01*
X126490000Y-82020000D01*
X126420000Y-82350000D01*
X126320000Y-82310000D01*
X126220000Y-82290000D01*
X126120000Y-82290000D01*
X125920000Y-82290000D01*
X125810000Y-82290000D01*
X125710000Y-82310000D01*
X125620000Y-82340000D01*
X125530000Y-82390000D01*
X125450000Y-82460000D01*
X125390000Y-82540000D01*
X125350000Y-82630000D01*
X125320000Y-82720000D01*
X125310000Y-82830000D01*
X125310000Y-83130000D01*
X125310000Y-83230000D01*
X125320000Y-83340000D01*
X125350000Y-83430000D01*
X125400000Y-83520000D01*
X125460000Y-83600000D01*
X125540000Y-83660000D01*
X125630000Y-83710000D01*
X125730000Y-83740000D01*
X125830000Y-83760000D01*
X125750000Y-84090000D01*
X125650000Y-84090000D01*
X125550000Y-84120000D01*
X125460000Y-84170000D01*
X125400000Y-84240000D01*
X125360000Y-84340000D01*
X125350000Y-84440000D01*
X125350000Y-85350000D01*
X125360000Y-85450000D01*
X125560000Y-85450000D01*
X125590000Y-85380000D01*
X125590000Y-84460000D01*
X125620000Y-84370000D01*
X125710000Y-84340000D01*
X126320000Y-84340000D01*
X126420000Y-84350000D01*
X126470000Y-84440000D01*
X126470000Y-85150000D01*
X126420000Y-85200000D01*
X126220000Y-85200000D01*
X126150000Y-85170000D01*
X126150000Y-84560000D01*
X126050000Y-84550000D01*
X125950000Y-84550000D01*
X125900000Y-84600000D01*
X125900000Y-85310000D01*
X125920000Y-85410000D01*
X126010000Y-85460000D01*
X126520000Y-85460000D01*
X126470000Y-85780000D01*
X126380000Y-85760000D01*
X125770000Y-85760000D01*
X125660000Y-85760000D01*
X125570000Y-85790000D01*
X125480000Y-85830000D01*
X125410000Y-85910000D01*
X125360000Y-86000000D01*
X125350000Y-86100000D01*
X125350000Y-87120000D01*
X125440000Y-87120000D01*
X125550000Y-87120000D01*
X125590000Y-87070000D01*
X125590000Y-86160000D01*
X125610000Y-86050000D01*
X125700000Y-86020000D01*
X126310000Y-86020000D01*
X126410000Y-86020000D01*
X126470000Y-86100000D01*
X126470000Y-86200000D01*
X126470000Y-86810000D01*
X126440000Y-86880000D01*
X126230000Y-86880000D01*
X126150000Y-86860000D01*
X126150000Y-86250000D01*
X126070000Y-86230000D01*
X125970000Y-86230000D01*
X125900000Y-86260000D01*
X125900000Y-86970000D01*
X125920000Y-87070000D01*
X125990000Y-87130000D01*
X126100000Y-87130000D01*
X126500000Y-87130000D01*
X126590000Y-87130000D01*
X126680000Y-87090000D01*
X126710000Y-87000000D01*
X126710000Y-86190000D01*
X126710000Y-86080000D01*
X126690000Y-85980000D01*
X126640000Y-85900000D01*
X126570000Y-85830000D01*
X126480000Y-85780000D01*
X126520000Y-85460000D01*
X126600000Y-85460000D01*
X126690000Y-85400000D01*
X126710000Y-85310000D01*
X126710000Y-84490000D01*
X126710000Y-84390000D01*
X126680000Y-84290000D01*
X126630000Y-84210000D01*
X126550000Y-84140000D01*
X126460000Y-84100000D01*
X126360000Y-84090000D01*
X125750000Y-84090000D01*
X125830000Y-83760000D01*
X125930000Y-83760000D01*
X126130000Y-83760000D01*
X126180000Y-83760000D01*
X126280000Y-83750000D01*
X126370000Y-83720000D01*
X126460000Y-83670000D01*
X126540000Y-83610000D01*
X126610000Y-83540000D01*
X126660000Y-83450000D01*
X126690000Y-83350000D01*
X126710000Y-83250000D01*
X126710000Y-83150000D01*
X126710000Y-82840000D01*
X126700000Y-82740000D01*
X126680000Y-82640000D01*
X126630000Y-82550000D01*
X126580000Y-82470000D01*
X126500000Y-82400000D01*
X126420000Y-82350000D01*
X126500000Y-82020000D01*
X126700000Y-82020000D01*
X126710000Y-81930000D01*
X126710000Y-80910000D01*
X126690000Y-80810000D01*
X126600000Y-80760000D01*
X126430000Y-80350000D01*
X126510000Y-80300000D01*
X126580000Y-80230000D01*
X126640000Y-80150000D01*
X126680000Y-80050000D01*
X126700000Y-79960000D01*
X126710000Y-79850000D01*
X126710000Y-79550000D01*
X126710000Y-79440000D01*
X126690000Y-79340000D01*
X126660000Y-79250000D01*
X126600000Y-79160000D01*
X126540000Y-79090000D01*
X126460000Y-79030000D01*
X126370000Y-78980000D01*
X126520000Y-78680000D01*
X126640000Y-78670000D01*
X126700000Y-78600000D01*
X126700000Y-78500000D01*
X126630000Y-78430000D01*
X125750000Y-77580000D01*
X125800000Y-77560000D01*
X126610000Y-77560000D01*
X126690000Y-77540000D01*
X126690000Y-77340000D01*
X126620000Y-77310000D01*
X125500000Y-77310000D01*
X125400000Y-77310000D01*
X125350000Y-76990000D01*
X125410000Y-76940000D01*
X125980000Y-76360000D01*
X126050000Y-76320000D01*
X126680000Y-76970000D01*
X126710000Y-76980000D01*
X126710000Y-76670000D01*
X126660000Y-76590000D01*
X126220000Y-76170000D01*
X126150000Y-76090000D01*
X126150000Y-75990000D01*
X126130000Y-75920000D01*
X125920000Y-75920000D01*
X125900000Y-75990000D01*
X125370000Y-75830000D01*
X126690000Y-75830000D01*
X126710000Y-75760000D01*
X126710000Y-75660000D01*
X126700000Y-75570000D01*
X126660000Y-75240000D01*
X126710000Y-75160000D01*
X126710000Y-74350000D01*
X126700000Y-74250000D01*
X126660000Y-74160000D01*
X126590000Y-74080000D01*
X126510000Y-74030000D01*
X126410000Y-74000000D01*
X126470000Y-73710000D01*
X126560000Y-73710000D01*
X126660000Y-73710000D01*
X126710000Y-73700000D01*
X126710000Y-72890000D01*
X126710000Y-72790000D01*
X126690000Y-72690000D01*
X126640000Y-72600000D01*
X126570000Y-72530000D01*
X126480000Y-72490000D01*
X126380000Y-72470000D01*
X125460000Y-72470000D01*
X125430000Y-72070000D01*
X125530000Y-72070000D01*
X125590000Y-72010000D01*
X125590000Y-71600000D01*
X125610000Y-71520000D01*
X126620000Y-71520000D01*
X126710000Y-71500000D01*
X126710000Y-71300000D01*
X126640000Y-71270000D01*
X125620000Y-71270000D01*
X125590000Y-71200000D01*
X125590000Y-70790000D01*
X125560000Y-70720000D01*
X125360000Y-70720000D01*
X124980000Y-70680000D01*
X124980000Y-70650000D01*
G37*
X124980000Y-70650000D02*
X124980000Y-70240000D01*
X125020000Y-70180000D01*
X126950000Y-70180000D01*
X127020000Y-70210000D01*
X127020000Y-87790000D01*
X126950000Y-87820000D01*
X125020000Y-87820000D01*
X124980000Y-87760000D01*
X124980000Y-70690000D01*
X125360000Y-70730000D01*
X125350000Y-70820000D01*
X125350000Y-72040000D01*
X125420000Y-72070000D01*
X125460000Y-72470000D01*
X125370000Y-72510000D01*
X125350000Y-72610000D01*
X125350000Y-73630000D01*
X125370000Y-73710000D01*
X125570000Y-73710000D01*
X125590000Y-73630000D01*
X125590000Y-72720000D01*
X125690000Y-72720000D01*
X126300000Y-72720000D01*
X126150000Y-72840000D01*
X126070000Y-72820000D01*
X125970000Y-72820000D01*
X125900000Y-72850000D01*
X125900000Y-73560000D01*
X125960000Y-73600000D01*
X126060000Y-73600000D01*
X126150000Y-73550000D01*
X126150000Y-72840000D01*
X126300000Y-72720000D01*
X126410000Y-72720000D01*
X126460000Y-72790000D01*
X126470000Y-72890000D01*
X126470000Y-73700000D01*
X126410000Y-74000000D01*
X126310000Y-74000000D01*
X125700000Y-74000000D01*
X125600000Y-74010000D01*
X125500000Y-74050000D01*
X125430000Y-74120000D01*
X125370000Y-74200000D01*
X125350000Y-74300000D01*
X125350000Y-74400000D01*
X125350000Y-75220000D01*
X125420000Y-75250000D01*
X125520000Y-75250000D01*
X125590000Y-75210000D01*
X125590000Y-74400000D01*
X125600000Y-74300000D01*
X125680000Y-74250000D01*
X126290000Y-74250000D01*
X126390000Y-74250000D01*
X126460000Y-74320000D01*
X126470000Y-74420000D01*
X126470000Y-75230000D01*
X126560000Y-75250000D01*
X126660000Y-75250000D01*
X126700000Y-75570000D01*
X125380000Y-75570000D01*
X125350000Y-75640000D01*
X125350000Y-75740000D01*
X125370000Y-75820000D01*
X125900000Y-76000000D01*
X125900000Y-76100000D01*
X125830000Y-76170000D01*
X125400000Y-76600000D01*
X125350000Y-76680000D01*
X125350000Y-76990000D01*
X125400000Y-77310000D01*
X125320000Y-77370000D01*
X125310000Y-77470000D01*
X125370000Y-77550000D01*
X126250000Y-78400000D01*
X126230000Y-78430000D01*
X125410000Y-78430000D01*
X125330000Y-78440000D01*
X125330000Y-78650000D01*
X125400000Y-78680000D01*
X126510000Y-78680000D01*
X126360000Y-78980000D01*
X126270000Y-78960000D01*
X126170000Y-78940000D01*
X125860000Y-78940000D01*
X125760000Y-78950000D01*
X125660000Y-78980000D01*
X125570000Y-79020000D01*
X125490000Y-79080000D01*
X125420000Y-79160000D01*
X125370000Y-79240000D01*
X125330000Y-79340000D01*
X125310000Y-79440000D01*
X125310000Y-79540000D01*
X125310000Y-79840000D01*
X125320000Y-79950000D01*
X125340000Y-80050000D01*
X125380000Y-80140000D01*
X125430000Y-80220000D01*
X125500000Y-80290000D01*
X125590000Y-80350000D01*
X125680000Y-80390000D01*
X125780000Y-80410000D01*
X125880000Y-80420000D01*
X126090000Y-80420000D01*
X126230000Y-80410000D01*
X126330000Y-80390000D01*
X126420000Y-80350000D01*
X126600000Y-80760000D01*
X125380000Y-80760000D01*
X125350000Y-80830000D01*
X125350000Y-80930000D01*
X125370000Y-81020000D01*
X126380000Y-81020000D01*
X126470000Y-81030000D01*
X126470000Y-81950000D01*
X126490000Y-82020000D01*
X126420000Y-82350000D01*
X126320000Y-82310000D01*
X126220000Y-82290000D01*
X126120000Y-82290000D01*
X125920000Y-82290000D01*
X125810000Y-82290000D01*
X125710000Y-82310000D01*
X125620000Y-82340000D01*
X125530000Y-82390000D01*
X125450000Y-82460000D01*
X125390000Y-82540000D01*
X125350000Y-82630000D01*
X125320000Y-82720000D01*
X125310000Y-82830000D01*
X125310000Y-83130000D01*
X125310000Y-83230000D01*
X125320000Y-83340000D01*
X125350000Y-83430000D01*
X125400000Y-83520000D01*
X125460000Y-83600000D01*
X125540000Y-83660000D01*
X125630000Y-83710000D01*
X125730000Y-83740000D01*
X125830000Y-83760000D01*
X125750000Y-84090000D01*
X125650000Y-84090000D01*
X125550000Y-84120000D01*
X125460000Y-84170000D01*
X125400000Y-84240000D01*
X125360000Y-84340000D01*
X125350000Y-84440000D01*
X125350000Y-85350000D01*
X125360000Y-85450000D01*
X125560000Y-85450000D01*
X125590000Y-85380000D01*
X125590000Y-84460000D01*
X125620000Y-84370000D01*
X125710000Y-84340000D01*
X126320000Y-84340000D01*
X126420000Y-84350000D01*
X126470000Y-84440000D01*
X126470000Y-85150000D01*
X126420000Y-85200000D01*
X126220000Y-85200000D01*
X126150000Y-85170000D01*
X126150000Y-84560000D01*
X126050000Y-84550000D01*
X125950000Y-84550000D01*
X125900000Y-84600000D01*
X125900000Y-85310000D01*
X125920000Y-85410000D01*
X126010000Y-85460000D01*
X126520000Y-85460000D01*
X126470000Y-85780000D01*
X126380000Y-85760000D01*
X125770000Y-85760000D01*
X125660000Y-85760000D01*
X125570000Y-85790000D01*
X125480000Y-85830000D01*
X125410000Y-85910000D01*
X125360000Y-86000000D01*
X125350000Y-86100000D01*
X125350000Y-87120000D01*
X125440000Y-87120000D01*
X125550000Y-87120000D01*
X125590000Y-87070000D01*
X125590000Y-86160000D01*
X125610000Y-86050000D01*
X125700000Y-86020000D01*
X126310000Y-86020000D01*
X126410000Y-86020000D01*
X126470000Y-86100000D01*
X126470000Y-86200000D01*
X126470000Y-86810000D01*
X126440000Y-86880000D01*
X126230000Y-86880000D01*
X126150000Y-86860000D01*
X126150000Y-86250000D01*
X126070000Y-86230000D01*
X125970000Y-86230000D01*
X125900000Y-86260000D01*
X125900000Y-86970000D01*
X125920000Y-87070000D01*
X125990000Y-87130000D01*
X126100000Y-87130000D01*
X126500000Y-87130000D01*
X126590000Y-87130000D01*
X126680000Y-87090000D01*
X126710000Y-87000000D01*
X126710000Y-86190000D01*
X126710000Y-86080000D01*
X126690000Y-85980000D01*
X126640000Y-85900000D01*
X126570000Y-85830000D01*
X126480000Y-85780000D01*
X126520000Y-85460000D01*
X126600000Y-85460000D01*
X126690000Y-85400000D01*
X126710000Y-85310000D01*
X126710000Y-84490000D01*
X126710000Y-84390000D01*
X126680000Y-84290000D01*
X126630000Y-84210000D01*
X126550000Y-84140000D01*
X126460000Y-84100000D01*
X126360000Y-84090000D01*
X125750000Y-84090000D01*
X125830000Y-83760000D01*
X125930000Y-83760000D01*
X126130000Y-83760000D01*
X126180000Y-83760000D01*
X126280000Y-83750000D01*
X126370000Y-83720000D01*
X126460000Y-83670000D01*
X126540000Y-83610000D01*
X126610000Y-83540000D01*
X126660000Y-83450000D01*
X126690000Y-83350000D01*
X126710000Y-83250000D01*
X126710000Y-83150000D01*
X126710000Y-82840000D01*
X126700000Y-82740000D01*
X126680000Y-82640000D01*
X126630000Y-82550000D01*
X126580000Y-82470000D01*
X126500000Y-82400000D01*
X126420000Y-82350000D01*
X126500000Y-82020000D01*
X126700000Y-82020000D01*
X126710000Y-81930000D01*
X126710000Y-80910000D01*
X126690000Y-80810000D01*
X126600000Y-80760000D01*
X126430000Y-80350000D01*
X126510000Y-80300000D01*
X126580000Y-80230000D01*
X126640000Y-80150000D01*
X126680000Y-80050000D01*
X126700000Y-79960000D01*
X126710000Y-79850000D01*
X126710000Y-79550000D01*
X126710000Y-79440000D01*
X126690000Y-79340000D01*
X126660000Y-79250000D01*
X126600000Y-79160000D01*
X126540000Y-79090000D01*
X126460000Y-79030000D01*
X126370000Y-78980000D01*
X126520000Y-78680000D01*
X126640000Y-78670000D01*
X126700000Y-78600000D01*
X126700000Y-78500000D01*
X126630000Y-78430000D01*
X125750000Y-77580000D01*
X125800000Y-77560000D01*
X126610000Y-77560000D01*
X126690000Y-77540000D01*
X126690000Y-77340000D01*
X126620000Y-77310000D01*
X125500000Y-77310000D01*
X125400000Y-77310000D01*
X125350000Y-76990000D01*
X125410000Y-76940000D01*
X125980000Y-76360000D01*
X126050000Y-76320000D01*
X126680000Y-76970000D01*
X126710000Y-76980000D01*
X126710000Y-76670000D01*
X126660000Y-76590000D01*
X126220000Y-76170000D01*
X126150000Y-76090000D01*
X126150000Y-75990000D01*
X126130000Y-75920000D01*
X125920000Y-75920000D01*
X125900000Y-75990000D01*
X125370000Y-75830000D01*
X126690000Y-75830000D01*
X126710000Y-75760000D01*
X126710000Y-75660000D01*
X126700000Y-75570000D01*
X126660000Y-75240000D01*
X126710000Y-75160000D01*
X126710000Y-74350000D01*
X126700000Y-74250000D01*
X126660000Y-74160000D01*
X126590000Y-74080000D01*
X126510000Y-74030000D01*
X126410000Y-74000000D01*
X126470000Y-73710000D01*
X126560000Y-73710000D01*
X126660000Y-73710000D01*
X126710000Y-73700000D01*
X126710000Y-72890000D01*
X126710000Y-72790000D01*
X126690000Y-72690000D01*
X126640000Y-72600000D01*
X126570000Y-72530000D01*
X126480000Y-72490000D01*
X126380000Y-72470000D01*
X125460000Y-72470000D01*
X125430000Y-72070000D01*
X125530000Y-72070000D01*
X125590000Y-72010000D01*
X125590000Y-71600000D01*
X125610000Y-71520000D01*
X126620000Y-71520000D01*
X126710000Y-71500000D01*
X126710000Y-71300000D01*
X126640000Y-71270000D01*
X125620000Y-71270000D01*
X125590000Y-71200000D01*
X125590000Y-70790000D01*
X125560000Y-70720000D01*
X125360000Y-70720000D01*
X124980000Y-70680000D01*
X124980000Y-70650000D01*
G36*
X125830000Y-80170000D02*
G01*
X125730000Y-80140000D01*
X125650000Y-80090000D01*
X125590000Y-80010000D01*
X125560000Y-79910000D01*
X125550000Y-79810000D01*
X125550000Y-79500000D01*
X125570000Y-79400000D01*
X125620000Y-79310000D01*
X125690000Y-79240000D01*
X125780000Y-79200000D01*
X125880000Y-79190000D01*
X126080000Y-79190000D01*
X126190000Y-79190000D01*
X126280000Y-79220000D01*
X126370000Y-79270000D01*
X126430000Y-79350000D01*
X126450000Y-79450000D01*
X126460000Y-79550000D01*
X126460000Y-79860000D01*
X126440000Y-79960000D01*
X126400000Y-80050000D01*
X126330000Y-80120000D01*
X126240000Y-80160000D01*
X126130000Y-80170000D01*
X125930000Y-80170000D01*
X125830000Y-80170000D01*
G37*
X125830000Y-80170000D02*
X125730000Y-80140000D01*
X125650000Y-80090000D01*
X125590000Y-80010000D01*
X125560000Y-79910000D01*
X125550000Y-79810000D01*
X125550000Y-79500000D01*
X125570000Y-79400000D01*
X125620000Y-79310000D01*
X125690000Y-79240000D01*
X125780000Y-79200000D01*
X125880000Y-79190000D01*
X126080000Y-79190000D01*
X126190000Y-79190000D01*
X126280000Y-79220000D01*
X126370000Y-79270000D01*
X126430000Y-79350000D01*
X126450000Y-79450000D01*
X126460000Y-79550000D01*
X126460000Y-79860000D01*
X126440000Y-79960000D01*
X126400000Y-80050000D01*
X126330000Y-80120000D01*
X126240000Y-80160000D01*
X126130000Y-80170000D01*
X125930000Y-80170000D01*
X125830000Y-80170000D01*
G36*
X125780000Y-83500000D02*
G01*
X125690000Y-83460000D01*
X125620000Y-83400000D01*
X125570000Y-83310000D01*
X125550000Y-83210000D01*
X125550000Y-82900000D01*
X125560000Y-82800000D01*
X125590000Y-82700000D01*
X125650000Y-82620000D01*
X125730000Y-82560000D01*
X125830000Y-82530000D01*
X125930000Y-82530000D01*
X126130000Y-82530000D01*
X126230000Y-82540000D01*
X126330000Y-82580000D01*
X126400000Y-82650000D01*
X126440000Y-82740000D01*
X126460000Y-82840000D01*
X126460000Y-83150000D01*
X126450000Y-83250000D01*
X126430000Y-83350000D01*
X126370000Y-83430000D01*
X126290000Y-83480000D01*
X126190000Y-83510000D01*
X126090000Y-83520000D01*
X125890000Y-83520000D01*
X125780000Y-83500000D01*
G37*
X125780000Y-83500000D02*
X125690000Y-83460000D01*
X125620000Y-83400000D01*
X125570000Y-83310000D01*
X125550000Y-83210000D01*
X125550000Y-82900000D01*
X125560000Y-82800000D01*
X125590000Y-82700000D01*
X125650000Y-82620000D01*
X125730000Y-82560000D01*
X125830000Y-82530000D01*
X125930000Y-82530000D01*
X126130000Y-82530000D01*
X126230000Y-82540000D01*
X126330000Y-82580000D01*
X126400000Y-82650000D01*
X126440000Y-82740000D01*
X126460000Y-82840000D01*
X126460000Y-83150000D01*
X126450000Y-83250000D01*
X126430000Y-83350000D01*
X126370000Y-83430000D01*
X126290000Y-83480000D01*
X126190000Y-83510000D01*
X126090000Y-83520000D01*
X125890000Y-83520000D01*
X125780000Y-83500000D01*
D11*
M02*
