G04 #@! TF.GenerationSoftware,KiCad,Pcbnew,(5.1.10)-1*
G04 #@! TF.CreationDate,2021-06-20T22:47:18+04:00*
G04 #@! TF.ProjectId,pico-expansion-long-board,7069636f-2d65-4787-9061-6e73696f6e2d,rev?*
G04 #@! TF.SameCoordinates,Original*
G04 #@! TF.FileFunction,Copper,L1,Top*
G04 #@! TF.FilePolarity,Positive*
%FSLAX46Y46*%
G04 Gerber Fmt 4.6, Leading zero omitted, Abs format (unit mm)*
G04 Created by KiCad (PCBNEW (5.1.10)-1) date 2021-06-20 22:47:18*
%MOMM*%
%LPD*%
G01*
G04 APERTURE LIST*
G04 #@! TA.AperFunction,ComponentPad*
%ADD10C,2.000000*%
G04 #@! TD*
G04 #@! TA.AperFunction,ComponentPad*
%ADD11O,1.700000X1.700000*%
G04 #@! TD*
G04 #@! TA.AperFunction,ComponentPad*
%ADD12R,1.700000X1.700000*%
G04 #@! TD*
G04 #@! TA.AperFunction,SMDPad,CuDef*
%ADD13R,1.700000X3.500000*%
G04 #@! TD*
G04 #@! TA.AperFunction,SMDPad,CuDef*
%ADD14R,3.500000X1.700000*%
G04 #@! TD*
G04 #@! TA.AperFunction,Conductor*
%ADD15C,0.800000*%
G04 #@! TD*
G04 #@! TA.AperFunction,Conductor*
%ADD16C,0.254000*%
G04 #@! TD*
G04 #@! TA.AperFunction,Conductor*
%ADD17C,0.020000*%
G04 #@! TD*
G04 APERTURE END LIST*
D10*
X126000000Y-61500000D03*
X130500000Y-61500000D03*
X126000000Y-68000000D03*
X130500000Y-68000000D03*
D11*
X117560000Y-83000000D03*
X115020000Y-83000000D03*
X112480000Y-83000000D03*
X109940000Y-83000000D03*
X107400000Y-83000000D03*
X104860000Y-83000000D03*
X102320000Y-83000000D03*
X99780000Y-83000000D03*
X97240000Y-83000000D03*
X94700000Y-83000000D03*
X92160000Y-83000000D03*
X89620000Y-83000000D03*
X87080000Y-83000000D03*
X84540000Y-83000000D03*
X82000000Y-83000000D03*
X79460000Y-83000000D03*
X76920000Y-83000000D03*
X74380000Y-83000000D03*
X71840000Y-83000000D03*
D12*
X69300000Y-83000000D03*
X69300000Y-46000000D03*
D11*
X71840000Y-46000000D03*
X74380000Y-46000000D03*
X76920000Y-46000000D03*
X79460000Y-46000000D03*
X82000000Y-46000000D03*
X84540000Y-46000000D03*
X87080000Y-46000000D03*
X89620000Y-46000000D03*
X92160000Y-46000000D03*
X94700000Y-46000000D03*
X97240000Y-46000000D03*
X99780000Y-46000000D03*
X102320000Y-46000000D03*
X104860000Y-46000000D03*
X107400000Y-46000000D03*
X109940000Y-46000000D03*
X112480000Y-46000000D03*
X115020000Y-46000000D03*
X117560000Y-46000000D03*
X69270000Y-73390000D03*
X71810000Y-73390000D03*
D12*
X74350000Y-73390000D03*
D11*
X76890000Y-73390000D03*
X79430000Y-73390000D03*
X81970000Y-73390000D03*
X84510000Y-73390000D03*
D12*
X87050000Y-73390000D03*
D11*
X89590000Y-73390000D03*
X92130000Y-73390000D03*
X94670000Y-73390000D03*
X97210000Y-73390000D03*
D12*
X99750000Y-73390000D03*
D11*
X102290000Y-73390000D03*
X104830000Y-73390000D03*
X107370000Y-73390000D03*
X109910000Y-73390000D03*
D12*
X112450000Y-73390000D03*
D11*
X114990000Y-73390000D03*
X117530000Y-73390000D03*
X117530000Y-55610000D03*
X114990000Y-55610000D03*
D12*
X112450000Y-55610000D03*
D11*
X109910000Y-55610000D03*
X107370000Y-55610000D03*
X104830000Y-55610000D03*
X102290000Y-55610000D03*
D12*
X99750000Y-55610000D03*
D11*
X97210000Y-55610000D03*
X94670000Y-55610000D03*
X92130000Y-55610000D03*
X89590000Y-55610000D03*
D12*
X87050000Y-55610000D03*
D11*
X84510000Y-55610000D03*
X81970000Y-55610000D03*
X79430000Y-55610000D03*
X76890000Y-55610000D03*
D12*
X74350000Y-55610000D03*
D11*
X71810000Y-55610000D03*
X69270000Y-55610000D03*
D13*
X69270000Y-74290000D03*
X71810000Y-74290000D03*
X74350000Y-74290000D03*
X76890000Y-74290000D03*
X79430000Y-74290000D03*
X81970000Y-74290000D03*
X84510000Y-74290000D03*
X87050000Y-74290000D03*
X89590000Y-74290000D03*
X92130000Y-74290000D03*
X94670000Y-74290000D03*
X97210000Y-74290000D03*
X99750000Y-74290000D03*
X102290000Y-74290000D03*
X104830000Y-74290000D03*
X107370000Y-74290000D03*
X109910000Y-74290000D03*
X112450000Y-74290000D03*
X114990000Y-74290000D03*
X117530000Y-74290000D03*
X69270000Y-54710000D03*
X71810000Y-54710000D03*
X74350000Y-54710000D03*
X76890000Y-54710000D03*
X79430000Y-54710000D03*
X81970000Y-54710000D03*
X84510000Y-54710000D03*
X87050000Y-54710000D03*
X89590000Y-54710000D03*
X92130000Y-54710000D03*
X94670000Y-54710000D03*
X97210000Y-54710000D03*
X99750000Y-54710000D03*
X102290000Y-54710000D03*
X104830000Y-54710000D03*
X107370000Y-54710000D03*
X109910000Y-54710000D03*
X112450000Y-54710000D03*
X114990000Y-54710000D03*
X117530000Y-54710000D03*
D14*
X118200000Y-67040000D03*
D11*
X117300000Y-67040000D03*
D14*
X118200000Y-64500000D03*
D12*
X117300000Y-64500000D03*
D14*
X118200000Y-61960000D03*
D11*
X117300000Y-61960000D03*
D15*
X69270000Y-82970000D02*
X69300000Y-83000000D01*
X69270000Y-73390000D02*
X69270000Y-82970000D01*
X71810000Y-82970000D02*
X71840000Y-83000000D01*
X71810000Y-73390000D02*
X71810000Y-82970000D01*
X74350000Y-82970000D02*
X74380000Y-83000000D01*
X74350000Y-73390000D02*
X74350000Y-82970000D01*
X76890000Y-82970000D02*
X76920000Y-83000000D01*
X76890000Y-73390000D02*
X76890000Y-82970000D01*
X79430000Y-82970000D02*
X79460000Y-83000000D01*
X79430000Y-73390000D02*
X79430000Y-82970000D01*
X81970000Y-82970000D02*
X82000000Y-83000000D01*
X81970000Y-73390000D02*
X81970000Y-82970000D01*
X84510000Y-82970000D02*
X84540000Y-83000000D01*
X84510000Y-73390000D02*
X84510000Y-82970000D01*
X87050000Y-82970000D02*
X87080000Y-83000000D01*
X87050000Y-73390000D02*
X87050000Y-82970000D01*
X89590000Y-82970000D02*
X89620000Y-83000000D01*
X89590000Y-73390000D02*
X89590000Y-82970000D01*
X92130000Y-82970000D02*
X92160000Y-83000000D01*
X92130000Y-73390000D02*
X92130000Y-82970000D01*
X94670000Y-82970000D02*
X94700000Y-83000000D01*
X94670000Y-73390000D02*
X94670000Y-82970000D01*
X97210000Y-82970000D02*
X97240000Y-83000000D01*
X97210000Y-73390000D02*
X97210000Y-82970000D01*
X99750000Y-82970000D02*
X99780000Y-83000000D01*
X99750000Y-73390000D02*
X99750000Y-82970000D01*
X102290000Y-82970000D02*
X102320000Y-83000000D01*
X102290000Y-73390000D02*
X102290000Y-82970000D01*
X104830000Y-82970000D02*
X104860000Y-83000000D01*
X104830000Y-73390000D02*
X104830000Y-82970000D01*
X107370000Y-82970000D02*
X107400000Y-83000000D01*
X107370000Y-73390000D02*
X107370000Y-82970000D01*
X109910000Y-82970000D02*
X109940000Y-83000000D01*
X109910000Y-73390000D02*
X109910000Y-82970000D01*
X112450000Y-82970000D02*
X112480000Y-83000000D01*
X112450000Y-73390000D02*
X112450000Y-82970000D01*
X114990000Y-82970000D02*
X115020000Y-83000000D01*
X114990000Y-73390000D02*
X114990000Y-82970000D01*
X117530000Y-82970000D02*
X117560000Y-83000000D01*
X117530000Y-73390000D02*
X117530000Y-82970000D01*
X69300000Y-55580000D02*
X69270000Y-55610000D01*
X69300000Y-46000000D02*
X69300000Y-55580000D01*
X71840000Y-55580000D02*
X71810000Y-55610000D01*
X71840000Y-46000000D02*
X71840000Y-55580000D01*
X74380000Y-55580000D02*
X74350000Y-55610000D01*
X74380000Y-46000000D02*
X74380000Y-55580000D01*
X76920000Y-55580000D02*
X76890000Y-55610000D01*
X76920000Y-46000000D02*
X76920000Y-55580000D01*
X79460000Y-55580000D02*
X79430000Y-55610000D01*
X79460000Y-46000000D02*
X79460000Y-55580000D01*
X82000000Y-55580000D02*
X81970000Y-55610000D01*
X82000000Y-46000000D02*
X82000000Y-55580000D01*
X84540000Y-55580000D02*
X84510000Y-55610000D01*
X84540000Y-46000000D02*
X84540000Y-55580000D01*
X87080000Y-55580000D02*
X87050000Y-55610000D01*
X87080000Y-46000000D02*
X87080000Y-55580000D01*
X89620000Y-55580000D02*
X89590000Y-55610000D01*
X89620000Y-46000000D02*
X89620000Y-55580000D01*
X92160000Y-55580000D02*
X92130000Y-55610000D01*
X92160000Y-46000000D02*
X92160000Y-55580000D01*
X94700000Y-55580000D02*
X94670000Y-55610000D01*
X94700000Y-46000000D02*
X94700000Y-55580000D01*
X97210000Y-46030000D02*
X97240000Y-46000000D01*
X97210000Y-55610000D02*
X97210000Y-46030000D01*
X99750000Y-46030000D02*
X99780000Y-46000000D01*
X99750000Y-55610000D02*
X99750000Y-46030000D01*
X102290000Y-46030000D02*
X102320000Y-46000000D01*
X102290000Y-55610000D02*
X102290000Y-46030000D01*
X104830000Y-46030000D02*
X104860000Y-46000000D01*
X104830000Y-55610000D02*
X104830000Y-46030000D01*
X107370000Y-46030000D02*
X107400000Y-46000000D01*
X107370000Y-55610000D02*
X107370000Y-46030000D01*
X109910000Y-46030000D02*
X109940000Y-46000000D01*
X109910000Y-55610000D02*
X109910000Y-46030000D01*
X112450000Y-46030000D02*
X112480000Y-46000000D01*
X112450000Y-55610000D02*
X112450000Y-46030000D01*
X94670000Y-56812081D02*
X94670000Y-55610000D01*
X96857919Y-59000000D02*
X94670000Y-56812081D01*
X123500000Y-59000000D02*
X96857919Y-59000000D01*
X126000000Y-61500000D02*
X123500000Y-59000000D01*
X114990000Y-46030000D02*
X115020000Y-46000000D01*
X114990000Y-55610000D02*
X114990000Y-46030000D01*
X117530000Y-46030000D02*
X117560000Y-46000000D01*
X117530000Y-55610000D02*
X117530000Y-46030000D01*
D16*
X130453893Y-40707670D02*
X130890498Y-40839489D01*
X131293185Y-41053600D01*
X131646612Y-41341848D01*
X131937327Y-41693261D01*
X132154242Y-42094439D01*
X132289106Y-42530113D01*
X132340000Y-43014344D01*
X132340001Y-85967711D01*
X132292330Y-86453894D01*
X132160512Y-86890497D01*
X131946399Y-87293186D01*
X131658150Y-87646613D01*
X131306739Y-87937327D01*
X130905564Y-88154240D01*
X130469886Y-88289106D01*
X129985664Y-88340000D01*
X68532279Y-88340000D01*
X68046106Y-88292330D01*
X67609503Y-88160512D01*
X67206814Y-87946399D01*
X66853387Y-87658150D01*
X66562673Y-87306739D01*
X66345760Y-86905564D01*
X66210894Y-86469886D01*
X66160000Y-85985664D01*
X66160000Y-72540000D01*
X67781928Y-72540000D01*
X67781928Y-76040000D01*
X67794188Y-76164482D01*
X67830498Y-76284180D01*
X67889463Y-76394494D01*
X67968815Y-76491185D01*
X68065506Y-76570537D01*
X68175820Y-76629502D01*
X68235000Y-76647454D01*
X68235001Y-81551646D01*
X68205820Y-81560498D01*
X68095506Y-81619463D01*
X67998815Y-81698815D01*
X67919463Y-81795506D01*
X67860498Y-81905820D01*
X67824188Y-82025518D01*
X67811928Y-82150000D01*
X67811928Y-83850000D01*
X67824188Y-83974482D01*
X67860498Y-84094180D01*
X67919463Y-84204494D01*
X67998815Y-84301185D01*
X68095506Y-84380537D01*
X68205820Y-84439502D01*
X68325518Y-84475812D01*
X68450000Y-84488072D01*
X70150000Y-84488072D01*
X70274482Y-84475812D01*
X70394180Y-84439502D01*
X70504494Y-84380537D01*
X70601185Y-84301185D01*
X70680537Y-84204494D01*
X70739502Y-84094180D01*
X70761513Y-84021620D01*
X70893368Y-84153475D01*
X71136589Y-84315990D01*
X71406842Y-84427932D01*
X71693740Y-84485000D01*
X71986260Y-84485000D01*
X72273158Y-84427932D01*
X72543411Y-84315990D01*
X72786632Y-84153475D01*
X72993475Y-83946632D01*
X73115195Y-83764466D01*
X73184822Y-83881355D01*
X73379731Y-84097588D01*
X73613080Y-84271641D01*
X73875901Y-84396825D01*
X74023110Y-84441476D01*
X74253000Y-84320155D01*
X74253000Y-84027498D01*
X74379999Y-84040006D01*
X74507000Y-84027498D01*
X74507000Y-84320155D01*
X74736890Y-84441476D01*
X74884099Y-84396825D01*
X75146920Y-84271641D01*
X75380269Y-84097588D01*
X75575178Y-83881355D01*
X75644805Y-83764466D01*
X75766525Y-83946632D01*
X75973368Y-84153475D01*
X76216589Y-84315990D01*
X76486842Y-84427932D01*
X76773740Y-84485000D01*
X77066260Y-84485000D01*
X77353158Y-84427932D01*
X77623411Y-84315990D01*
X77866632Y-84153475D01*
X78073475Y-83946632D01*
X78190000Y-83772240D01*
X78306525Y-83946632D01*
X78513368Y-84153475D01*
X78756589Y-84315990D01*
X79026842Y-84427932D01*
X79313740Y-84485000D01*
X79606260Y-84485000D01*
X79893158Y-84427932D01*
X80163411Y-84315990D01*
X80406632Y-84153475D01*
X80613475Y-83946632D01*
X80730000Y-83772240D01*
X80846525Y-83946632D01*
X81053368Y-84153475D01*
X81296589Y-84315990D01*
X81566842Y-84427932D01*
X81853740Y-84485000D01*
X82146260Y-84485000D01*
X82433158Y-84427932D01*
X82703411Y-84315990D01*
X82946632Y-84153475D01*
X83153475Y-83946632D01*
X83270000Y-83772240D01*
X83386525Y-83946632D01*
X83593368Y-84153475D01*
X83836589Y-84315990D01*
X84106842Y-84427932D01*
X84393740Y-84485000D01*
X84686260Y-84485000D01*
X84973158Y-84427932D01*
X85243411Y-84315990D01*
X85486632Y-84153475D01*
X85693475Y-83946632D01*
X85815195Y-83764466D01*
X85884822Y-83881355D01*
X86079731Y-84097588D01*
X86313080Y-84271641D01*
X86575901Y-84396825D01*
X86723110Y-84441476D01*
X86953000Y-84320155D01*
X86953000Y-84027498D01*
X87079999Y-84040006D01*
X87207000Y-84027498D01*
X87207000Y-84320155D01*
X87436890Y-84441476D01*
X87584099Y-84396825D01*
X87846920Y-84271641D01*
X88080269Y-84097588D01*
X88275178Y-83881355D01*
X88344805Y-83764466D01*
X88466525Y-83946632D01*
X88673368Y-84153475D01*
X88916589Y-84315990D01*
X89186842Y-84427932D01*
X89473740Y-84485000D01*
X89766260Y-84485000D01*
X90053158Y-84427932D01*
X90323411Y-84315990D01*
X90566632Y-84153475D01*
X90773475Y-83946632D01*
X90890000Y-83772240D01*
X91006525Y-83946632D01*
X91213368Y-84153475D01*
X91456589Y-84315990D01*
X91726842Y-84427932D01*
X92013740Y-84485000D01*
X92306260Y-84485000D01*
X92593158Y-84427932D01*
X92863411Y-84315990D01*
X93106632Y-84153475D01*
X93313475Y-83946632D01*
X93430000Y-83772240D01*
X93546525Y-83946632D01*
X93753368Y-84153475D01*
X93996589Y-84315990D01*
X94266842Y-84427932D01*
X94553740Y-84485000D01*
X94846260Y-84485000D01*
X95133158Y-84427932D01*
X95403411Y-84315990D01*
X95646632Y-84153475D01*
X95853475Y-83946632D01*
X95970000Y-83772240D01*
X96086525Y-83946632D01*
X96293368Y-84153475D01*
X96536589Y-84315990D01*
X96806842Y-84427932D01*
X97093740Y-84485000D01*
X97386260Y-84485000D01*
X97673158Y-84427932D01*
X97943411Y-84315990D01*
X98186632Y-84153475D01*
X98393475Y-83946632D01*
X98515195Y-83764466D01*
X98584822Y-83881355D01*
X98779731Y-84097588D01*
X99013080Y-84271641D01*
X99275901Y-84396825D01*
X99423110Y-84441476D01*
X99653000Y-84320155D01*
X99653000Y-84027498D01*
X99779999Y-84040006D01*
X99907000Y-84027498D01*
X99907000Y-84320155D01*
X100136890Y-84441476D01*
X100284099Y-84396825D01*
X100546920Y-84271641D01*
X100780269Y-84097588D01*
X100975178Y-83881355D01*
X101044805Y-83764466D01*
X101166525Y-83946632D01*
X101373368Y-84153475D01*
X101616589Y-84315990D01*
X101886842Y-84427932D01*
X102173740Y-84485000D01*
X102466260Y-84485000D01*
X102753158Y-84427932D01*
X103023411Y-84315990D01*
X103266632Y-84153475D01*
X103473475Y-83946632D01*
X103590000Y-83772240D01*
X103706525Y-83946632D01*
X103913368Y-84153475D01*
X104156589Y-84315990D01*
X104426842Y-84427932D01*
X104713740Y-84485000D01*
X105006260Y-84485000D01*
X105293158Y-84427932D01*
X105563411Y-84315990D01*
X105806632Y-84153475D01*
X106013475Y-83946632D01*
X106130000Y-83772240D01*
X106246525Y-83946632D01*
X106453368Y-84153475D01*
X106696589Y-84315990D01*
X106966842Y-84427932D01*
X107253740Y-84485000D01*
X107546260Y-84485000D01*
X107833158Y-84427932D01*
X108103411Y-84315990D01*
X108346632Y-84153475D01*
X108553475Y-83946632D01*
X108670000Y-83772240D01*
X108786525Y-83946632D01*
X108993368Y-84153475D01*
X109236589Y-84315990D01*
X109506842Y-84427932D01*
X109793740Y-84485000D01*
X110086260Y-84485000D01*
X110373158Y-84427932D01*
X110643411Y-84315990D01*
X110886632Y-84153475D01*
X111093475Y-83946632D01*
X111215195Y-83764466D01*
X111284822Y-83881355D01*
X111479731Y-84097588D01*
X111713080Y-84271641D01*
X111975901Y-84396825D01*
X112123110Y-84441476D01*
X112353000Y-84320155D01*
X112353000Y-84027498D01*
X112479999Y-84040006D01*
X112607000Y-84027498D01*
X112607000Y-84320155D01*
X112836890Y-84441476D01*
X112984099Y-84396825D01*
X113246920Y-84271641D01*
X113480269Y-84097588D01*
X113675178Y-83881355D01*
X113744805Y-83764466D01*
X113866525Y-83946632D01*
X114073368Y-84153475D01*
X114316589Y-84315990D01*
X114586842Y-84427932D01*
X114873740Y-84485000D01*
X115166260Y-84485000D01*
X115453158Y-84427932D01*
X115723411Y-84315990D01*
X115966632Y-84153475D01*
X116173475Y-83946632D01*
X116290000Y-83772240D01*
X116406525Y-83946632D01*
X116613368Y-84153475D01*
X116856589Y-84315990D01*
X117126842Y-84427932D01*
X117413740Y-84485000D01*
X117706260Y-84485000D01*
X117993158Y-84427932D01*
X118263411Y-84315990D01*
X118506632Y-84153475D01*
X118713475Y-83946632D01*
X118875990Y-83703411D01*
X118987932Y-83433158D01*
X119045000Y-83146260D01*
X119045000Y-82853740D01*
X118987932Y-82566842D01*
X118875990Y-82296589D01*
X118713475Y-82053368D01*
X118565000Y-81904893D01*
X118565000Y-76647454D01*
X118624180Y-76629502D01*
X118734494Y-76570537D01*
X118831185Y-76491185D01*
X118910537Y-76394494D01*
X118969502Y-76284180D01*
X119005812Y-76164482D01*
X119018072Y-76040000D01*
X119018072Y-72540000D01*
X119005812Y-72415518D01*
X118969502Y-72295820D01*
X118910537Y-72185506D01*
X118831185Y-72088815D01*
X118734494Y-72009463D01*
X118624180Y-71950498D01*
X118504482Y-71914188D01*
X118380000Y-71901928D01*
X116680000Y-71901928D01*
X116555518Y-71914188D01*
X116435820Y-71950498D01*
X116325506Y-72009463D01*
X116260000Y-72063222D01*
X116194494Y-72009463D01*
X116084180Y-71950498D01*
X115964482Y-71914188D01*
X115840000Y-71901928D01*
X114140000Y-71901928D01*
X114015518Y-71914188D01*
X113895820Y-71950498D01*
X113785506Y-72009463D01*
X113720000Y-72063222D01*
X113654494Y-72009463D01*
X113544180Y-71950498D01*
X113424482Y-71914188D01*
X113300000Y-71901928D01*
X111600000Y-71901928D01*
X111475518Y-71914188D01*
X111355820Y-71950498D01*
X111245506Y-72009463D01*
X111180000Y-72063222D01*
X111114494Y-72009463D01*
X111004180Y-71950498D01*
X110884482Y-71914188D01*
X110760000Y-71901928D01*
X109060000Y-71901928D01*
X108935518Y-71914188D01*
X108815820Y-71950498D01*
X108705506Y-72009463D01*
X108640000Y-72063222D01*
X108574494Y-72009463D01*
X108464180Y-71950498D01*
X108344482Y-71914188D01*
X108220000Y-71901928D01*
X106520000Y-71901928D01*
X106395518Y-71914188D01*
X106275820Y-71950498D01*
X106165506Y-72009463D01*
X106100000Y-72063222D01*
X106034494Y-72009463D01*
X105924180Y-71950498D01*
X105804482Y-71914188D01*
X105680000Y-71901928D01*
X103980000Y-71901928D01*
X103855518Y-71914188D01*
X103735820Y-71950498D01*
X103625506Y-72009463D01*
X103560000Y-72063222D01*
X103494494Y-72009463D01*
X103384180Y-71950498D01*
X103264482Y-71914188D01*
X103140000Y-71901928D01*
X101440000Y-71901928D01*
X101315518Y-71914188D01*
X101195820Y-71950498D01*
X101085506Y-72009463D01*
X101020000Y-72063222D01*
X100954494Y-72009463D01*
X100844180Y-71950498D01*
X100724482Y-71914188D01*
X100600000Y-71901928D01*
X98900000Y-71901928D01*
X98775518Y-71914188D01*
X98655820Y-71950498D01*
X98545506Y-72009463D01*
X98480000Y-72063222D01*
X98414494Y-72009463D01*
X98304180Y-71950498D01*
X98184482Y-71914188D01*
X98060000Y-71901928D01*
X96360000Y-71901928D01*
X96235518Y-71914188D01*
X96115820Y-71950498D01*
X96005506Y-72009463D01*
X95940000Y-72063222D01*
X95874494Y-72009463D01*
X95764180Y-71950498D01*
X95644482Y-71914188D01*
X95520000Y-71901928D01*
X93820000Y-71901928D01*
X93695518Y-71914188D01*
X93575820Y-71950498D01*
X93465506Y-72009463D01*
X93400000Y-72063222D01*
X93334494Y-72009463D01*
X93224180Y-71950498D01*
X93104482Y-71914188D01*
X92980000Y-71901928D01*
X91280000Y-71901928D01*
X91155518Y-71914188D01*
X91035820Y-71950498D01*
X90925506Y-72009463D01*
X90860000Y-72063222D01*
X90794494Y-72009463D01*
X90684180Y-71950498D01*
X90564482Y-71914188D01*
X90440000Y-71901928D01*
X88740000Y-71901928D01*
X88615518Y-71914188D01*
X88495820Y-71950498D01*
X88385506Y-72009463D01*
X88320000Y-72063222D01*
X88254494Y-72009463D01*
X88144180Y-71950498D01*
X88024482Y-71914188D01*
X87900000Y-71901928D01*
X86200000Y-71901928D01*
X86075518Y-71914188D01*
X85955820Y-71950498D01*
X85845506Y-72009463D01*
X85780000Y-72063222D01*
X85714494Y-72009463D01*
X85604180Y-71950498D01*
X85484482Y-71914188D01*
X85360000Y-71901928D01*
X83660000Y-71901928D01*
X83535518Y-71914188D01*
X83415820Y-71950498D01*
X83305506Y-72009463D01*
X83240000Y-72063222D01*
X83174494Y-72009463D01*
X83064180Y-71950498D01*
X82944482Y-71914188D01*
X82820000Y-71901928D01*
X81120000Y-71901928D01*
X80995518Y-71914188D01*
X80875820Y-71950498D01*
X80765506Y-72009463D01*
X80700000Y-72063222D01*
X80634494Y-72009463D01*
X80524180Y-71950498D01*
X80404482Y-71914188D01*
X80280000Y-71901928D01*
X78580000Y-71901928D01*
X78455518Y-71914188D01*
X78335820Y-71950498D01*
X78225506Y-72009463D01*
X78160000Y-72063222D01*
X78094494Y-72009463D01*
X77984180Y-71950498D01*
X77864482Y-71914188D01*
X77740000Y-71901928D01*
X76040000Y-71901928D01*
X75915518Y-71914188D01*
X75795820Y-71950498D01*
X75685506Y-72009463D01*
X75620000Y-72063222D01*
X75554494Y-72009463D01*
X75444180Y-71950498D01*
X75324482Y-71914188D01*
X75200000Y-71901928D01*
X73500000Y-71901928D01*
X73375518Y-71914188D01*
X73255820Y-71950498D01*
X73145506Y-72009463D01*
X73080000Y-72063222D01*
X73014494Y-72009463D01*
X72904180Y-71950498D01*
X72784482Y-71914188D01*
X72660000Y-71901928D01*
X70960000Y-71901928D01*
X70835518Y-71914188D01*
X70715820Y-71950498D01*
X70605506Y-72009463D01*
X70540000Y-72063222D01*
X70474494Y-72009463D01*
X70364180Y-71950498D01*
X70244482Y-71914188D01*
X70120000Y-71901928D01*
X68420000Y-71901928D01*
X68295518Y-71914188D01*
X68175820Y-71950498D01*
X68065506Y-72009463D01*
X67968815Y-72088815D01*
X67889463Y-72185506D01*
X67830498Y-72295820D01*
X67794188Y-72415518D01*
X67781928Y-72540000D01*
X66160000Y-72540000D01*
X66160000Y-67073816D01*
X67865000Y-67073816D01*
X67865000Y-67376184D01*
X67923989Y-67672743D01*
X68039701Y-67952095D01*
X68207688Y-68203505D01*
X68421495Y-68417312D01*
X68672905Y-68585299D01*
X68952257Y-68701011D01*
X69248816Y-68760000D01*
X69551184Y-68760000D01*
X69847743Y-68701011D01*
X70127095Y-68585299D01*
X70378505Y-68417312D01*
X70592312Y-68203505D01*
X70760299Y-67952095D01*
X70876011Y-67672743D01*
X70935000Y-67376184D01*
X70935000Y-67073816D01*
X70878266Y-66788589D01*
X71045000Y-66788589D01*
X71045000Y-67061411D01*
X71098225Y-67328989D01*
X71202629Y-67581043D01*
X71354201Y-67807886D01*
X71547114Y-68000799D01*
X71773957Y-68152371D01*
X72026011Y-68256775D01*
X72293589Y-68310000D01*
X72566411Y-68310000D01*
X72833989Y-68256775D01*
X73086043Y-68152371D01*
X73312886Y-68000799D01*
X73505799Y-67807886D01*
X73657371Y-67581043D01*
X73761775Y-67328989D01*
X73815000Y-67061411D01*
X73815000Y-66788589D01*
X73761775Y-66521011D01*
X73657371Y-66268957D01*
X73505799Y-66042114D01*
X73312886Y-65849201D01*
X73086043Y-65697629D01*
X72833989Y-65593225D01*
X72566411Y-65540000D01*
X72293589Y-65540000D01*
X72026011Y-65593225D01*
X71773957Y-65697629D01*
X71547114Y-65849201D01*
X71354201Y-66042114D01*
X71202629Y-66268957D01*
X71098225Y-66521011D01*
X71045000Y-66788589D01*
X70878266Y-66788589D01*
X70876011Y-66777257D01*
X70760299Y-66497905D01*
X70592312Y-66246495D01*
X70378505Y-66032688D01*
X70127095Y-65864701D01*
X69847743Y-65748989D01*
X69551184Y-65690000D01*
X69248816Y-65690000D01*
X68952257Y-65748989D01*
X68672905Y-65864701D01*
X68421495Y-66032688D01*
X68207688Y-66246495D01*
X68039701Y-66497905D01*
X67923989Y-66777257D01*
X67865000Y-67073816D01*
X66160000Y-67073816D01*
X66160000Y-61623816D01*
X67865000Y-61623816D01*
X67865000Y-61926184D01*
X67923989Y-62222743D01*
X68039701Y-62502095D01*
X68207688Y-62753505D01*
X68421495Y-62967312D01*
X68672905Y-63135299D01*
X68952257Y-63251011D01*
X69248816Y-63310000D01*
X69551184Y-63310000D01*
X69847743Y-63251011D01*
X70127095Y-63135299D01*
X70378505Y-62967312D01*
X70592312Y-62753505D01*
X70760299Y-62502095D01*
X70876011Y-62222743D01*
X70932532Y-61938589D01*
X71045000Y-61938589D01*
X71045000Y-62211411D01*
X71098225Y-62478989D01*
X71202629Y-62731043D01*
X71354201Y-62957886D01*
X71547114Y-63150799D01*
X71773957Y-63302371D01*
X72026011Y-63406775D01*
X72293589Y-63460000D01*
X72566411Y-63460000D01*
X72833989Y-63406775D01*
X73086043Y-63302371D01*
X73312886Y-63150799D01*
X73505799Y-62957886D01*
X73657371Y-62731043D01*
X73761775Y-62478989D01*
X73815000Y-62211411D01*
X73815000Y-61938589D01*
X73761775Y-61671011D01*
X73657371Y-61418957D01*
X73505799Y-61192114D01*
X73423685Y-61110000D01*
X115811928Y-61110000D01*
X115811928Y-62810000D01*
X115824188Y-62934482D01*
X115860498Y-63054180D01*
X115919463Y-63164494D01*
X115973222Y-63230000D01*
X115919463Y-63295506D01*
X115860498Y-63405820D01*
X115824188Y-63525518D01*
X115811928Y-63650000D01*
X115811928Y-65350000D01*
X115824188Y-65474482D01*
X115860498Y-65594180D01*
X115919463Y-65704494D01*
X115973222Y-65770000D01*
X115919463Y-65835506D01*
X115860498Y-65945820D01*
X115824188Y-66065518D01*
X115811928Y-66190000D01*
X115811928Y-67890000D01*
X115824188Y-68014482D01*
X115860498Y-68134180D01*
X115919463Y-68244494D01*
X115998815Y-68341185D01*
X116095506Y-68420537D01*
X116205820Y-68479502D01*
X116325518Y-68515812D01*
X116450000Y-68528072D01*
X119950000Y-68528072D01*
X120074482Y-68515812D01*
X120194180Y-68479502D01*
X120304494Y-68420537D01*
X120401185Y-68341185D01*
X120480537Y-68244494D01*
X120539502Y-68134180D01*
X120575812Y-68014482D01*
X120588072Y-67890000D01*
X120588072Y-67838967D01*
X124365000Y-67838967D01*
X124365000Y-68161033D01*
X124427832Y-68476912D01*
X124551082Y-68774463D01*
X124730013Y-69042252D01*
X124957748Y-69269987D01*
X125225537Y-69448918D01*
X125523088Y-69572168D01*
X125838967Y-69635000D01*
X126161033Y-69635000D01*
X126476912Y-69572168D01*
X126774463Y-69448918D01*
X127042252Y-69269987D01*
X127176826Y-69135413D01*
X129544192Y-69135413D01*
X129639956Y-69399814D01*
X129929571Y-69540704D01*
X130241108Y-69622384D01*
X130562595Y-69641718D01*
X130881675Y-69597961D01*
X131186088Y-69492795D01*
X131360044Y-69399814D01*
X131455808Y-69135413D01*
X130500000Y-68179605D01*
X129544192Y-69135413D01*
X127176826Y-69135413D01*
X127269987Y-69042252D01*
X127448918Y-68774463D01*
X127572168Y-68476912D01*
X127635000Y-68161033D01*
X127635000Y-68062595D01*
X128858282Y-68062595D01*
X128902039Y-68381675D01*
X129007205Y-68686088D01*
X129100186Y-68860044D01*
X129364587Y-68955808D01*
X130320395Y-68000000D01*
X130679605Y-68000000D01*
X131635413Y-68955808D01*
X131899814Y-68860044D01*
X132040704Y-68570429D01*
X132122384Y-68258892D01*
X132141718Y-67937405D01*
X132097961Y-67618325D01*
X131992795Y-67313912D01*
X131899814Y-67139956D01*
X131635413Y-67044192D01*
X130679605Y-68000000D01*
X130320395Y-68000000D01*
X129364587Y-67044192D01*
X129100186Y-67139956D01*
X128959296Y-67429571D01*
X128877616Y-67741108D01*
X128858282Y-68062595D01*
X127635000Y-68062595D01*
X127635000Y-67838967D01*
X127572168Y-67523088D01*
X127448918Y-67225537D01*
X127269987Y-66957748D01*
X127176826Y-66864587D01*
X129544192Y-66864587D01*
X130500000Y-67820395D01*
X131455808Y-66864587D01*
X131360044Y-66600186D01*
X131070429Y-66459296D01*
X130758892Y-66377616D01*
X130437405Y-66358282D01*
X130118325Y-66402039D01*
X129813912Y-66507205D01*
X129639956Y-66600186D01*
X129544192Y-66864587D01*
X127176826Y-66864587D01*
X127042252Y-66730013D01*
X126774463Y-66551082D01*
X126476912Y-66427832D01*
X126161033Y-66365000D01*
X125838967Y-66365000D01*
X125523088Y-66427832D01*
X125225537Y-66551082D01*
X124957748Y-66730013D01*
X124730013Y-66957748D01*
X124551082Y-67225537D01*
X124427832Y-67523088D01*
X124365000Y-67838967D01*
X120588072Y-67838967D01*
X120588072Y-66190000D01*
X120575812Y-66065518D01*
X120539502Y-65945820D01*
X120480537Y-65835506D01*
X120426778Y-65770000D01*
X120480537Y-65704494D01*
X120539502Y-65594180D01*
X120575812Y-65474482D01*
X120588072Y-65350000D01*
X120588072Y-63650000D01*
X120575812Y-63525518D01*
X120539502Y-63405820D01*
X120480537Y-63295506D01*
X120426778Y-63230000D01*
X120480537Y-63164494D01*
X120539502Y-63054180D01*
X120575812Y-62934482D01*
X120588072Y-62810000D01*
X120588072Y-61110000D01*
X120575812Y-60985518D01*
X120539502Y-60865820D01*
X120480537Y-60755506D01*
X120401185Y-60658815D01*
X120304494Y-60579463D01*
X120194180Y-60520498D01*
X120074482Y-60484188D01*
X119950000Y-60471928D01*
X116450000Y-60471928D01*
X116325518Y-60484188D01*
X116205820Y-60520498D01*
X116095506Y-60579463D01*
X115998815Y-60658815D01*
X115919463Y-60755506D01*
X115860498Y-60865820D01*
X115824188Y-60985518D01*
X115811928Y-61110000D01*
X73423685Y-61110000D01*
X73312886Y-60999201D01*
X73086043Y-60847629D01*
X72833989Y-60743225D01*
X72566411Y-60690000D01*
X72293589Y-60690000D01*
X72026011Y-60743225D01*
X71773957Y-60847629D01*
X71547114Y-60999201D01*
X71354201Y-61192114D01*
X71202629Y-61418957D01*
X71098225Y-61671011D01*
X71045000Y-61938589D01*
X70932532Y-61938589D01*
X70935000Y-61926184D01*
X70935000Y-61623816D01*
X70876011Y-61327257D01*
X70760299Y-61047905D01*
X70592312Y-60796495D01*
X70378505Y-60582688D01*
X70127095Y-60414701D01*
X69847743Y-60298989D01*
X69551184Y-60240000D01*
X69248816Y-60240000D01*
X68952257Y-60298989D01*
X68672905Y-60414701D01*
X68421495Y-60582688D01*
X68207688Y-60796495D01*
X68039701Y-61047905D01*
X67923989Y-61327257D01*
X67865000Y-61623816D01*
X66160000Y-61623816D01*
X66160000Y-52960000D01*
X67781928Y-52960000D01*
X67781928Y-56460000D01*
X67794188Y-56584482D01*
X67830498Y-56704180D01*
X67889463Y-56814494D01*
X67968815Y-56911185D01*
X68065506Y-56990537D01*
X68175820Y-57049502D01*
X68295518Y-57085812D01*
X68420000Y-57098072D01*
X70120000Y-57098072D01*
X70244482Y-57085812D01*
X70364180Y-57049502D01*
X70474494Y-56990537D01*
X70540000Y-56936778D01*
X70605506Y-56990537D01*
X70715820Y-57049502D01*
X70835518Y-57085812D01*
X70960000Y-57098072D01*
X72660000Y-57098072D01*
X72784482Y-57085812D01*
X72904180Y-57049502D01*
X73014494Y-56990537D01*
X73080000Y-56936778D01*
X73145506Y-56990537D01*
X73255820Y-57049502D01*
X73375518Y-57085812D01*
X73500000Y-57098072D01*
X74064250Y-57095000D01*
X74223000Y-56936250D01*
X74223000Y-52483750D01*
X74477000Y-52483750D01*
X74477000Y-56936250D01*
X74635750Y-57095000D01*
X75200000Y-57098072D01*
X75324482Y-57085812D01*
X75444180Y-57049502D01*
X75554494Y-56990537D01*
X75620000Y-56936778D01*
X75685506Y-56990537D01*
X75795820Y-57049502D01*
X75915518Y-57085812D01*
X76040000Y-57098072D01*
X77740000Y-57098072D01*
X77864482Y-57085812D01*
X77984180Y-57049502D01*
X78094494Y-56990537D01*
X78160000Y-56936778D01*
X78225506Y-56990537D01*
X78335820Y-57049502D01*
X78455518Y-57085812D01*
X78580000Y-57098072D01*
X80280000Y-57098072D01*
X80404482Y-57085812D01*
X80524180Y-57049502D01*
X80634494Y-56990537D01*
X80700000Y-56936778D01*
X80765506Y-56990537D01*
X80875820Y-57049502D01*
X80995518Y-57085812D01*
X81120000Y-57098072D01*
X82820000Y-57098072D01*
X82944482Y-57085812D01*
X83064180Y-57049502D01*
X83174494Y-56990537D01*
X83240000Y-56936778D01*
X83305506Y-56990537D01*
X83415820Y-57049502D01*
X83535518Y-57085812D01*
X83660000Y-57098072D01*
X85360000Y-57098072D01*
X85484482Y-57085812D01*
X85604180Y-57049502D01*
X85714494Y-56990537D01*
X85780000Y-56936778D01*
X85845506Y-56990537D01*
X85955820Y-57049502D01*
X86075518Y-57085812D01*
X86200000Y-57098072D01*
X87900000Y-57098072D01*
X88024482Y-57085812D01*
X88144180Y-57049502D01*
X88254494Y-56990537D01*
X88320000Y-56936778D01*
X88385506Y-56990537D01*
X88495820Y-57049502D01*
X88615518Y-57085812D01*
X88740000Y-57098072D01*
X90440000Y-57098072D01*
X90564482Y-57085812D01*
X90684180Y-57049502D01*
X90794494Y-56990537D01*
X90860000Y-56936778D01*
X90925506Y-56990537D01*
X91035820Y-57049502D01*
X91155518Y-57085812D01*
X91280000Y-57098072D01*
X92980000Y-57098072D01*
X93104482Y-57085812D01*
X93224180Y-57049502D01*
X93334494Y-56990537D01*
X93400000Y-56936778D01*
X93465506Y-56990537D01*
X93575820Y-57049502D01*
X93669027Y-57077776D01*
X93709159Y-57210073D01*
X93805266Y-57389878D01*
X93934604Y-57547477D01*
X93974097Y-57579888D01*
X96090115Y-59695907D01*
X96122523Y-59735396D01*
X96162011Y-59767803D01*
X96280121Y-59864734D01*
X96349915Y-59902039D01*
X96459926Y-59960841D01*
X96655024Y-60020024D01*
X96807081Y-60035000D01*
X96807084Y-60035000D01*
X96857919Y-60040007D01*
X96908754Y-60035000D01*
X123071290Y-60035000D01*
X124366702Y-61330412D01*
X124365000Y-61338967D01*
X124365000Y-61661033D01*
X124427832Y-61976912D01*
X124551082Y-62274463D01*
X124730013Y-62542252D01*
X124957748Y-62769987D01*
X125225537Y-62948918D01*
X125523088Y-63072168D01*
X125838967Y-63135000D01*
X126161033Y-63135000D01*
X126476912Y-63072168D01*
X126774463Y-62948918D01*
X127042252Y-62769987D01*
X127176826Y-62635413D01*
X129544192Y-62635413D01*
X129639956Y-62899814D01*
X129929571Y-63040704D01*
X130241108Y-63122384D01*
X130562595Y-63141718D01*
X130881675Y-63097961D01*
X131186088Y-62992795D01*
X131360044Y-62899814D01*
X131455808Y-62635413D01*
X130500000Y-61679605D01*
X129544192Y-62635413D01*
X127176826Y-62635413D01*
X127269987Y-62542252D01*
X127448918Y-62274463D01*
X127572168Y-61976912D01*
X127635000Y-61661033D01*
X127635000Y-61562595D01*
X128858282Y-61562595D01*
X128902039Y-61881675D01*
X129007205Y-62186088D01*
X129100186Y-62360044D01*
X129364587Y-62455808D01*
X130320395Y-61500000D01*
X130679605Y-61500000D01*
X131635413Y-62455808D01*
X131899814Y-62360044D01*
X132040704Y-62070429D01*
X132122384Y-61758892D01*
X132141718Y-61437405D01*
X132097961Y-61118325D01*
X131992795Y-60813912D01*
X131899814Y-60639956D01*
X131635413Y-60544192D01*
X130679605Y-61500000D01*
X130320395Y-61500000D01*
X129364587Y-60544192D01*
X129100186Y-60639956D01*
X128959296Y-60929571D01*
X128877616Y-61241108D01*
X128858282Y-61562595D01*
X127635000Y-61562595D01*
X127635000Y-61338967D01*
X127572168Y-61023088D01*
X127448918Y-60725537D01*
X127269987Y-60457748D01*
X127176826Y-60364587D01*
X129544192Y-60364587D01*
X130500000Y-61320395D01*
X131455808Y-60364587D01*
X131360044Y-60100186D01*
X131070429Y-59959296D01*
X130758892Y-59877616D01*
X130437405Y-59858282D01*
X130118325Y-59902039D01*
X129813912Y-60007205D01*
X129639956Y-60100186D01*
X129544192Y-60364587D01*
X127176826Y-60364587D01*
X127042252Y-60230013D01*
X126774463Y-60051082D01*
X126476912Y-59927832D01*
X126161033Y-59865000D01*
X125838967Y-59865000D01*
X125830412Y-59866702D01*
X124267807Y-58304097D01*
X124235396Y-58264604D01*
X124077797Y-58135266D01*
X123897993Y-58039159D01*
X123702895Y-57979976D01*
X123550838Y-57965000D01*
X123550828Y-57965000D01*
X123500000Y-57959994D01*
X123449172Y-57965000D01*
X97286630Y-57965000D01*
X96419701Y-57098072D01*
X98060000Y-57098072D01*
X98184482Y-57085812D01*
X98304180Y-57049502D01*
X98414494Y-56990537D01*
X98480000Y-56936778D01*
X98545506Y-56990537D01*
X98655820Y-57049502D01*
X98775518Y-57085812D01*
X98900000Y-57098072D01*
X99464250Y-57095000D01*
X99623000Y-56936250D01*
X99623000Y-52483750D01*
X99877000Y-52483750D01*
X99877000Y-56936250D01*
X100035750Y-57095000D01*
X100600000Y-57098072D01*
X100724482Y-57085812D01*
X100844180Y-57049502D01*
X100954494Y-56990537D01*
X101020000Y-56936778D01*
X101085506Y-56990537D01*
X101195820Y-57049502D01*
X101315518Y-57085812D01*
X101440000Y-57098072D01*
X103140000Y-57098072D01*
X103264482Y-57085812D01*
X103384180Y-57049502D01*
X103494494Y-56990537D01*
X103560000Y-56936778D01*
X103625506Y-56990537D01*
X103735820Y-57049502D01*
X103855518Y-57085812D01*
X103980000Y-57098072D01*
X105680000Y-57098072D01*
X105804482Y-57085812D01*
X105924180Y-57049502D01*
X106034494Y-56990537D01*
X106100000Y-56936778D01*
X106165506Y-56990537D01*
X106275820Y-57049502D01*
X106395518Y-57085812D01*
X106520000Y-57098072D01*
X108220000Y-57098072D01*
X108344482Y-57085812D01*
X108464180Y-57049502D01*
X108574494Y-56990537D01*
X108640000Y-56936778D01*
X108705506Y-56990537D01*
X108815820Y-57049502D01*
X108935518Y-57085812D01*
X109060000Y-57098072D01*
X110760000Y-57098072D01*
X110884482Y-57085812D01*
X111004180Y-57049502D01*
X111114494Y-56990537D01*
X111180000Y-56936778D01*
X111245506Y-56990537D01*
X111355820Y-57049502D01*
X111475518Y-57085812D01*
X111600000Y-57098072D01*
X112164250Y-57095000D01*
X112323000Y-56936250D01*
X112323000Y-52483750D01*
X112577000Y-52483750D01*
X112577000Y-56936250D01*
X112735750Y-57095000D01*
X113300000Y-57098072D01*
X113424482Y-57085812D01*
X113544180Y-57049502D01*
X113654494Y-56990537D01*
X113720000Y-56936778D01*
X113785506Y-56990537D01*
X113895820Y-57049502D01*
X114015518Y-57085812D01*
X114140000Y-57098072D01*
X115840000Y-57098072D01*
X115964482Y-57085812D01*
X116084180Y-57049502D01*
X116194494Y-56990537D01*
X116260000Y-56936778D01*
X116325506Y-56990537D01*
X116435820Y-57049502D01*
X116555518Y-57085812D01*
X116680000Y-57098072D01*
X118380000Y-57098072D01*
X118504482Y-57085812D01*
X118624180Y-57049502D01*
X118734494Y-56990537D01*
X118831185Y-56911185D01*
X118910537Y-56814494D01*
X118969502Y-56704180D01*
X119005812Y-56584482D01*
X119018072Y-56460000D01*
X119018072Y-52960000D01*
X119005812Y-52835518D01*
X118969502Y-52715820D01*
X118910537Y-52605506D01*
X118831185Y-52508815D01*
X118734494Y-52429463D01*
X118624180Y-52370498D01*
X118565000Y-52352546D01*
X118565000Y-47095107D01*
X118713475Y-46946632D01*
X118875990Y-46703411D01*
X118987932Y-46433158D01*
X119045000Y-46146260D01*
X119045000Y-45853740D01*
X118987932Y-45566842D01*
X118875990Y-45296589D01*
X118713475Y-45053368D01*
X118506632Y-44846525D01*
X118263411Y-44684010D01*
X117993158Y-44572068D01*
X117706260Y-44515000D01*
X117413740Y-44515000D01*
X117126842Y-44572068D01*
X116856589Y-44684010D01*
X116613368Y-44846525D01*
X116406525Y-45053368D01*
X116290000Y-45227760D01*
X116173475Y-45053368D01*
X115966632Y-44846525D01*
X115723411Y-44684010D01*
X115453158Y-44572068D01*
X115166260Y-44515000D01*
X114873740Y-44515000D01*
X114586842Y-44572068D01*
X114316589Y-44684010D01*
X114073368Y-44846525D01*
X113866525Y-45053368D01*
X113744805Y-45235534D01*
X113675178Y-45118645D01*
X113480269Y-44902412D01*
X113246920Y-44728359D01*
X112984099Y-44603175D01*
X112836890Y-44558524D01*
X112607000Y-44679845D01*
X112607000Y-45873000D01*
X112627000Y-45873000D01*
X112627000Y-46127000D01*
X112607000Y-46127000D01*
X112607000Y-47320155D01*
X112836890Y-47441476D01*
X112984099Y-47396825D01*
X113246920Y-47271641D01*
X113480269Y-47097588D01*
X113675178Y-46881355D01*
X113744805Y-46764466D01*
X113866525Y-46946632D01*
X113955001Y-47035108D01*
X113955000Y-52352546D01*
X113895820Y-52370498D01*
X113785506Y-52429463D01*
X113720000Y-52483222D01*
X113654494Y-52429463D01*
X113544180Y-52370498D01*
X113424482Y-52334188D01*
X113300000Y-52321928D01*
X112735750Y-52325000D01*
X112577000Y-52483750D01*
X112323000Y-52483750D01*
X112164250Y-52325000D01*
X111600000Y-52321928D01*
X111475518Y-52334188D01*
X111355820Y-52370498D01*
X111245506Y-52429463D01*
X111180000Y-52483222D01*
X111114494Y-52429463D01*
X111004180Y-52370498D01*
X110945000Y-52352546D01*
X110945000Y-47095107D01*
X111093475Y-46946632D01*
X111215195Y-46764466D01*
X111284822Y-46881355D01*
X111479731Y-47097588D01*
X111713080Y-47271641D01*
X111975901Y-47396825D01*
X112123110Y-47441476D01*
X112353000Y-47320155D01*
X112353000Y-46127000D01*
X112333000Y-46127000D01*
X112333000Y-45873000D01*
X112353000Y-45873000D01*
X112353000Y-44679845D01*
X112123110Y-44558524D01*
X111975901Y-44603175D01*
X111713080Y-44728359D01*
X111479731Y-44902412D01*
X111284822Y-45118645D01*
X111215195Y-45235534D01*
X111093475Y-45053368D01*
X110886632Y-44846525D01*
X110643411Y-44684010D01*
X110373158Y-44572068D01*
X110086260Y-44515000D01*
X109793740Y-44515000D01*
X109506842Y-44572068D01*
X109236589Y-44684010D01*
X108993368Y-44846525D01*
X108786525Y-45053368D01*
X108670000Y-45227760D01*
X108553475Y-45053368D01*
X108346632Y-44846525D01*
X108103411Y-44684010D01*
X107833158Y-44572068D01*
X107546260Y-44515000D01*
X107253740Y-44515000D01*
X106966842Y-44572068D01*
X106696589Y-44684010D01*
X106453368Y-44846525D01*
X106246525Y-45053368D01*
X106130000Y-45227760D01*
X106013475Y-45053368D01*
X105806632Y-44846525D01*
X105563411Y-44684010D01*
X105293158Y-44572068D01*
X105006260Y-44515000D01*
X104713740Y-44515000D01*
X104426842Y-44572068D01*
X104156589Y-44684010D01*
X103913368Y-44846525D01*
X103706525Y-45053368D01*
X103590000Y-45227760D01*
X103473475Y-45053368D01*
X103266632Y-44846525D01*
X103023411Y-44684010D01*
X102753158Y-44572068D01*
X102466260Y-44515000D01*
X102173740Y-44515000D01*
X101886842Y-44572068D01*
X101616589Y-44684010D01*
X101373368Y-44846525D01*
X101166525Y-45053368D01*
X101044805Y-45235534D01*
X100975178Y-45118645D01*
X100780269Y-44902412D01*
X100546920Y-44728359D01*
X100284099Y-44603175D01*
X100136890Y-44558524D01*
X99907000Y-44679845D01*
X99907000Y-45873000D01*
X99927000Y-45873000D01*
X99927000Y-46127000D01*
X99907000Y-46127000D01*
X99907000Y-47320155D01*
X100136890Y-47441476D01*
X100284099Y-47396825D01*
X100546920Y-47271641D01*
X100780269Y-47097588D01*
X100975178Y-46881355D01*
X101044805Y-46764466D01*
X101166525Y-46946632D01*
X101255001Y-47035108D01*
X101255000Y-52352546D01*
X101195820Y-52370498D01*
X101085506Y-52429463D01*
X101020000Y-52483222D01*
X100954494Y-52429463D01*
X100844180Y-52370498D01*
X100724482Y-52334188D01*
X100600000Y-52321928D01*
X100035750Y-52325000D01*
X99877000Y-52483750D01*
X99623000Y-52483750D01*
X99464250Y-52325000D01*
X98900000Y-52321928D01*
X98775518Y-52334188D01*
X98655820Y-52370498D01*
X98545506Y-52429463D01*
X98480000Y-52483222D01*
X98414494Y-52429463D01*
X98304180Y-52370498D01*
X98245000Y-52352546D01*
X98245000Y-47095107D01*
X98393475Y-46946632D01*
X98515195Y-46764466D01*
X98584822Y-46881355D01*
X98779731Y-47097588D01*
X99013080Y-47271641D01*
X99275901Y-47396825D01*
X99423110Y-47441476D01*
X99653000Y-47320155D01*
X99653000Y-46127000D01*
X99633000Y-46127000D01*
X99633000Y-45873000D01*
X99653000Y-45873000D01*
X99653000Y-44679845D01*
X99423110Y-44558524D01*
X99275901Y-44603175D01*
X99013080Y-44728359D01*
X98779731Y-44902412D01*
X98584822Y-45118645D01*
X98515195Y-45235534D01*
X98393475Y-45053368D01*
X98186632Y-44846525D01*
X97943411Y-44684010D01*
X97673158Y-44572068D01*
X97386260Y-44515000D01*
X97093740Y-44515000D01*
X96806842Y-44572068D01*
X96536589Y-44684010D01*
X96293368Y-44846525D01*
X96086525Y-45053368D01*
X95970000Y-45227760D01*
X95853475Y-45053368D01*
X95646632Y-44846525D01*
X95403411Y-44684010D01*
X95133158Y-44572068D01*
X94846260Y-44515000D01*
X94553740Y-44515000D01*
X94266842Y-44572068D01*
X93996589Y-44684010D01*
X93753368Y-44846525D01*
X93546525Y-45053368D01*
X93430000Y-45227760D01*
X93313475Y-45053368D01*
X93106632Y-44846525D01*
X92863411Y-44684010D01*
X92593158Y-44572068D01*
X92306260Y-44515000D01*
X92013740Y-44515000D01*
X91726842Y-44572068D01*
X91456589Y-44684010D01*
X91213368Y-44846525D01*
X91006525Y-45053368D01*
X90890000Y-45227760D01*
X90773475Y-45053368D01*
X90566632Y-44846525D01*
X90323411Y-44684010D01*
X90053158Y-44572068D01*
X89766260Y-44515000D01*
X89473740Y-44515000D01*
X89186842Y-44572068D01*
X88916589Y-44684010D01*
X88673368Y-44846525D01*
X88466525Y-45053368D01*
X88350000Y-45227760D01*
X88233475Y-45053368D01*
X88026632Y-44846525D01*
X87783411Y-44684010D01*
X87513158Y-44572068D01*
X87226260Y-44515000D01*
X86933740Y-44515000D01*
X86646842Y-44572068D01*
X86376589Y-44684010D01*
X86133368Y-44846525D01*
X85926525Y-45053368D01*
X85810000Y-45227760D01*
X85693475Y-45053368D01*
X85486632Y-44846525D01*
X85243411Y-44684010D01*
X84973158Y-44572068D01*
X84686260Y-44515000D01*
X84393740Y-44515000D01*
X84106842Y-44572068D01*
X83836589Y-44684010D01*
X83593368Y-44846525D01*
X83386525Y-45053368D01*
X83270000Y-45227760D01*
X83153475Y-45053368D01*
X82946632Y-44846525D01*
X82703411Y-44684010D01*
X82433158Y-44572068D01*
X82146260Y-44515000D01*
X81853740Y-44515000D01*
X81566842Y-44572068D01*
X81296589Y-44684010D01*
X81053368Y-44846525D01*
X80846525Y-45053368D01*
X80730000Y-45227760D01*
X80613475Y-45053368D01*
X80406632Y-44846525D01*
X80163411Y-44684010D01*
X79893158Y-44572068D01*
X79606260Y-44515000D01*
X79313740Y-44515000D01*
X79026842Y-44572068D01*
X78756589Y-44684010D01*
X78513368Y-44846525D01*
X78306525Y-45053368D01*
X78190000Y-45227760D01*
X78073475Y-45053368D01*
X77866632Y-44846525D01*
X77623411Y-44684010D01*
X77353158Y-44572068D01*
X77066260Y-44515000D01*
X76773740Y-44515000D01*
X76486842Y-44572068D01*
X76216589Y-44684010D01*
X75973368Y-44846525D01*
X75766525Y-45053368D01*
X75644805Y-45235534D01*
X75575178Y-45118645D01*
X75380269Y-44902412D01*
X75146920Y-44728359D01*
X74884099Y-44603175D01*
X74736890Y-44558524D01*
X74507000Y-44679845D01*
X74507000Y-45873000D01*
X74527000Y-45873000D01*
X74527000Y-46127000D01*
X74507000Y-46127000D01*
X74507000Y-47320155D01*
X74736890Y-47441476D01*
X74884099Y-47396825D01*
X75146920Y-47271641D01*
X75380269Y-47097588D01*
X75575178Y-46881355D01*
X75644805Y-46764466D01*
X75766525Y-46946632D01*
X75885000Y-47065107D01*
X75885001Y-52343445D01*
X75795820Y-52370498D01*
X75685506Y-52429463D01*
X75620000Y-52483222D01*
X75554494Y-52429463D01*
X75444180Y-52370498D01*
X75324482Y-52334188D01*
X75200000Y-52321928D01*
X74635750Y-52325000D01*
X74477000Y-52483750D01*
X74223000Y-52483750D01*
X74064250Y-52325000D01*
X73500000Y-52321928D01*
X73375518Y-52334188D01*
X73255820Y-52370498D01*
X73145506Y-52429463D01*
X73080000Y-52483222D01*
X73014494Y-52429463D01*
X72904180Y-52370498D01*
X72875000Y-52361646D01*
X72875000Y-47065107D01*
X72993475Y-46946632D01*
X73115195Y-46764466D01*
X73184822Y-46881355D01*
X73379731Y-47097588D01*
X73613080Y-47271641D01*
X73875901Y-47396825D01*
X74023110Y-47441476D01*
X74253000Y-47320155D01*
X74253000Y-46127000D01*
X74233000Y-46127000D01*
X74233000Y-45873000D01*
X74253000Y-45873000D01*
X74253000Y-44679845D01*
X74023110Y-44558524D01*
X73875901Y-44603175D01*
X73613080Y-44728359D01*
X73379731Y-44902412D01*
X73184822Y-45118645D01*
X73115195Y-45235534D01*
X72993475Y-45053368D01*
X72786632Y-44846525D01*
X72543411Y-44684010D01*
X72273158Y-44572068D01*
X71986260Y-44515000D01*
X71693740Y-44515000D01*
X71406842Y-44572068D01*
X71136589Y-44684010D01*
X70893368Y-44846525D01*
X70761513Y-44978380D01*
X70739502Y-44905820D01*
X70680537Y-44795506D01*
X70601185Y-44698815D01*
X70504494Y-44619463D01*
X70394180Y-44560498D01*
X70274482Y-44524188D01*
X70150000Y-44511928D01*
X68450000Y-44511928D01*
X68325518Y-44524188D01*
X68205820Y-44560498D01*
X68095506Y-44619463D01*
X67998815Y-44698815D01*
X67919463Y-44795506D01*
X67860498Y-44905820D01*
X67824188Y-45025518D01*
X67811928Y-45150000D01*
X67811928Y-46850000D01*
X67824188Y-46974482D01*
X67860498Y-47094180D01*
X67919463Y-47204494D01*
X67998815Y-47301185D01*
X68095506Y-47380537D01*
X68205820Y-47439502D01*
X68265000Y-47457454D01*
X68265001Y-52343445D01*
X68175820Y-52370498D01*
X68065506Y-52429463D01*
X67968815Y-52508815D01*
X67889463Y-52605506D01*
X67830498Y-52715820D01*
X67794188Y-52835518D01*
X67781928Y-52960000D01*
X66160000Y-52960000D01*
X66160000Y-43032279D01*
X66207670Y-42546107D01*
X66339489Y-42109502D01*
X66553600Y-41706815D01*
X66841848Y-41353388D01*
X67193261Y-41062673D01*
X67594439Y-40845758D01*
X68030113Y-40710894D01*
X68514344Y-40660000D01*
X129967721Y-40660000D01*
X130453893Y-40707670D01*
G04 #@! TA.AperFunction,Conductor*
D17*
G36*
X130453893Y-40707670D02*
G01*
X130890498Y-40839489D01*
X131293185Y-41053600D01*
X131646612Y-41341848D01*
X131937327Y-41693261D01*
X132154242Y-42094439D01*
X132289106Y-42530113D01*
X132340000Y-43014344D01*
X132340001Y-85967711D01*
X132292330Y-86453894D01*
X132160512Y-86890497D01*
X131946399Y-87293186D01*
X131658150Y-87646613D01*
X131306739Y-87937327D01*
X130905564Y-88154240D01*
X130469886Y-88289106D01*
X129985664Y-88340000D01*
X68532279Y-88340000D01*
X68046106Y-88292330D01*
X67609503Y-88160512D01*
X67206814Y-87946399D01*
X66853387Y-87658150D01*
X66562673Y-87306739D01*
X66345760Y-86905564D01*
X66210894Y-86469886D01*
X66160000Y-85985664D01*
X66160000Y-72540000D01*
X67781928Y-72540000D01*
X67781928Y-76040000D01*
X67794188Y-76164482D01*
X67830498Y-76284180D01*
X67889463Y-76394494D01*
X67968815Y-76491185D01*
X68065506Y-76570537D01*
X68175820Y-76629502D01*
X68235000Y-76647454D01*
X68235001Y-81551646D01*
X68205820Y-81560498D01*
X68095506Y-81619463D01*
X67998815Y-81698815D01*
X67919463Y-81795506D01*
X67860498Y-81905820D01*
X67824188Y-82025518D01*
X67811928Y-82150000D01*
X67811928Y-83850000D01*
X67824188Y-83974482D01*
X67860498Y-84094180D01*
X67919463Y-84204494D01*
X67998815Y-84301185D01*
X68095506Y-84380537D01*
X68205820Y-84439502D01*
X68325518Y-84475812D01*
X68450000Y-84488072D01*
X70150000Y-84488072D01*
X70274482Y-84475812D01*
X70394180Y-84439502D01*
X70504494Y-84380537D01*
X70601185Y-84301185D01*
X70680537Y-84204494D01*
X70739502Y-84094180D01*
X70761513Y-84021620D01*
X70893368Y-84153475D01*
X71136589Y-84315990D01*
X71406842Y-84427932D01*
X71693740Y-84485000D01*
X71986260Y-84485000D01*
X72273158Y-84427932D01*
X72543411Y-84315990D01*
X72786632Y-84153475D01*
X72993475Y-83946632D01*
X73115195Y-83764466D01*
X73184822Y-83881355D01*
X73379731Y-84097588D01*
X73613080Y-84271641D01*
X73875901Y-84396825D01*
X74023110Y-84441476D01*
X74253000Y-84320155D01*
X74253000Y-84027498D01*
X74379999Y-84040006D01*
X74507000Y-84027498D01*
X74507000Y-84320155D01*
X74736890Y-84441476D01*
X74884099Y-84396825D01*
X75146920Y-84271641D01*
X75380269Y-84097588D01*
X75575178Y-83881355D01*
X75644805Y-83764466D01*
X75766525Y-83946632D01*
X75973368Y-84153475D01*
X76216589Y-84315990D01*
X76486842Y-84427932D01*
X76773740Y-84485000D01*
X77066260Y-84485000D01*
X77353158Y-84427932D01*
X77623411Y-84315990D01*
X77866632Y-84153475D01*
X78073475Y-83946632D01*
X78190000Y-83772240D01*
X78306525Y-83946632D01*
X78513368Y-84153475D01*
X78756589Y-84315990D01*
X79026842Y-84427932D01*
X79313740Y-84485000D01*
X79606260Y-84485000D01*
X79893158Y-84427932D01*
X80163411Y-84315990D01*
X80406632Y-84153475D01*
X80613475Y-83946632D01*
X80730000Y-83772240D01*
X80846525Y-83946632D01*
X81053368Y-84153475D01*
X81296589Y-84315990D01*
X81566842Y-84427932D01*
X81853740Y-84485000D01*
X82146260Y-84485000D01*
X82433158Y-84427932D01*
X82703411Y-84315990D01*
X82946632Y-84153475D01*
X83153475Y-83946632D01*
X83270000Y-83772240D01*
X83386525Y-83946632D01*
X83593368Y-84153475D01*
X83836589Y-84315990D01*
X84106842Y-84427932D01*
X84393740Y-84485000D01*
X84686260Y-84485000D01*
X84973158Y-84427932D01*
X85243411Y-84315990D01*
X85486632Y-84153475D01*
X85693475Y-83946632D01*
X85815195Y-83764466D01*
X85884822Y-83881355D01*
X86079731Y-84097588D01*
X86313080Y-84271641D01*
X86575901Y-84396825D01*
X86723110Y-84441476D01*
X86953000Y-84320155D01*
X86953000Y-84027498D01*
X87079999Y-84040006D01*
X87207000Y-84027498D01*
X87207000Y-84320155D01*
X87436890Y-84441476D01*
X87584099Y-84396825D01*
X87846920Y-84271641D01*
X88080269Y-84097588D01*
X88275178Y-83881355D01*
X88344805Y-83764466D01*
X88466525Y-83946632D01*
X88673368Y-84153475D01*
X88916589Y-84315990D01*
X89186842Y-84427932D01*
X89473740Y-84485000D01*
X89766260Y-84485000D01*
X90053158Y-84427932D01*
X90323411Y-84315990D01*
X90566632Y-84153475D01*
X90773475Y-83946632D01*
X90890000Y-83772240D01*
X91006525Y-83946632D01*
X91213368Y-84153475D01*
X91456589Y-84315990D01*
X91726842Y-84427932D01*
X92013740Y-84485000D01*
X92306260Y-84485000D01*
X92593158Y-84427932D01*
X92863411Y-84315990D01*
X93106632Y-84153475D01*
X93313475Y-83946632D01*
X93430000Y-83772240D01*
X93546525Y-83946632D01*
X93753368Y-84153475D01*
X93996589Y-84315990D01*
X94266842Y-84427932D01*
X94553740Y-84485000D01*
X94846260Y-84485000D01*
X95133158Y-84427932D01*
X95403411Y-84315990D01*
X95646632Y-84153475D01*
X95853475Y-83946632D01*
X95970000Y-83772240D01*
X96086525Y-83946632D01*
X96293368Y-84153475D01*
X96536589Y-84315990D01*
X96806842Y-84427932D01*
X97093740Y-84485000D01*
X97386260Y-84485000D01*
X97673158Y-84427932D01*
X97943411Y-84315990D01*
X98186632Y-84153475D01*
X98393475Y-83946632D01*
X98515195Y-83764466D01*
X98584822Y-83881355D01*
X98779731Y-84097588D01*
X99013080Y-84271641D01*
X99275901Y-84396825D01*
X99423110Y-84441476D01*
X99653000Y-84320155D01*
X99653000Y-84027498D01*
X99779999Y-84040006D01*
X99907000Y-84027498D01*
X99907000Y-84320155D01*
X100136890Y-84441476D01*
X100284099Y-84396825D01*
X100546920Y-84271641D01*
X100780269Y-84097588D01*
X100975178Y-83881355D01*
X101044805Y-83764466D01*
X101166525Y-83946632D01*
X101373368Y-84153475D01*
X101616589Y-84315990D01*
X101886842Y-84427932D01*
X102173740Y-84485000D01*
X102466260Y-84485000D01*
X102753158Y-84427932D01*
X103023411Y-84315990D01*
X103266632Y-84153475D01*
X103473475Y-83946632D01*
X103590000Y-83772240D01*
X103706525Y-83946632D01*
X103913368Y-84153475D01*
X104156589Y-84315990D01*
X104426842Y-84427932D01*
X104713740Y-84485000D01*
X105006260Y-84485000D01*
X105293158Y-84427932D01*
X105563411Y-84315990D01*
X105806632Y-84153475D01*
X106013475Y-83946632D01*
X106130000Y-83772240D01*
X106246525Y-83946632D01*
X106453368Y-84153475D01*
X106696589Y-84315990D01*
X106966842Y-84427932D01*
X107253740Y-84485000D01*
X107546260Y-84485000D01*
X107833158Y-84427932D01*
X108103411Y-84315990D01*
X108346632Y-84153475D01*
X108553475Y-83946632D01*
X108670000Y-83772240D01*
X108786525Y-83946632D01*
X108993368Y-84153475D01*
X109236589Y-84315990D01*
X109506842Y-84427932D01*
X109793740Y-84485000D01*
X110086260Y-84485000D01*
X110373158Y-84427932D01*
X110643411Y-84315990D01*
X110886632Y-84153475D01*
X111093475Y-83946632D01*
X111215195Y-83764466D01*
X111284822Y-83881355D01*
X111479731Y-84097588D01*
X111713080Y-84271641D01*
X111975901Y-84396825D01*
X112123110Y-84441476D01*
X112353000Y-84320155D01*
X112353000Y-84027498D01*
X112479999Y-84040006D01*
X112607000Y-84027498D01*
X112607000Y-84320155D01*
X112836890Y-84441476D01*
X112984099Y-84396825D01*
X113246920Y-84271641D01*
X113480269Y-84097588D01*
X113675178Y-83881355D01*
X113744805Y-83764466D01*
X113866525Y-83946632D01*
X114073368Y-84153475D01*
X114316589Y-84315990D01*
X114586842Y-84427932D01*
X114873740Y-84485000D01*
X115166260Y-84485000D01*
X115453158Y-84427932D01*
X115723411Y-84315990D01*
X115966632Y-84153475D01*
X116173475Y-83946632D01*
X116290000Y-83772240D01*
X116406525Y-83946632D01*
X116613368Y-84153475D01*
X116856589Y-84315990D01*
X117126842Y-84427932D01*
X117413740Y-84485000D01*
X117706260Y-84485000D01*
X117993158Y-84427932D01*
X118263411Y-84315990D01*
X118506632Y-84153475D01*
X118713475Y-83946632D01*
X118875990Y-83703411D01*
X118987932Y-83433158D01*
X119045000Y-83146260D01*
X119045000Y-82853740D01*
X118987932Y-82566842D01*
X118875990Y-82296589D01*
X118713475Y-82053368D01*
X118565000Y-81904893D01*
X118565000Y-76647454D01*
X118624180Y-76629502D01*
X118734494Y-76570537D01*
X118831185Y-76491185D01*
X118910537Y-76394494D01*
X118969502Y-76284180D01*
X119005812Y-76164482D01*
X119018072Y-76040000D01*
X119018072Y-72540000D01*
X119005812Y-72415518D01*
X118969502Y-72295820D01*
X118910537Y-72185506D01*
X118831185Y-72088815D01*
X118734494Y-72009463D01*
X118624180Y-71950498D01*
X118504482Y-71914188D01*
X118380000Y-71901928D01*
X116680000Y-71901928D01*
X116555518Y-71914188D01*
X116435820Y-71950498D01*
X116325506Y-72009463D01*
X116260000Y-72063222D01*
X116194494Y-72009463D01*
X116084180Y-71950498D01*
X115964482Y-71914188D01*
X115840000Y-71901928D01*
X114140000Y-71901928D01*
X114015518Y-71914188D01*
X113895820Y-71950498D01*
X113785506Y-72009463D01*
X113720000Y-72063222D01*
X113654494Y-72009463D01*
X113544180Y-71950498D01*
X113424482Y-71914188D01*
X113300000Y-71901928D01*
X111600000Y-71901928D01*
X111475518Y-71914188D01*
X111355820Y-71950498D01*
X111245506Y-72009463D01*
X111180000Y-72063222D01*
X111114494Y-72009463D01*
X111004180Y-71950498D01*
X110884482Y-71914188D01*
X110760000Y-71901928D01*
X109060000Y-71901928D01*
X108935518Y-71914188D01*
X108815820Y-71950498D01*
X108705506Y-72009463D01*
X108640000Y-72063222D01*
X108574494Y-72009463D01*
X108464180Y-71950498D01*
X108344482Y-71914188D01*
X108220000Y-71901928D01*
X106520000Y-71901928D01*
X106395518Y-71914188D01*
X106275820Y-71950498D01*
X106165506Y-72009463D01*
X106100000Y-72063222D01*
X106034494Y-72009463D01*
X105924180Y-71950498D01*
X105804482Y-71914188D01*
X105680000Y-71901928D01*
X103980000Y-71901928D01*
X103855518Y-71914188D01*
X103735820Y-71950498D01*
X103625506Y-72009463D01*
X103560000Y-72063222D01*
X103494494Y-72009463D01*
X103384180Y-71950498D01*
X103264482Y-71914188D01*
X103140000Y-71901928D01*
X101440000Y-71901928D01*
X101315518Y-71914188D01*
X101195820Y-71950498D01*
X101085506Y-72009463D01*
X101020000Y-72063222D01*
X100954494Y-72009463D01*
X100844180Y-71950498D01*
X100724482Y-71914188D01*
X100600000Y-71901928D01*
X98900000Y-71901928D01*
X98775518Y-71914188D01*
X98655820Y-71950498D01*
X98545506Y-72009463D01*
X98480000Y-72063222D01*
X98414494Y-72009463D01*
X98304180Y-71950498D01*
X98184482Y-71914188D01*
X98060000Y-71901928D01*
X96360000Y-71901928D01*
X96235518Y-71914188D01*
X96115820Y-71950498D01*
X96005506Y-72009463D01*
X95940000Y-72063222D01*
X95874494Y-72009463D01*
X95764180Y-71950498D01*
X95644482Y-71914188D01*
X95520000Y-71901928D01*
X93820000Y-71901928D01*
X93695518Y-71914188D01*
X93575820Y-71950498D01*
X93465506Y-72009463D01*
X93400000Y-72063222D01*
X93334494Y-72009463D01*
X93224180Y-71950498D01*
X93104482Y-71914188D01*
X92980000Y-71901928D01*
X91280000Y-71901928D01*
X91155518Y-71914188D01*
X91035820Y-71950498D01*
X90925506Y-72009463D01*
X90860000Y-72063222D01*
X90794494Y-72009463D01*
X90684180Y-71950498D01*
X90564482Y-71914188D01*
X90440000Y-71901928D01*
X88740000Y-71901928D01*
X88615518Y-71914188D01*
X88495820Y-71950498D01*
X88385506Y-72009463D01*
X88320000Y-72063222D01*
X88254494Y-72009463D01*
X88144180Y-71950498D01*
X88024482Y-71914188D01*
X87900000Y-71901928D01*
X86200000Y-71901928D01*
X86075518Y-71914188D01*
X85955820Y-71950498D01*
X85845506Y-72009463D01*
X85780000Y-72063222D01*
X85714494Y-72009463D01*
X85604180Y-71950498D01*
X85484482Y-71914188D01*
X85360000Y-71901928D01*
X83660000Y-71901928D01*
X83535518Y-71914188D01*
X83415820Y-71950498D01*
X83305506Y-72009463D01*
X83240000Y-72063222D01*
X83174494Y-72009463D01*
X83064180Y-71950498D01*
X82944482Y-71914188D01*
X82820000Y-71901928D01*
X81120000Y-71901928D01*
X80995518Y-71914188D01*
X80875820Y-71950498D01*
X80765506Y-72009463D01*
X80700000Y-72063222D01*
X80634494Y-72009463D01*
X80524180Y-71950498D01*
X80404482Y-71914188D01*
X80280000Y-71901928D01*
X78580000Y-71901928D01*
X78455518Y-71914188D01*
X78335820Y-71950498D01*
X78225506Y-72009463D01*
X78160000Y-72063222D01*
X78094494Y-72009463D01*
X77984180Y-71950498D01*
X77864482Y-71914188D01*
X77740000Y-71901928D01*
X76040000Y-71901928D01*
X75915518Y-71914188D01*
X75795820Y-71950498D01*
X75685506Y-72009463D01*
X75620000Y-72063222D01*
X75554494Y-72009463D01*
X75444180Y-71950498D01*
X75324482Y-71914188D01*
X75200000Y-71901928D01*
X73500000Y-71901928D01*
X73375518Y-71914188D01*
X73255820Y-71950498D01*
X73145506Y-72009463D01*
X73080000Y-72063222D01*
X73014494Y-72009463D01*
X72904180Y-71950498D01*
X72784482Y-71914188D01*
X72660000Y-71901928D01*
X70960000Y-71901928D01*
X70835518Y-71914188D01*
X70715820Y-71950498D01*
X70605506Y-72009463D01*
X70540000Y-72063222D01*
X70474494Y-72009463D01*
X70364180Y-71950498D01*
X70244482Y-71914188D01*
X70120000Y-71901928D01*
X68420000Y-71901928D01*
X68295518Y-71914188D01*
X68175820Y-71950498D01*
X68065506Y-72009463D01*
X67968815Y-72088815D01*
X67889463Y-72185506D01*
X67830498Y-72295820D01*
X67794188Y-72415518D01*
X67781928Y-72540000D01*
X66160000Y-72540000D01*
X66160000Y-67073816D01*
X67865000Y-67073816D01*
X67865000Y-67376184D01*
X67923989Y-67672743D01*
X68039701Y-67952095D01*
X68207688Y-68203505D01*
X68421495Y-68417312D01*
X68672905Y-68585299D01*
X68952257Y-68701011D01*
X69248816Y-68760000D01*
X69551184Y-68760000D01*
X69847743Y-68701011D01*
X70127095Y-68585299D01*
X70378505Y-68417312D01*
X70592312Y-68203505D01*
X70760299Y-67952095D01*
X70876011Y-67672743D01*
X70935000Y-67376184D01*
X70935000Y-67073816D01*
X70878266Y-66788589D01*
X71045000Y-66788589D01*
X71045000Y-67061411D01*
X71098225Y-67328989D01*
X71202629Y-67581043D01*
X71354201Y-67807886D01*
X71547114Y-68000799D01*
X71773957Y-68152371D01*
X72026011Y-68256775D01*
X72293589Y-68310000D01*
X72566411Y-68310000D01*
X72833989Y-68256775D01*
X73086043Y-68152371D01*
X73312886Y-68000799D01*
X73505799Y-67807886D01*
X73657371Y-67581043D01*
X73761775Y-67328989D01*
X73815000Y-67061411D01*
X73815000Y-66788589D01*
X73761775Y-66521011D01*
X73657371Y-66268957D01*
X73505799Y-66042114D01*
X73312886Y-65849201D01*
X73086043Y-65697629D01*
X72833989Y-65593225D01*
X72566411Y-65540000D01*
X72293589Y-65540000D01*
X72026011Y-65593225D01*
X71773957Y-65697629D01*
X71547114Y-65849201D01*
X71354201Y-66042114D01*
X71202629Y-66268957D01*
X71098225Y-66521011D01*
X71045000Y-66788589D01*
X70878266Y-66788589D01*
X70876011Y-66777257D01*
X70760299Y-66497905D01*
X70592312Y-66246495D01*
X70378505Y-66032688D01*
X70127095Y-65864701D01*
X69847743Y-65748989D01*
X69551184Y-65690000D01*
X69248816Y-65690000D01*
X68952257Y-65748989D01*
X68672905Y-65864701D01*
X68421495Y-66032688D01*
X68207688Y-66246495D01*
X68039701Y-66497905D01*
X67923989Y-66777257D01*
X67865000Y-67073816D01*
X66160000Y-67073816D01*
X66160000Y-61623816D01*
X67865000Y-61623816D01*
X67865000Y-61926184D01*
X67923989Y-62222743D01*
X68039701Y-62502095D01*
X68207688Y-62753505D01*
X68421495Y-62967312D01*
X68672905Y-63135299D01*
X68952257Y-63251011D01*
X69248816Y-63310000D01*
X69551184Y-63310000D01*
X69847743Y-63251011D01*
X70127095Y-63135299D01*
X70378505Y-62967312D01*
X70592312Y-62753505D01*
X70760299Y-62502095D01*
X70876011Y-62222743D01*
X70932532Y-61938589D01*
X71045000Y-61938589D01*
X71045000Y-62211411D01*
X71098225Y-62478989D01*
X71202629Y-62731043D01*
X71354201Y-62957886D01*
X71547114Y-63150799D01*
X71773957Y-63302371D01*
X72026011Y-63406775D01*
X72293589Y-63460000D01*
X72566411Y-63460000D01*
X72833989Y-63406775D01*
X73086043Y-63302371D01*
X73312886Y-63150799D01*
X73505799Y-62957886D01*
X73657371Y-62731043D01*
X73761775Y-62478989D01*
X73815000Y-62211411D01*
X73815000Y-61938589D01*
X73761775Y-61671011D01*
X73657371Y-61418957D01*
X73505799Y-61192114D01*
X73423685Y-61110000D01*
X115811928Y-61110000D01*
X115811928Y-62810000D01*
X115824188Y-62934482D01*
X115860498Y-63054180D01*
X115919463Y-63164494D01*
X115973222Y-63230000D01*
X115919463Y-63295506D01*
X115860498Y-63405820D01*
X115824188Y-63525518D01*
X115811928Y-63650000D01*
X115811928Y-65350000D01*
X115824188Y-65474482D01*
X115860498Y-65594180D01*
X115919463Y-65704494D01*
X115973222Y-65770000D01*
X115919463Y-65835506D01*
X115860498Y-65945820D01*
X115824188Y-66065518D01*
X115811928Y-66190000D01*
X115811928Y-67890000D01*
X115824188Y-68014482D01*
X115860498Y-68134180D01*
X115919463Y-68244494D01*
X115998815Y-68341185D01*
X116095506Y-68420537D01*
X116205820Y-68479502D01*
X116325518Y-68515812D01*
X116450000Y-68528072D01*
X119950000Y-68528072D01*
X120074482Y-68515812D01*
X120194180Y-68479502D01*
X120304494Y-68420537D01*
X120401185Y-68341185D01*
X120480537Y-68244494D01*
X120539502Y-68134180D01*
X120575812Y-68014482D01*
X120588072Y-67890000D01*
X120588072Y-67838967D01*
X124365000Y-67838967D01*
X124365000Y-68161033D01*
X124427832Y-68476912D01*
X124551082Y-68774463D01*
X124730013Y-69042252D01*
X124957748Y-69269987D01*
X125225537Y-69448918D01*
X125523088Y-69572168D01*
X125838967Y-69635000D01*
X126161033Y-69635000D01*
X126476912Y-69572168D01*
X126774463Y-69448918D01*
X127042252Y-69269987D01*
X127176826Y-69135413D01*
X129544192Y-69135413D01*
X129639956Y-69399814D01*
X129929571Y-69540704D01*
X130241108Y-69622384D01*
X130562595Y-69641718D01*
X130881675Y-69597961D01*
X131186088Y-69492795D01*
X131360044Y-69399814D01*
X131455808Y-69135413D01*
X130500000Y-68179605D01*
X129544192Y-69135413D01*
X127176826Y-69135413D01*
X127269987Y-69042252D01*
X127448918Y-68774463D01*
X127572168Y-68476912D01*
X127635000Y-68161033D01*
X127635000Y-68062595D01*
X128858282Y-68062595D01*
X128902039Y-68381675D01*
X129007205Y-68686088D01*
X129100186Y-68860044D01*
X129364587Y-68955808D01*
X130320395Y-68000000D01*
X130679605Y-68000000D01*
X131635413Y-68955808D01*
X131899814Y-68860044D01*
X132040704Y-68570429D01*
X132122384Y-68258892D01*
X132141718Y-67937405D01*
X132097961Y-67618325D01*
X131992795Y-67313912D01*
X131899814Y-67139956D01*
X131635413Y-67044192D01*
X130679605Y-68000000D01*
X130320395Y-68000000D01*
X129364587Y-67044192D01*
X129100186Y-67139956D01*
X128959296Y-67429571D01*
X128877616Y-67741108D01*
X128858282Y-68062595D01*
X127635000Y-68062595D01*
X127635000Y-67838967D01*
X127572168Y-67523088D01*
X127448918Y-67225537D01*
X127269987Y-66957748D01*
X127176826Y-66864587D01*
X129544192Y-66864587D01*
X130500000Y-67820395D01*
X131455808Y-66864587D01*
X131360044Y-66600186D01*
X131070429Y-66459296D01*
X130758892Y-66377616D01*
X130437405Y-66358282D01*
X130118325Y-66402039D01*
X129813912Y-66507205D01*
X129639956Y-66600186D01*
X129544192Y-66864587D01*
X127176826Y-66864587D01*
X127042252Y-66730013D01*
X126774463Y-66551082D01*
X126476912Y-66427832D01*
X126161033Y-66365000D01*
X125838967Y-66365000D01*
X125523088Y-66427832D01*
X125225537Y-66551082D01*
X124957748Y-66730013D01*
X124730013Y-66957748D01*
X124551082Y-67225537D01*
X124427832Y-67523088D01*
X124365000Y-67838967D01*
X120588072Y-67838967D01*
X120588072Y-66190000D01*
X120575812Y-66065518D01*
X120539502Y-65945820D01*
X120480537Y-65835506D01*
X120426778Y-65770000D01*
X120480537Y-65704494D01*
X120539502Y-65594180D01*
X120575812Y-65474482D01*
X120588072Y-65350000D01*
X120588072Y-63650000D01*
X120575812Y-63525518D01*
X120539502Y-63405820D01*
X120480537Y-63295506D01*
X120426778Y-63230000D01*
X120480537Y-63164494D01*
X120539502Y-63054180D01*
X120575812Y-62934482D01*
X120588072Y-62810000D01*
X120588072Y-61110000D01*
X120575812Y-60985518D01*
X120539502Y-60865820D01*
X120480537Y-60755506D01*
X120401185Y-60658815D01*
X120304494Y-60579463D01*
X120194180Y-60520498D01*
X120074482Y-60484188D01*
X119950000Y-60471928D01*
X116450000Y-60471928D01*
X116325518Y-60484188D01*
X116205820Y-60520498D01*
X116095506Y-60579463D01*
X115998815Y-60658815D01*
X115919463Y-60755506D01*
X115860498Y-60865820D01*
X115824188Y-60985518D01*
X115811928Y-61110000D01*
X73423685Y-61110000D01*
X73312886Y-60999201D01*
X73086043Y-60847629D01*
X72833989Y-60743225D01*
X72566411Y-60690000D01*
X72293589Y-60690000D01*
X72026011Y-60743225D01*
X71773957Y-60847629D01*
X71547114Y-60999201D01*
X71354201Y-61192114D01*
X71202629Y-61418957D01*
X71098225Y-61671011D01*
X71045000Y-61938589D01*
X70932532Y-61938589D01*
X70935000Y-61926184D01*
X70935000Y-61623816D01*
X70876011Y-61327257D01*
X70760299Y-61047905D01*
X70592312Y-60796495D01*
X70378505Y-60582688D01*
X70127095Y-60414701D01*
X69847743Y-60298989D01*
X69551184Y-60240000D01*
X69248816Y-60240000D01*
X68952257Y-60298989D01*
X68672905Y-60414701D01*
X68421495Y-60582688D01*
X68207688Y-60796495D01*
X68039701Y-61047905D01*
X67923989Y-61327257D01*
X67865000Y-61623816D01*
X66160000Y-61623816D01*
X66160000Y-52960000D01*
X67781928Y-52960000D01*
X67781928Y-56460000D01*
X67794188Y-56584482D01*
X67830498Y-56704180D01*
X67889463Y-56814494D01*
X67968815Y-56911185D01*
X68065506Y-56990537D01*
X68175820Y-57049502D01*
X68295518Y-57085812D01*
X68420000Y-57098072D01*
X70120000Y-57098072D01*
X70244482Y-57085812D01*
X70364180Y-57049502D01*
X70474494Y-56990537D01*
X70540000Y-56936778D01*
X70605506Y-56990537D01*
X70715820Y-57049502D01*
X70835518Y-57085812D01*
X70960000Y-57098072D01*
X72660000Y-57098072D01*
X72784482Y-57085812D01*
X72904180Y-57049502D01*
X73014494Y-56990537D01*
X73080000Y-56936778D01*
X73145506Y-56990537D01*
X73255820Y-57049502D01*
X73375518Y-57085812D01*
X73500000Y-57098072D01*
X74064250Y-57095000D01*
X74223000Y-56936250D01*
X74223000Y-52483750D01*
X74477000Y-52483750D01*
X74477000Y-56936250D01*
X74635750Y-57095000D01*
X75200000Y-57098072D01*
X75324482Y-57085812D01*
X75444180Y-57049502D01*
X75554494Y-56990537D01*
X75620000Y-56936778D01*
X75685506Y-56990537D01*
X75795820Y-57049502D01*
X75915518Y-57085812D01*
X76040000Y-57098072D01*
X77740000Y-57098072D01*
X77864482Y-57085812D01*
X77984180Y-57049502D01*
X78094494Y-56990537D01*
X78160000Y-56936778D01*
X78225506Y-56990537D01*
X78335820Y-57049502D01*
X78455518Y-57085812D01*
X78580000Y-57098072D01*
X80280000Y-57098072D01*
X80404482Y-57085812D01*
X80524180Y-57049502D01*
X80634494Y-56990537D01*
X80700000Y-56936778D01*
X80765506Y-56990537D01*
X80875820Y-57049502D01*
X80995518Y-57085812D01*
X81120000Y-57098072D01*
X82820000Y-57098072D01*
X82944482Y-57085812D01*
X83064180Y-57049502D01*
X83174494Y-56990537D01*
X83240000Y-56936778D01*
X83305506Y-56990537D01*
X83415820Y-57049502D01*
X83535518Y-57085812D01*
X83660000Y-57098072D01*
X85360000Y-57098072D01*
X85484482Y-57085812D01*
X85604180Y-57049502D01*
X85714494Y-56990537D01*
X85780000Y-56936778D01*
X85845506Y-56990537D01*
X85955820Y-57049502D01*
X86075518Y-57085812D01*
X86200000Y-57098072D01*
X87900000Y-57098072D01*
X88024482Y-57085812D01*
X88144180Y-57049502D01*
X88254494Y-56990537D01*
X88320000Y-56936778D01*
X88385506Y-56990537D01*
X88495820Y-57049502D01*
X88615518Y-57085812D01*
X88740000Y-57098072D01*
X90440000Y-57098072D01*
X90564482Y-57085812D01*
X90684180Y-57049502D01*
X90794494Y-56990537D01*
X90860000Y-56936778D01*
X90925506Y-56990537D01*
X91035820Y-57049502D01*
X91155518Y-57085812D01*
X91280000Y-57098072D01*
X92980000Y-57098072D01*
X93104482Y-57085812D01*
X93224180Y-57049502D01*
X93334494Y-56990537D01*
X93400000Y-56936778D01*
X93465506Y-56990537D01*
X93575820Y-57049502D01*
X93669027Y-57077776D01*
X93709159Y-57210073D01*
X93805266Y-57389878D01*
X93934604Y-57547477D01*
X93974097Y-57579888D01*
X96090115Y-59695907D01*
X96122523Y-59735396D01*
X96162011Y-59767803D01*
X96280121Y-59864734D01*
X96349915Y-59902039D01*
X96459926Y-59960841D01*
X96655024Y-60020024D01*
X96807081Y-60035000D01*
X96807084Y-60035000D01*
X96857919Y-60040007D01*
X96908754Y-60035000D01*
X123071290Y-60035000D01*
X124366702Y-61330412D01*
X124365000Y-61338967D01*
X124365000Y-61661033D01*
X124427832Y-61976912D01*
X124551082Y-62274463D01*
X124730013Y-62542252D01*
X124957748Y-62769987D01*
X125225537Y-62948918D01*
X125523088Y-63072168D01*
X125838967Y-63135000D01*
X126161033Y-63135000D01*
X126476912Y-63072168D01*
X126774463Y-62948918D01*
X127042252Y-62769987D01*
X127176826Y-62635413D01*
X129544192Y-62635413D01*
X129639956Y-62899814D01*
X129929571Y-63040704D01*
X130241108Y-63122384D01*
X130562595Y-63141718D01*
X130881675Y-63097961D01*
X131186088Y-62992795D01*
X131360044Y-62899814D01*
X131455808Y-62635413D01*
X130500000Y-61679605D01*
X129544192Y-62635413D01*
X127176826Y-62635413D01*
X127269987Y-62542252D01*
X127448918Y-62274463D01*
X127572168Y-61976912D01*
X127635000Y-61661033D01*
X127635000Y-61562595D01*
X128858282Y-61562595D01*
X128902039Y-61881675D01*
X129007205Y-62186088D01*
X129100186Y-62360044D01*
X129364587Y-62455808D01*
X130320395Y-61500000D01*
X130679605Y-61500000D01*
X131635413Y-62455808D01*
X131899814Y-62360044D01*
X132040704Y-62070429D01*
X132122384Y-61758892D01*
X132141718Y-61437405D01*
X132097961Y-61118325D01*
X131992795Y-60813912D01*
X131899814Y-60639956D01*
X131635413Y-60544192D01*
X130679605Y-61500000D01*
X130320395Y-61500000D01*
X129364587Y-60544192D01*
X129100186Y-60639956D01*
X128959296Y-60929571D01*
X128877616Y-61241108D01*
X128858282Y-61562595D01*
X127635000Y-61562595D01*
X127635000Y-61338967D01*
X127572168Y-61023088D01*
X127448918Y-60725537D01*
X127269987Y-60457748D01*
X127176826Y-60364587D01*
X129544192Y-60364587D01*
X130500000Y-61320395D01*
X131455808Y-60364587D01*
X131360044Y-60100186D01*
X131070429Y-59959296D01*
X130758892Y-59877616D01*
X130437405Y-59858282D01*
X130118325Y-59902039D01*
X129813912Y-60007205D01*
X129639956Y-60100186D01*
X129544192Y-60364587D01*
X127176826Y-60364587D01*
X127042252Y-60230013D01*
X126774463Y-60051082D01*
X126476912Y-59927832D01*
X126161033Y-59865000D01*
X125838967Y-59865000D01*
X125830412Y-59866702D01*
X124267807Y-58304097D01*
X124235396Y-58264604D01*
X124077797Y-58135266D01*
X123897993Y-58039159D01*
X123702895Y-57979976D01*
X123550838Y-57965000D01*
X123550828Y-57965000D01*
X123500000Y-57959994D01*
X123449172Y-57965000D01*
X97286630Y-57965000D01*
X96419701Y-57098072D01*
X98060000Y-57098072D01*
X98184482Y-57085812D01*
X98304180Y-57049502D01*
X98414494Y-56990537D01*
X98480000Y-56936778D01*
X98545506Y-56990537D01*
X98655820Y-57049502D01*
X98775518Y-57085812D01*
X98900000Y-57098072D01*
X99464250Y-57095000D01*
X99623000Y-56936250D01*
X99623000Y-52483750D01*
X99877000Y-52483750D01*
X99877000Y-56936250D01*
X100035750Y-57095000D01*
X100600000Y-57098072D01*
X100724482Y-57085812D01*
X100844180Y-57049502D01*
X100954494Y-56990537D01*
X101020000Y-56936778D01*
X101085506Y-56990537D01*
X101195820Y-57049502D01*
X101315518Y-57085812D01*
X101440000Y-57098072D01*
X103140000Y-57098072D01*
X103264482Y-57085812D01*
X103384180Y-57049502D01*
X103494494Y-56990537D01*
X103560000Y-56936778D01*
X103625506Y-56990537D01*
X103735820Y-57049502D01*
X103855518Y-57085812D01*
X103980000Y-57098072D01*
X105680000Y-57098072D01*
X105804482Y-57085812D01*
X105924180Y-57049502D01*
X106034494Y-56990537D01*
X106100000Y-56936778D01*
X106165506Y-56990537D01*
X106275820Y-57049502D01*
X106395518Y-57085812D01*
X106520000Y-57098072D01*
X108220000Y-57098072D01*
X108344482Y-57085812D01*
X108464180Y-57049502D01*
X108574494Y-56990537D01*
X108640000Y-56936778D01*
X108705506Y-56990537D01*
X108815820Y-57049502D01*
X108935518Y-57085812D01*
X109060000Y-57098072D01*
X110760000Y-57098072D01*
X110884482Y-57085812D01*
X111004180Y-57049502D01*
X111114494Y-56990537D01*
X111180000Y-56936778D01*
X111245506Y-56990537D01*
X111355820Y-57049502D01*
X111475518Y-57085812D01*
X111600000Y-57098072D01*
X112164250Y-57095000D01*
X112323000Y-56936250D01*
X112323000Y-52483750D01*
X112577000Y-52483750D01*
X112577000Y-56936250D01*
X112735750Y-57095000D01*
X113300000Y-57098072D01*
X113424482Y-57085812D01*
X113544180Y-57049502D01*
X113654494Y-56990537D01*
X113720000Y-56936778D01*
X113785506Y-56990537D01*
X113895820Y-57049502D01*
X114015518Y-57085812D01*
X114140000Y-57098072D01*
X115840000Y-57098072D01*
X115964482Y-57085812D01*
X116084180Y-57049502D01*
X116194494Y-56990537D01*
X116260000Y-56936778D01*
X116325506Y-56990537D01*
X116435820Y-57049502D01*
X116555518Y-57085812D01*
X116680000Y-57098072D01*
X118380000Y-57098072D01*
X118504482Y-57085812D01*
X118624180Y-57049502D01*
X118734494Y-56990537D01*
X118831185Y-56911185D01*
X118910537Y-56814494D01*
X118969502Y-56704180D01*
X119005812Y-56584482D01*
X119018072Y-56460000D01*
X119018072Y-52960000D01*
X119005812Y-52835518D01*
X118969502Y-52715820D01*
X118910537Y-52605506D01*
X118831185Y-52508815D01*
X118734494Y-52429463D01*
X118624180Y-52370498D01*
X118565000Y-52352546D01*
X118565000Y-47095107D01*
X118713475Y-46946632D01*
X118875990Y-46703411D01*
X118987932Y-46433158D01*
X119045000Y-46146260D01*
X119045000Y-45853740D01*
X118987932Y-45566842D01*
X118875990Y-45296589D01*
X118713475Y-45053368D01*
X118506632Y-44846525D01*
X118263411Y-44684010D01*
X117993158Y-44572068D01*
X117706260Y-44515000D01*
X117413740Y-44515000D01*
X117126842Y-44572068D01*
X116856589Y-44684010D01*
X116613368Y-44846525D01*
X116406525Y-45053368D01*
X116290000Y-45227760D01*
X116173475Y-45053368D01*
X115966632Y-44846525D01*
X115723411Y-44684010D01*
X115453158Y-44572068D01*
X115166260Y-44515000D01*
X114873740Y-44515000D01*
X114586842Y-44572068D01*
X114316589Y-44684010D01*
X114073368Y-44846525D01*
X113866525Y-45053368D01*
X113744805Y-45235534D01*
X113675178Y-45118645D01*
X113480269Y-44902412D01*
X113246920Y-44728359D01*
X112984099Y-44603175D01*
X112836890Y-44558524D01*
X112607000Y-44679845D01*
X112607000Y-45873000D01*
X112627000Y-45873000D01*
X112627000Y-46127000D01*
X112607000Y-46127000D01*
X112607000Y-47320155D01*
X112836890Y-47441476D01*
X112984099Y-47396825D01*
X113246920Y-47271641D01*
X113480269Y-47097588D01*
X113675178Y-46881355D01*
X113744805Y-46764466D01*
X113866525Y-46946632D01*
X113955001Y-47035108D01*
X113955000Y-52352546D01*
X113895820Y-52370498D01*
X113785506Y-52429463D01*
X113720000Y-52483222D01*
X113654494Y-52429463D01*
X113544180Y-52370498D01*
X113424482Y-52334188D01*
X113300000Y-52321928D01*
X112735750Y-52325000D01*
X112577000Y-52483750D01*
X112323000Y-52483750D01*
X112164250Y-52325000D01*
X111600000Y-52321928D01*
X111475518Y-52334188D01*
X111355820Y-52370498D01*
X111245506Y-52429463D01*
X111180000Y-52483222D01*
X111114494Y-52429463D01*
X111004180Y-52370498D01*
X110945000Y-52352546D01*
X110945000Y-47095107D01*
X111093475Y-46946632D01*
X111215195Y-46764466D01*
X111284822Y-46881355D01*
X111479731Y-47097588D01*
X111713080Y-47271641D01*
X111975901Y-47396825D01*
X112123110Y-47441476D01*
X112353000Y-47320155D01*
X112353000Y-46127000D01*
X112333000Y-46127000D01*
X112333000Y-45873000D01*
X112353000Y-45873000D01*
X112353000Y-44679845D01*
X112123110Y-44558524D01*
X111975901Y-44603175D01*
X111713080Y-44728359D01*
X111479731Y-44902412D01*
X111284822Y-45118645D01*
X111215195Y-45235534D01*
X111093475Y-45053368D01*
X110886632Y-44846525D01*
X110643411Y-44684010D01*
X110373158Y-44572068D01*
X110086260Y-44515000D01*
X109793740Y-44515000D01*
X109506842Y-44572068D01*
X109236589Y-44684010D01*
X108993368Y-44846525D01*
X108786525Y-45053368D01*
X108670000Y-45227760D01*
X108553475Y-45053368D01*
X108346632Y-44846525D01*
X108103411Y-44684010D01*
X107833158Y-44572068D01*
X107546260Y-44515000D01*
X107253740Y-44515000D01*
X106966842Y-44572068D01*
X106696589Y-44684010D01*
X106453368Y-44846525D01*
X106246525Y-45053368D01*
X106130000Y-45227760D01*
X106013475Y-45053368D01*
X105806632Y-44846525D01*
X105563411Y-44684010D01*
X105293158Y-44572068D01*
X105006260Y-44515000D01*
X104713740Y-44515000D01*
X104426842Y-44572068D01*
X104156589Y-44684010D01*
X103913368Y-44846525D01*
X103706525Y-45053368D01*
X103590000Y-45227760D01*
X103473475Y-45053368D01*
X103266632Y-44846525D01*
X103023411Y-44684010D01*
X102753158Y-44572068D01*
X102466260Y-44515000D01*
X102173740Y-44515000D01*
X101886842Y-44572068D01*
X101616589Y-44684010D01*
X101373368Y-44846525D01*
X101166525Y-45053368D01*
X101044805Y-45235534D01*
X100975178Y-45118645D01*
X100780269Y-44902412D01*
X100546920Y-44728359D01*
X100284099Y-44603175D01*
X100136890Y-44558524D01*
X99907000Y-44679845D01*
X99907000Y-45873000D01*
X99927000Y-45873000D01*
X99927000Y-46127000D01*
X99907000Y-46127000D01*
X99907000Y-47320155D01*
X100136890Y-47441476D01*
X100284099Y-47396825D01*
X100546920Y-47271641D01*
X100780269Y-47097588D01*
X100975178Y-46881355D01*
X101044805Y-46764466D01*
X101166525Y-46946632D01*
X101255001Y-47035108D01*
X101255000Y-52352546D01*
X101195820Y-52370498D01*
X101085506Y-52429463D01*
X101020000Y-52483222D01*
X100954494Y-52429463D01*
X100844180Y-52370498D01*
X100724482Y-52334188D01*
X100600000Y-52321928D01*
X100035750Y-52325000D01*
X99877000Y-52483750D01*
X99623000Y-52483750D01*
X99464250Y-52325000D01*
X98900000Y-52321928D01*
X98775518Y-52334188D01*
X98655820Y-52370498D01*
X98545506Y-52429463D01*
X98480000Y-52483222D01*
X98414494Y-52429463D01*
X98304180Y-52370498D01*
X98245000Y-52352546D01*
X98245000Y-47095107D01*
X98393475Y-46946632D01*
X98515195Y-46764466D01*
X98584822Y-46881355D01*
X98779731Y-47097588D01*
X99013080Y-47271641D01*
X99275901Y-47396825D01*
X99423110Y-47441476D01*
X99653000Y-47320155D01*
X99653000Y-46127000D01*
X99633000Y-46127000D01*
X99633000Y-45873000D01*
X99653000Y-45873000D01*
X99653000Y-44679845D01*
X99423110Y-44558524D01*
X99275901Y-44603175D01*
X99013080Y-44728359D01*
X98779731Y-44902412D01*
X98584822Y-45118645D01*
X98515195Y-45235534D01*
X98393475Y-45053368D01*
X98186632Y-44846525D01*
X97943411Y-44684010D01*
X97673158Y-44572068D01*
X97386260Y-44515000D01*
X97093740Y-44515000D01*
X96806842Y-44572068D01*
X96536589Y-44684010D01*
X96293368Y-44846525D01*
X96086525Y-45053368D01*
X95970000Y-45227760D01*
X95853475Y-45053368D01*
X95646632Y-44846525D01*
X95403411Y-44684010D01*
X95133158Y-44572068D01*
X94846260Y-44515000D01*
X94553740Y-44515000D01*
X94266842Y-44572068D01*
X93996589Y-44684010D01*
X93753368Y-44846525D01*
X93546525Y-45053368D01*
X93430000Y-45227760D01*
X93313475Y-45053368D01*
X93106632Y-44846525D01*
X92863411Y-44684010D01*
X92593158Y-44572068D01*
X92306260Y-44515000D01*
X92013740Y-44515000D01*
X91726842Y-44572068D01*
X91456589Y-44684010D01*
X91213368Y-44846525D01*
X91006525Y-45053368D01*
X90890000Y-45227760D01*
X90773475Y-45053368D01*
X90566632Y-44846525D01*
X90323411Y-44684010D01*
X90053158Y-44572068D01*
X89766260Y-44515000D01*
X89473740Y-44515000D01*
X89186842Y-44572068D01*
X88916589Y-44684010D01*
X88673368Y-44846525D01*
X88466525Y-45053368D01*
X88350000Y-45227760D01*
X88233475Y-45053368D01*
X88026632Y-44846525D01*
X87783411Y-44684010D01*
X87513158Y-44572068D01*
X87226260Y-44515000D01*
X86933740Y-44515000D01*
X86646842Y-44572068D01*
X86376589Y-44684010D01*
X86133368Y-44846525D01*
X85926525Y-45053368D01*
X85810000Y-45227760D01*
X85693475Y-45053368D01*
X85486632Y-44846525D01*
X85243411Y-44684010D01*
X84973158Y-44572068D01*
X84686260Y-44515000D01*
X84393740Y-44515000D01*
X84106842Y-44572068D01*
X83836589Y-44684010D01*
X83593368Y-44846525D01*
X83386525Y-45053368D01*
X83270000Y-45227760D01*
X83153475Y-45053368D01*
X82946632Y-44846525D01*
X82703411Y-44684010D01*
X82433158Y-44572068D01*
X82146260Y-44515000D01*
X81853740Y-44515000D01*
X81566842Y-44572068D01*
X81296589Y-44684010D01*
X81053368Y-44846525D01*
X80846525Y-45053368D01*
X80730000Y-45227760D01*
X80613475Y-45053368D01*
X80406632Y-44846525D01*
X80163411Y-44684010D01*
X79893158Y-44572068D01*
X79606260Y-44515000D01*
X79313740Y-44515000D01*
X79026842Y-44572068D01*
X78756589Y-44684010D01*
X78513368Y-44846525D01*
X78306525Y-45053368D01*
X78190000Y-45227760D01*
X78073475Y-45053368D01*
X77866632Y-44846525D01*
X77623411Y-44684010D01*
X77353158Y-44572068D01*
X77066260Y-44515000D01*
X76773740Y-44515000D01*
X76486842Y-44572068D01*
X76216589Y-44684010D01*
X75973368Y-44846525D01*
X75766525Y-45053368D01*
X75644805Y-45235534D01*
X75575178Y-45118645D01*
X75380269Y-44902412D01*
X75146920Y-44728359D01*
X74884099Y-44603175D01*
X74736890Y-44558524D01*
X74507000Y-44679845D01*
X74507000Y-45873000D01*
X74527000Y-45873000D01*
X74527000Y-46127000D01*
X74507000Y-46127000D01*
X74507000Y-47320155D01*
X74736890Y-47441476D01*
X74884099Y-47396825D01*
X75146920Y-47271641D01*
X75380269Y-47097588D01*
X75575178Y-46881355D01*
X75644805Y-46764466D01*
X75766525Y-46946632D01*
X75885000Y-47065107D01*
X75885001Y-52343445D01*
X75795820Y-52370498D01*
X75685506Y-52429463D01*
X75620000Y-52483222D01*
X75554494Y-52429463D01*
X75444180Y-52370498D01*
X75324482Y-52334188D01*
X75200000Y-52321928D01*
X74635750Y-52325000D01*
X74477000Y-52483750D01*
X74223000Y-52483750D01*
X74064250Y-52325000D01*
X73500000Y-52321928D01*
X73375518Y-52334188D01*
X73255820Y-52370498D01*
X73145506Y-52429463D01*
X73080000Y-52483222D01*
X73014494Y-52429463D01*
X72904180Y-52370498D01*
X72875000Y-52361646D01*
X72875000Y-47065107D01*
X72993475Y-46946632D01*
X73115195Y-46764466D01*
X73184822Y-46881355D01*
X73379731Y-47097588D01*
X73613080Y-47271641D01*
X73875901Y-47396825D01*
X74023110Y-47441476D01*
X74253000Y-47320155D01*
X74253000Y-46127000D01*
X74233000Y-46127000D01*
X74233000Y-45873000D01*
X74253000Y-45873000D01*
X74253000Y-44679845D01*
X74023110Y-44558524D01*
X73875901Y-44603175D01*
X73613080Y-44728359D01*
X73379731Y-44902412D01*
X73184822Y-45118645D01*
X73115195Y-45235534D01*
X72993475Y-45053368D01*
X72786632Y-44846525D01*
X72543411Y-44684010D01*
X72273158Y-44572068D01*
X71986260Y-44515000D01*
X71693740Y-44515000D01*
X71406842Y-44572068D01*
X71136589Y-44684010D01*
X70893368Y-44846525D01*
X70761513Y-44978380D01*
X70739502Y-44905820D01*
X70680537Y-44795506D01*
X70601185Y-44698815D01*
X70504494Y-44619463D01*
X70394180Y-44560498D01*
X70274482Y-44524188D01*
X70150000Y-44511928D01*
X68450000Y-44511928D01*
X68325518Y-44524188D01*
X68205820Y-44560498D01*
X68095506Y-44619463D01*
X67998815Y-44698815D01*
X67919463Y-44795506D01*
X67860498Y-44905820D01*
X67824188Y-45025518D01*
X67811928Y-45150000D01*
X67811928Y-46850000D01*
X67824188Y-46974482D01*
X67860498Y-47094180D01*
X67919463Y-47204494D01*
X67998815Y-47301185D01*
X68095506Y-47380537D01*
X68205820Y-47439502D01*
X68265000Y-47457454D01*
X68265001Y-52343445D01*
X68175820Y-52370498D01*
X68065506Y-52429463D01*
X67968815Y-52508815D01*
X67889463Y-52605506D01*
X67830498Y-52715820D01*
X67794188Y-52835518D01*
X67781928Y-52960000D01*
X66160000Y-52960000D01*
X66160000Y-43032279D01*
X66207670Y-42546107D01*
X66339489Y-42109502D01*
X66553600Y-41706815D01*
X66841848Y-41353388D01*
X67193261Y-41062673D01*
X67594439Y-40845758D01*
X68030113Y-40710894D01*
X68514344Y-40660000D01*
X129967721Y-40660000D01*
X130453893Y-40707670D01*
G37*
G04 #@! TD.AperFunction*
M02*
