M48
; DRILL file {KiCad (5.1.10)-1} date 06/20/21 22:47:22
; FORMAT={-:-/ absolute / metric / decimal}
; #@! TF.CreationDate,2021-06-20T22:47:22+04:00
; #@! TF.GenerationSoftware,Kicad,Pcbnew,(5.1.10)-1
; #@! TF.FileFunction,Plated,1,2,PTH
FMAT,2
METRIC
T1C1.000
T2C1.020
T3C1.100
%
G90
G05
T1
X69.3Y-46.0
X69.3Y-83.0
X71.84Y-46.0
X71.84Y-83.0
X74.38Y-46.0
X74.38Y-83.0
X76.92Y-46.0
X76.92Y-83.0
X79.46Y-46.0
X79.46Y-83.0
X82.0Y-46.0
X82.0Y-83.0
X84.54Y-46.0
X84.54Y-83.0
X87.08Y-46.0
X87.08Y-83.0
X89.62Y-46.0
X89.62Y-83.0
X92.16Y-46.0
X92.16Y-83.0
X94.7Y-46.0
X94.7Y-83.0
X97.24Y-46.0
X97.24Y-83.0
X99.78Y-46.0
X99.78Y-83.0
X102.32Y-46.0
X102.32Y-83.0
X104.86Y-46.0
X104.86Y-83.0
X107.4Y-46.0
X107.4Y-83.0
X109.94Y-46.0
X109.94Y-83.0
X112.48Y-46.0
X112.48Y-83.0
X115.02Y-46.0
X115.02Y-83.0
X117.56Y-46.0
X117.56Y-83.0
T2
X69.27Y-55.61
X69.27Y-73.39
X71.81Y-55.61
X71.81Y-73.39
X74.35Y-55.61
X74.35Y-73.39
X76.89Y-55.61
X76.89Y-73.39
X79.43Y-55.61
X79.43Y-73.39
X81.97Y-55.61
X81.97Y-73.39
X84.51Y-55.61
X84.51Y-73.39
X87.05Y-55.61
X87.05Y-73.39
X89.59Y-55.61
X89.59Y-73.39
X92.13Y-55.61
X92.13Y-73.39
X94.67Y-55.61
X94.67Y-73.39
X97.21Y-55.61
X97.21Y-73.39
X99.75Y-55.61
X99.75Y-73.39
X102.29Y-55.61
X102.29Y-73.39
X104.83Y-55.61
X104.83Y-73.39
X107.37Y-55.61
X107.37Y-73.39
X109.91Y-55.61
X109.91Y-73.39
X112.45Y-55.61
X112.45Y-73.39
X114.99Y-55.61
X114.99Y-73.39
X117.3Y-61.96
X117.3Y-64.5
X117.3Y-67.04
X117.53Y-55.61
X117.53Y-73.39
T3
X126.0Y-61.5
X126.0Y-68.0
X130.5Y-61.5
X130.5Y-68.0
T0
M30
